<mxfile host="app.diagrams.net" agent="Mozilla/5.0 (Windows NT 10.0; Win64; x64) AppleWebKit/537.36 (KHTML, like Gecko) Chrome/131.0.0.0 Safari/537.36 Edg/131.0.0.0" version="25.0.3">
  <diagram name="Page-1" id="ZQwy2tCBjeSNqqhctZNx">
    <mxGraphModel dx="1047" dy="639" grid="1" gridSize="10" guides="1" tooltips="1" connect="1" arrows="1" fold="1" page="1" pageScale="1" pageWidth="850" pageHeight="1100" math="0" shadow="0">
      <root>
        <mxCell id="0" />
        <mxCell id="1" parent="0" />
        <mxCell id="28EZDfu7nihR8xJpcDyL-1" value="X1" style="text;align=center;html=1;verticalAlign=middle;whiteSpace=wrap;rounded=0;" vertex="1" parent="1">
          <mxGeometry x="90" y="190" width="60" height="30" as="geometry" />
        </mxCell>
        <mxCell id="28EZDfu7nihR8xJpcDyL-2" value="X2" style="text;strokeColor=#c1bebe;align=center;fillColor=none;html=1;verticalAlign=middle;whiteSpace=wrap;rounded=0;" vertex="1" parent="1">
          <mxGeometry x="90" y="250" width="60" height="30" as="geometry" />
        </mxCell>
        <mxCell id="28EZDfu7nihR8xJpcDyL-3" value="X3" style="text;strokeColor=#c1bebe;align=center;fillColor=none;html=1;verticalAlign=middle;whiteSpace=wrap;rounded=0;" vertex="1" parent="1">
          <mxGeometry x="90" y="310" width="60" height="30" as="geometry" />
        </mxCell>
        <mxCell id="28EZDfu7nihR8xJpcDyL-4" value="" style="ellipse;whiteSpace=wrap;html=1;aspect=fixed;" vertex="1" parent="1">
          <mxGeometry x="240" y="130" width="50" height="50" as="geometry" />
        </mxCell>
        <mxCell id="28EZDfu7nihR8xJpcDyL-5" value="" style="ellipse;whiteSpace=wrap;html=1;aspect=fixed;" vertex="1" parent="1">
          <mxGeometry x="240" y="200" width="50" height="50" as="geometry" />
        </mxCell>
        <mxCell id="28EZDfu7nihR8xJpcDyL-6" value="" style="ellipse;whiteSpace=wrap;html=1;aspect=fixed;" vertex="1" parent="1">
          <mxGeometry x="240" y="270" width="50" height="50" as="geometry" />
        </mxCell>
        <mxCell id="28EZDfu7nihR8xJpcDyL-7" value="" style="ellipse;whiteSpace=wrap;html=1;aspect=fixed;" vertex="1" parent="1">
          <mxGeometry x="240" y="340" width="50" height="50" as="geometry" />
        </mxCell>
        <mxCell id="28EZDfu7nihR8xJpcDyL-8" value="" style="ellipse;whiteSpace=wrap;html=1;aspect=fixed;" vertex="1" parent="1">
          <mxGeometry x="390" y="240" width="50" height="50" as="geometry" />
        </mxCell>
        <mxCell id="28EZDfu7nihR8xJpcDyL-9" value="" style="endArrow=classic;html=1;rounded=0;entryX=0;entryY=0.5;entryDx=0;entryDy=0;" edge="1" parent="1" source="28EZDfu7nihR8xJpcDyL-1" target="28EZDfu7nihR8xJpcDyL-4">
          <mxGeometry width="50" height="50" relative="1" as="geometry">
            <mxPoint x="140" y="190" as="sourcePoint" />
            <mxPoint x="190" y="140" as="targetPoint" />
          </mxGeometry>
        </mxCell>
        <mxCell id="28EZDfu7nihR8xJpcDyL-11" value="" style="endArrow=classic;html=1;rounded=0;exitX=1;exitY=0.5;exitDx=0;exitDy=0;entryX=0;entryY=0.5;entryDx=0;entryDy=0;" edge="1" parent="1" source="28EZDfu7nihR8xJpcDyL-1" target="28EZDfu7nihR8xJpcDyL-5">
          <mxGeometry width="50" height="50" relative="1" as="geometry">
            <mxPoint x="400" y="360" as="sourcePoint" />
            <mxPoint x="450" y="310" as="targetPoint" />
          </mxGeometry>
        </mxCell>
        <mxCell id="28EZDfu7nihR8xJpcDyL-12" value="" style="endArrow=classic;html=1;rounded=0;exitX=0.75;exitY=1;exitDx=0;exitDy=0;entryX=0;entryY=0.5;entryDx=0;entryDy=0;" edge="1" parent="1" source="28EZDfu7nihR8xJpcDyL-1" target="28EZDfu7nihR8xJpcDyL-7">
          <mxGeometry width="50" height="50" relative="1" as="geometry">
            <mxPoint x="400" y="360" as="sourcePoint" />
            <mxPoint x="450" y="310" as="targetPoint" />
          </mxGeometry>
        </mxCell>
        <mxCell id="28EZDfu7nihR8xJpcDyL-13" value="" style="endArrow=classic;html=1;rounded=0;exitX=1;exitY=1;exitDx=0;exitDy=0;entryX=0;entryY=0.5;entryDx=0;entryDy=0;" edge="1" parent="1" source="28EZDfu7nihR8xJpcDyL-1" target="28EZDfu7nihR8xJpcDyL-6">
          <mxGeometry width="50" height="50" relative="1" as="geometry">
            <mxPoint x="400" y="360" as="sourcePoint" />
            <mxPoint x="450" y="310" as="targetPoint" />
          </mxGeometry>
        </mxCell>
        <mxCell id="28EZDfu7nihR8xJpcDyL-14" value="" style="endArrow=classic;html=1;rounded=0;exitX=1.02;exitY=0.36;exitDx=0;exitDy=0;exitPerimeter=0;entryX=0;entryY=1;entryDx=0;entryDy=0;strokeColor=#c1bebe;" edge="1" parent="1" source="28EZDfu7nihR8xJpcDyL-7" target="28EZDfu7nihR8xJpcDyL-8">
          <mxGeometry width="50" height="50" relative="1" as="geometry">
            <mxPoint x="400" y="360" as="sourcePoint" />
            <mxPoint x="450" y="310" as="targetPoint" />
          </mxGeometry>
        </mxCell>
        <mxCell id="28EZDfu7nihR8xJpcDyL-15" value="" style="endArrow=classic;html=1;rounded=0;exitX=1;exitY=0.5;exitDx=0;exitDy=0;entryX=0;entryY=0.8;entryDx=0;entryDy=0;entryPerimeter=0;strokeColor=#c1bebe;" edge="1" parent="1" source="28EZDfu7nihR8xJpcDyL-6" target="28EZDfu7nihR8xJpcDyL-8">
          <mxGeometry width="50" height="50" relative="1" as="geometry">
            <mxPoint x="301" y="368" as="sourcePoint" />
            <mxPoint x="407" y="293" as="targetPoint" />
          </mxGeometry>
        </mxCell>
        <mxCell id="28EZDfu7nihR8xJpcDyL-16" value="" style="endArrow=classic;html=1;rounded=0;exitX=1.04;exitY=0.68;exitDx=0;exitDy=0;entryX=0;entryY=0.5;entryDx=0;entryDy=0;exitPerimeter=0;strokeColor=#c1bebe;" edge="1" parent="1" source="28EZDfu7nihR8xJpcDyL-5" target="28EZDfu7nihR8xJpcDyL-8">
          <mxGeometry width="50" height="50" relative="1" as="geometry">
            <mxPoint x="300" y="305" as="sourcePoint" />
            <mxPoint x="400" y="290" as="targetPoint" />
          </mxGeometry>
        </mxCell>
        <mxCell id="28EZDfu7nihR8xJpcDyL-17" value="" style="endArrow=classic;html=1;rounded=0;exitX=1;exitY=0.5;exitDx=0;exitDy=0;strokeColor=#ababab;" edge="1" parent="1" source="28EZDfu7nihR8xJpcDyL-4" target="28EZDfu7nihR8xJpcDyL-8">
          <mxGeometry width="50" height="50" relative="1" as="geometry">
            <mxPoint x="302" y="244" as="sourcePoint" />
            <mxPoint x="400" y="275" as="targetPoint" />
          </mxGeometry>
        </mxCell>
        <mxCell id="28EZDfu7nihR8xJpcDyL-18" value="" style="endArrow=classic;html=1;rounded=0;exitX=0.75;exitY=0;exitDx=0;exitDy=0;entryX=0;entryY=0.8;entryDx=0;entryDy=0;entryPerimeter=0;strokeColor=#c1bebe;" edge="1" parent="1" source="28EZDfu7nihR8xJpcDyL-2" target="28EZDfu7nihR8xJpcDyL-4">
          <mxGeometry width="50" height="50" relative="1" as="geometry">
            <mxPoint x="400" y="360" as="sourcePoint" />
            <mxPoint x="450" y="310" as="targetPoint" />
          </mxGeometry>
        </mxCell>
        <mxCell id="28EZDfu7nihR8xJpcDyL-20" value="" style="endArrow=classic;html=1;rounded=0;exitX=1;exitY=1;exitDx=0;exitDy=0;entryX=0;entryY=0.5;entryDx=0;entryDy=0;strokeColor=#c1bebe;" edge="1" parent="1" source="28EZDfu7nihR8xJpcDyL-3" target="28EZDfu7nihR8xJpcDyL-7">
          <mxGeometry width="50" height="50" relative="1" as="geometry">
            <mxPoint x="400" y="360" as="sourcePoint" />
            <mxPoint x="450" y="310" as="targetPoint" />
          </mxGeometry>
        </mxCell>
        <mxCell id="28EZDfu7nihR8xJpcDyL-21" value="" style="endArrow=classic;html=1;rounded=0;exitX=1;exitY=0.75;exitDx=0;exitDy=0;entryX=0;entryY=0.72;entryDx=0;entryDy=0;entryPerimeter=0;strokeColor=#c1bebe;" edge="1" parent="1" source="28EZDfu7nihR8xJpcDyL-3" target="28EZDfu7nihR8xJpcDyL-6">
          <mxGeometry width="50" height="50" relative="1" as="geometry">
            <mxPoint x="400" y="360" as="sourcePoint" />
            <mxPoint x="450" y="310" as="targetPoint" />
          </mxGeometry>
        </mxCell>
        <mxCell id="28EZDfu7nihR8xJpcDyL-22" value="" style="endArrow=classic;html=1;rounded=0;exitX=1;exitY=0.5;exitDx=0;exitDy=0;strokeColor=#c1bebe;" edge="1" parent="1" source="28EZDfu7nihR8xJpcDyL-3" target="28EZDfu7nihR8xJpcDyL-5">
          <mxGeometry width="50" height="50" relative="1" as="geometry">
            <mxPoint x="400" y="360" as="sourcePoint" />
            <mxPoint x="450" y="310" as="targetPoint" />
          </mxGeometry>
        </mxCell>
        <mxCell id="28EZDfu7nihR8xJpcDyL-23" value="" style="endArrow=classic;html=1;rounded=0;exitX=0.75;exitY=0;exitDx=0;exitDy=0;entryX=0;entryY=1;entryDx=0;entryDy=0;strokeColor=#c1bebe;" edge="1" parent="1" source="28EZDfu7nihR8xJpcDyL-3" target="28EZDfu7nihR8xJpcDyL-4">
          <mxGeometry width="50" height="50" relative="1" as="geometry">
            <mxPoint x="400" y="360" as="sourcePoint" />
            <mxPoint x="450" y="310" as="targetPoint" />
          </mxGeometry>
        </mxCell>
        <mxCell id="28EZDfu7nihR8xJpcDyL-24" value="" style="endArrow=classic;html=1;rounded=0;exitX=0.75;exitY=1;exitDx=0;exitDy=0;entryX=0;entryY=0.32;entryDx=0;entryDy=0;entryPerimeter=0;strokeColor=#c1bebe;" edge="1" parent="1" source="28EZDfu7nihR8xJpcDyL-2" target="28EZDfu7nihR8xJpcDyL-7">
          <mxGeometry width="50" height="50" relative="1" as="geometry">
            <mxPoint x="400" y="360" as="sourcePoint" />
            <mxPoint x="450" y="310" as="targetPoint" />
          </mxGeometry>
        </mxCell>
        <mxCell id="28EZDfu7nihR8xJpcDyL-25" value="" style="endArrow=classic;html=1;rounded=0;entryX=0;entryY=0.5;entryDx=0;entryDy=0;strokeColor=#c1bebe;" edge="1" parent="1" source="28EZDfu7nihR8xJpcDyL-2" target="28EZDfu7nihR8xJpcDyL-6">
          <mxGeometry width="50" height="50" relative="1" as="geometry">
            <mxPoint x="400" y="360" as="sourcePoint" />
            <mxPoint x="450" y="310" as="targetPoint" />
          </mxGeometry>
        </mxCell>
        <mxCell id="28EZDfu7nihR8xJpcDyL-26" value="" style="endArrow=classic;html=1;rounded=0;entryX=-0.02;entryY=0.76;entryDx=0;entryDy=0;entryPerimeter=0;strokeColor=#c1bebe;" edge="1" parent="1" source="28EZDfu7nihR8xJpcDyL-2" target="28EZDfu7nihR8xJpcDyL-5">
          <mxGeometry width="50" height="50" relative="1" as="geometry">
            <mxPoint x="400" y="360" as="sourcePoint" />
            <mxPoint x="450" y="310" as="targetPoint" />
          </mxGeometry>
        </mxCell>
        <mxCell id="28EZDfu7nihR8xJpcDyL-27" value="" style="endArrow=none;html=1;rounded=0;entryX=0.5;entryY=0;entryDx=0;entryDy=0;exitX=0.5;exitY=1;exitDx=0;exitDy=0;" edge="1" parent="1" source="28EZDfu7nihR8xJpcDyL-4" target="28EZDfu7nihR8xJpcDyL-4">
          <mxGeometry width="50" height="50" relative="1" as="geometry">
            <mxPoint x="400" y="360" as="sourcePoint" />
            <mxPoint x="450" y="310" as="targetPoint" />
          </mxGeometry>
        </mxCell>
        <mxCell id="28EZDfu7nihR8xJpcDyL-31" value="" style="curved=1;endArrow=classic;html=1;rounded=0;exitX=0.8;exitY=0.4;exitDx=0;exitDy=0;exitPerimeter=0;" edge="1" parent="1" source="28EZDfu7nihR8xJpcDyL-4">
          <mxGeometry width="50" height="50" relative="1" as="geometry">
            <mxPoint x="400" y="360" as="sourcePoint" />
            <mxPoint x="450" y="160" as="targetPoint" />
            <Array as="points">
              <mxPoint x="390" y="150" />
              <mxPoint x="390" y="170" />
              <mxPoint x="410" y="180" />
            </Array>
          </mxGeometry>
        </mxCell>
        <mxCell id="28EZDfu7nihR8xJpcDyL-32" value="" style="curved=1;endArrow=classic;html=1;rounded=0;" edge="1" parent="1">
          <mxGeometry width="50" height="50" relative="1" as="geometry">
            <mxPoint x="247" y="150" as="sourcePoint" />
            <mxPoint x="460" y="80" as="targetPoint" />
            <Array as="points">
              <mxPoint x="270" y="30" />
              <mxPoint x="380" y="110" />
            </Array>
          </mxGeometry>
        </mxCell>
        <mxCell id="28EZDfu7nihR8xJpcDyL-36" value="" style="shape=stencil(rVjZbhsxDPwavxKSqPM5bf8jQJzGaBoHSXr9fWdryLEo79gB+rb2cpbiNSS10ZvXh9vn7Sa417eX/bftr93d28NGP21C2D09bF92b3ja6OeN3tzvX7ZfX/Y/nu4Ov59vF8nl6fv+5/KF3weclxoWUHB/Dn84cfHfH18O4o+7p1PxKqEO8kmKrsuHJnn8fpNS1+WjSkqDvE/i2jogRXF5BEADsSC7/roDQhB1BIAD+BEQJTNAkWoASRpxUm7Sygg4fuIsoHhJbQCooxpKkOhGQLykoY1xVhySxAE2uPFIkWdGjlLGwCUnmUW6SRg1pCQ5EYDaI2UvniVfscmXc/fbeUCwgOJ6KM8CtEoak68k8QyA1wZQRRkAyTwCqpMUSIVWiaMNNUrIBJAlGA2BVpyqVGc1JKIBbm1jatQsmRi9kMDIMrVK5clnCqg5mt5FJY813RB7VnFgodGtTWnF1VkD4kA0wCcmlxYAiUNFiRYL8ERD8xKjtaGRAmq1M+mp0aREAajJHskRL7UmqhYQ2ZEQB+PWJIHUNADNGJ3FE4B3aJnG6kJ7FlTUkVzhB0fyG4DsLKCRogbAGw2Nlhy+l4sFsI4CgA8TgAWiTCV3DM0awKsFeGZDtjyz5CMH2OGkSGRunQH5EsAeKfF0nY2OtCueceuFop4DhxplyTenhn40+WJv3demd+xFeG0BYdggGs7VaO7zx7U0UDqjX0s0lY4nZ6is0da+kGW0gMrcNNHxiR/+FwI9wk+HYn2u2XF6oSYSu3ossVM/kSOhk0a1kWAZjl4dJz4ODKCiBlD6nLY2b+jUhSqxAbNrmVsvKWvMTJaagniSfpjKzCaHEYhNNNhJ7KCIiZxoCGoDh7nPk9TAmmQ0IDJsjMMyaea+UuigqN5Ox5i/2T4KL7WRXgtsINmqxVYQVilW1dHb1QxLB410Fh2NzoHGIXk7ZKVMjU7Fch8+wUggq61pLH+NsCtMzGOJwg3MhmW9HG3AAqukCWEJN4SPFTmROMwlis2IEVl2/cRHQKb3AqhpQzMh9l68dhniRi/5RlsK6sGPNvhIjfbFLuHe9Quh84C+Gr5f/zDOwFLljbhScTPLRDpSOlsIMJb439nRijOqs9xyJMw18THfQt/n1sTHocpLI5FFrgUjrqTfOEukjqbydCXm6LUHyKAacZbGfj4MI5OP3kheEsfD++Xn/e7x8XB3evreXpbir8NFq37+Cw==);lineShape=1;strokeColor=default;" vertex="1" parent="1">
          <mxGeometry x="513.3198334839558" y="37.31975189910963" width="44.188136150769424" height="24.431023001133667" as="geometry" />
        </mxCell>
        <mxCell id="28EZDfu7nihR8xJpcDyL-37" value="" style="shape=stencil(lVjbUhsxDP2avGpsy9dnSv+DGULJlBIm0NvfV56tQyTvnsDbstFB1u3oeHd88/p497LfBff6djp+3/8+3L897vjLLoTD8+P+dHiTpx3f7vjm4Xjafzsdfz7fL3+/3HXL/vTj+Kv/hz8LrlUKsaOC+7u8KeSXF18X+6fD86W9p1aUvfeU0jagMlXWgEjNbwOKnwCNUtsGpEoxK0CII6hVQKzknAZkCrwN4EKsg5YsZeChJ9F4qMRuGyAhxqABjUIBgEhRH4kTJQRgW7joKFcI+P/zGZApBQhIXgFSgFkSQGwaUGHzdUBSgBxHojcBug7FUcgQwNpDySOqTYD2UAMVlFZpNZ2lWqmCAZJeqgbQqIBKR2/rIIAGgpacRD1xzY0JWQdIiBMApbVEKrrSwiMO9JJknQ0gUEBHmka0Sf+CLAkg64lrCU6cALwBZFi4kqgZQIW8JFnymoubkABgvjKRsQAqaL7cxkBeABoIOhc7QAJIIIacLC9J0Blwq0yw0+zdpJTIg0ycbm8pXAUj2gGmDpJokNaVIwmRgfZeCdqPdvxoWt1YYpuFSxbgQFp7a1QL8GjiJCeTh4IAc3t7yEsrA8TD50dHNA7i+SgJZNhLKzRTYC91IjNprSPRm1RpYhD2RkdyVgl4d4WNP42QDcHTVDdwKBbx0CwALq08JNsFAGqBOnVTw6vdDTFyyRsoaGJTOREH6ETkdS/JnmbAGs52twiBCs4jJdLnuaI0xN4IdbxznRW5ndZAp072Isau2Ovzi9pD8tDZ5SZyEm1DZ2eZ8aryVnIzFgDTvUSEFpIksvd0vCFAuvPzHcDBAoc07kWXFx/QQRzHAc6ACq9WMY7dfQYU2NO9pMaD7FoEkCnXQfdbAdoifoR4HkuqoKvrdAVIMEddKxtypICq7Ib7Ye9GROv2YUiJd3sPpqar0mDsEVWLtnHF2oP8yMKL9vyM7AsVZ+yRgpR1Z6S/x/mRi60ZGyh0+iLSQ8Bju22sgYm34rjNbDkoegYSdNDXkLbHkuLTH1Su2svD+9ebh8PT0/Lx5/J3+7VHXi1fivj2Hw==);lineShape=1;strokeColor=default;" vertex="1" parent="1">
          <mxGeometry x="557.0770107393769" y="9.172183444357529" width="13.750800806676125" height="19.818339369389264" as="geometry" />
        </mxCell>
        <mxCell id="28EZDfu7nihR8xJpcDyL-38" value="" style="shape=stencil(nVbbchoxDP2afdVYki/yM03/IzOBsFMKGUKa5O8jsrNQi0Xb7Zvx6iAd+ejYHa9et48v647C6+l4+LV+759O245/dET9frs+9idddfzQ8WpzOK6fj4e3/dPw++XxHHle/T78Of/Dx4CrBUTOKAqfww4GkPS983MA7Pp9C0ilAXAAqg5ALCBmYLoPwBAghAYhAjm4NXFLohKQQ0IqSJuhJkh4H1AEQm4BuuNkyAzcsq7V5RDL2MXrQVz6MIlghFhtCnJIYIHMLUAb52QogIZ0HFNOJwA0nHFs22R8sJSljF2b7hFkauMZxCPMUIyQAhTn1ChDaivSg0+OViNCbUsqSiHeByQBDEsAhSHykpJEpwtvSDunoNI30zPTVpVZMRn8c9NZESM8Xxg6vhKXKE8I2EjVl3bWJhoH8IcnEeSF85kho03hWYDOTzVt8k1GrRqNA/g2RjcVqU864ltqxEvj0Wp75mogGz9z9xBgO50zlxuP3bvUD8SeP+aWboLijAFG66fs64HsLYV+9QyhpRtGw582rziyu8Z7gk4Xev8WnzNUWVCPOiHd8HVcQpJ1Cb+fKva45LxqthesuNPyP2+pOYAurk+3Tb/bDS+/v7/bp55uDc9EfvgC);lineShape=1;strokeColor=default;" vertex="1" parent="1">
          <mxGeometry x="574.1559233635826" y="15.197531847326218" width="1.6881532728348247" height="7.39563770440509" as="geometry" />
        </mxCell>
        <mxCell id="28EZDfu7nihR8xJpcDyL-39" value="" style="shape=stencil(lVnJchpBDP0arqpe1d1nx/kPVxnHVBzjwmT7+2hC9UBLMw+4Yaw3o/VpYRMfPl+fPrab4D6Ph/337e/d8/F1E79sQti9v24Pu6N82sTHTXx42R+23w77n+/Pp78/nibJ6dOP/a/pCX9OOO+o1gkV3N/TN45C+v/F15P82+79Qj54akHJx7ouHz0Fr+UbkG9UWMvzunwq5IrWHzw/R6r6+SGsy7OjpO31QB9mqk3Lu3X5Einq57sM5MU/ScuD51fu7jjLJ/D8Fvq/u7zvDluWL+RH/yfKEcg3iuPzK3mQb97N9s0KeWxBoxBHQKYEUkJMqKMJvlHyAJB7ynRAiMQgicSpfky6UIiB1bVSG7001VEBgKzTIiaoUo1URi/F2v22DPDEI1Gk0FN9GeCIR6OlVitSyelSlmKFtdOojTZkcSsqBnnDSEbse/mtAfzoVk5UQGoIIIxe4tJDuQZQ9VA8ZUCodebPGZAhAwsgjUaL3wJWSVGeJAviPAHksUSFdWDyCWC0oUoocaR5BDRRCdGk0PAYuMbkQbaK19OYS61SBpGWRHBjpIV4UOAyUywaUAEgVe0lATRAAslRcfcAYqCSDQBEOuQ738C9mc3U6nC/SuSDcRKaR3Q1TA0GxNmTU3lRu0mL8k6PLw2TmOlWkncVOMjUmjSXBmjYpmmGHBk0RbZECSWdyYg5IisBLl7LO9SoOkFfyEdkr9O9VgDIodN04LWHGL0hkFMuYspoJLGAAqliQaXaw36r0Q2yl/Vq6+39xqhJGd+VFQ1mqc064UYUtAXyRV3TVo1MkUAfW5UF+tNWPcPhyLJKhltL6B37IqkZbTmGFVPX8DbanaoS+PNeeekDXAzgSqcxdY8A0suyfQOoGemWQdkQqYEyzrkT4QWgIqeyqbIId2VufUa5GHPQyCyAMObRlUFKAGp7vDKqTYCx0q4Mg2z2tSvjpgDS6KUrA+0EsCMzdiuboZyxW+voJRn7A1CpuJ5qF4sF2moFoLbgHCCBCUBlqyxHCRgtADXQJg9zqYTexOYFjzuLLwOybmtStB6UaKl98pi32gqHQRn72xjpM4+sLamq4qbzE1q/DC/5Ct1ai27N0qxR8klBqopj2Amne41KJThv2ntQhp3B3psyXIHtPSvDYcfeyzKeH809LsNbir33Cb0Afew9UeTB8+29MsON395DRX90/yI26sBBLWlxRNdFk2/CHUrv4Xi2zn3nngueClpgdTHiVmPEA060Xtjnu2NDnU+b6vt2fZsjHb5d6TA5qLtJAgdz0jt7I0ZzxPUbvXw4H/hfdm9vp98HLv+vfxCQr04/JsTHfw==);lineShape=1;strokeColor=default;" vertex="1" parent="1">
          <mxGeometry x="578.298905082115" y="4.092075966528569" width="15.628583072953234" height="31.855081091390048" as="geometry" />
        </mxCell>
        <mxCell id="28EZDfu7nihR8xJpcDyL-40" value="" style="shape=stencil(lVfLctswDPwaXTEEQZDEOU3/IzNxak1dO+O4bfL3harKNhEXtG4yhTW4wOKhgR7etk+vmyGGt9Px8H3ze3w+bQf6MsQ47reb43jSp4EeB3p4ORw3346Hn/vn+ffr02Q5Pf04/Jr+4X3GSQHiCRXDx3ySoKS/B19n+924v7ZniLWxRz0RB5AgSwOIDIFdALcASpCKAyDIpaWgPsn1kFoAE5BPOscGkBGSB8hQcgsQiB6HCkQNoGTA+H8AhgAhNAilJdlxoZluM6e3ZOdOVaAaDxWCc6eir1vWIoBOmLKGvVhAdTyksmjtrL5LHG4iSBMl1kV25Idl0c4V64oOa0BDugA7eUDAYtPg1UOwlCf5ejGyWpUI1UkCEhST5nPMbgJitgUqAdiJUEKQ9koqLXE8cAUMawCFINGaK9UMhGtIawuw1aNh9dqYQDEe/LxNMjMcfGFc8nqn8moEMlL1pZ0rsJGGXzwcbbPv1meGjNaF1wK0foQswGsyGADFsg4O6/jpRn6fXNuI19qjHW+d0UAQW1l0Zk+yyu4MNwZuE9CZntmOts54Zkht/Dvzn20pdxYMXXDabtTZYOIi+fs2pAShpavriVMAqsU2+hHYm/tpKfHz7V1xqnfTSoNb8qTqQWP/b+G7zVbVY//fq3dm2xZ9+6yblKy4j9aGrOFbedH6ffGUT+3Hz5fODWmr15fD6n28a68Pl+X/Zdzt5m+H6/f2Y0GP5g8NevwD);lineShape=1;strokeColor=default;" vertex="1" parent="1">
          <mxGeometry x="571.1751218410532" y="47.224569049751494" width="1.6497563178936616" height="16.353190509515684" as="geometry" />
        </mxCell>
        <mxCell id="28EZDfu7nihR8xJpcDyL-41" value="" style="shape=stencil(rVZdcyIhEPw1+9oFDDDwnMv9D6tizq0YTRkvH//+2NvTCGgbq+5txW6YmZ5pGOTudbV4WQ7OvO5326fl+/iwXw3yY3Bu3KyWu3Ffvga5H+Tucbtb/tptf28e5t8viwk5fT1v36YdPmaedfB+Yjnz+W8Fwfxd+Dnj1+PmBC8B1jT4GC/jk7Z4A0P2zxZOKrxDdATvkV0dj4FjByg01wdYZE8IGSFUBImIcplgzTHFAyM4qKVHNEWKCYERInIdU3IQJQSBxoqQHRLJOmWkVBMSEsk6hUOKR0KmSafSOM0JAZIuEzTB1VKnCCFSa0CspVaBJyGph9RVCgmGhdQRfGkmHpLWSruIQISbkq7nwcohq2+W1dMB6nUr88P27xrDwl7pPK1FgCWG0be2VUQ+n83wCLewM/PpFcLns7GAKBBSpN5kio6GVamzsanOLCTbDkM5k4XUG/FJHf4To78cimkI0a6/fQqBaZc7vMKQrItTN6bkqNl72HrarliMa/Gqh1Y5izfQWrWo9Lbqb5JAbbvv7JLRLfFIuRZuybeseLJ/V88r7tXpVeQl23ftUNQlQ3PrY+c6vnx8vawex/V6fpid/t++xMrS/IqT+z8=);lineShape=1;strokeColor=default;" vertex="1" parent="1">
          <mxGeometry x="597.2112613104878" y="45.18090925437207" width="6.3426850509411" height="1.6381814912558639" as="geometry" />
        </mxCell>
        <mxCell id="28EZDfu7nihR8xJpcDyL-42" value="" style="shape=stencil(rVbLbhsxDPyavRKSqAd1TtP/CBCnXtS1A8dpm78P3YW2lhhPY6C3fQwpDjkkNfHdy/bheTMF93I6Hr5vfs2Pp+3EX6YQ5v12c5xP+jTx/cR3T4fj5tvx8Lp/XN6fH87I89OPw8+zh9+LXSEuZ6Pg3pYPTCX++fB1ge/m/QXcVxLu8JESwLMj7wf/NQF8pTjG4+Q6PgrFPp5Avl7Hp0Lnfxd4Twz859TCbXhHGcRfPdU64J0DeE1fGuLPAeAzSY/3jgI6QCgPCdIQQcVqpdJniHNz8bEk3EqxWaRAxcMjYuwMslBCBkK+P0FC0+21NPmedQ0kiDWPrPVMAay10H4wqJC0SCvsapCg9CRTlJ50Jgallki177XCFFFIsfXWWjiB3WYNoorpppBCpgQKZ0l7pgwaWoy+I24gPypD+wf4t8JQBzcpr5DPWNp9hnyhjPtzaB72lEANPujPqFMf9+fAOTMxSpIpQlEh4SxJT0J0saCQzJysBYdkBvFFHv6ThV0OmjkG28FunypQrXa9KW2UJ7s/NdUVnGAXtBo4wMHeAHSORaBwc8PQAwLAJ0p9GbT2kEH7u+IdVeA/UOyLpkMK7rcW7aptjR8MSTeWLOtMAyqy2zPBEWm7OVIE+THxMLcMf45vWEfg5/LpE9zNtl7kwLwzckhwRd14n/0nXB/+Xp2f5t1uuXlf/h+v2vppuabz/Ts=);lineShape=1;strokeColor=default;" vertex="1" parent="1">
          <mxGeometry x="596.1505539566631" y="52.07514441376918" width="11.533483017493381" height="1.8497111724616389" as="geometry" />
        </mxCell>
        <mxCell id="28EZDfu7nihR8xJpcDyL-43" value="" style="shape=stencil(7VrLchs3EPwaXlHAAIPH2bH/Q1WWI1YUySXLif33HpjGZtEge8sVH32jxGnuYB49D+wpvvn0cPfx/iT+0+vL81/3/57fvz6c4h8nkfPTw/3L+dU+neLbU3zz4fnl/s+X589P7y9/f7zrkv3T38//9F/4csEll3wHif96+UdwMX//x7uL+OP5aRKPs3h1uTDx/tX+19UVKh/yJC/qlKoT5t+POp54Q963ST6Jq1QfX2b56mKl+szmUXGZ6g/20ewS1V9m/bN3QvWpOstvJ7oqr0PbTb647G/LF+fTJF+8a0S+uQDy0UW9LR+CC/MBitL4tPjyYQZUVxMB2NezC2pwiZjUbKqKAHZmSxE4tAEicXKUJck8VSlm1zIe+ocZrgMqxl03a6OAHwpsgEADtQPiHEnNCbGSAcCsudLUMUCtCAgktmMbqbsL7hJJ8niMbgMwKxmgBgQEEt4pXMk3z1QSp7IASHinONJlrxJjDKOw5QyJPSG5ogioxNNJMfjMccKsZDUgIKBwQJ4TqAcfc1xzHhIoDjNc50nBQlLyKKTXAYqhYTkdiEraXJpLT42uEMdlGZV4AxgtkFjKOhJyAzSnRKUe/fMZWnBKVCobz22ARFnDWKjMrNGUqtSZdAEUBihOwvIEVrGsoOlyBnLoJqOi7azEeMkAEK2Vs0Z/whx8ZobMAPY1FEVOM3ZoYA1zJcvpamQMjUkenrnlhwK8JJTILJjBSpYhrHWoadDWBlDquCpIM0ZtLLyrIHsb2zYGiMitBkjsDBFZwwDMcXboPNc4qxiMNaqOyNkDCPOZH3RtobmnoROwMwTm6YpkbABKAkuv0YsYM6sBGgJYQTGAwBP0MLw9AqiVNq7eAJnWBwN4QQBrTszTXhHASpbFUlhUEhYaEZmvH5qZVQap7M3KAbp4moa3jAzehwYHoB+iy6Rk2aGhb+3hTfpWM2tcUpRNKOY4qKLHKSpLirKpu9ebgmfw7NAFe+9OZCy8bWxOCGg84xRCY5u7fhmgzWY9mNWtKELvfTCst4BVVPlIY4Udx/swAv46IC7zg1Iis2YHO4FAaaYVLIq90WUqWae9TLtCgi94G7Og/1E6vdojGnS6hT7CABCuvdMlKWeADG1loHsiMxN2upmrlEabugEqp406Fj0boHEWSNgw7Sx9HeGR+7qlSYBbFxnaohMJjuLHoLc7NVvn5IWZzNJsMMtpNFS7/j4ygGA/Y0nFVnzZL4BAy6IlPcwo5stMos/6VNiCWkKwRlTDqGkbQPjeIeOcVeogt1t7B2jXC8/R5BfeELqp/EULI7b/+b0wGoDfC6P/uzBSvDaxOqrsIkGxLJbIbx6W1b0VXmFXCfFKTrO+MgXsja0AVL5xTQvNsL1DTFgV+0xBzCpt3PbsmI9VRVmGfANUQmShDSPuAJkQWbBoXc4QSbSGsHQnQps4s+qyvG+sYuGer/A93zYhbfKJem1ZRxW+5dvau106s9beL7mWaK75hV/4nZfHpuSgTfd423IwB3gs5wd3gh63pgd3jh4bvYM7TY/McnBnutjn4E52sT8vs0s3zy+UPS57Aq1nSwPpR3reEFcUZ/u2Zdfrx97nRuQnAXFPE6UlFGf3hngBcCTe6k8oE7FP5keNWI24IRNe23I3JdwO8CD46XcWDsTtw3+vR3w4Pz5e3q7Yf4+vU9i/Lq9ixLffAA==);lineShape=1;strokeColor=default;" vertex="1" parent="1">
          <mxGeometry x="619.3920539579726" y="30.396483187604872" width="27.61621094103816" height="44.517746666544554" as="geometry" />
        </mxCell>
        <mxCell id="28EZDfu7nihR8xJpcDyL-44" value="" style="shape=stencil(lVjZctswDPwav3JA8MRzmv5HZuLUnrp2xnGvvy9UDxUTlDbOm6NgReLYBaBNeHjbPb1uN0xvl/Pp+/b3/vmy24QvG+b9cbc97y/6axMeN+Hh5XTefjuffh6fr3+/Pk2W068fp1/TG/5ccZIc5QnF9Pf6pLpa/z/4erU/7I839jU47419Kuv2xbskxj7Sun0mx/Y+AdhHccLWnoE9OQn2PmndPgQXrX2O6/acWzhu4hnW7b3ev3b24gj469nae+8icFj/XXoHWFMCPNATYh9RLjAFPrjUp0yDVtEJyeXeB82KB0nwmtPUA5ITcCUml/ssJK1bECVml3qnp0IEeePQyngGFFczBJTYAUqCTitAekDVTAOqaemZ0qgFnhD0AuYEJTMgf/ROigWIAICSxaiFwCtpEC09BeYhi6tiAQlkWgUp9ycIuQCqtXBzcQb45tUyQKu/d1q0+ECUSnTUF5/EpmprJxhRlewyArBVJalNx9eiZNqCaB5AlDQPzBaAGolmmqMFCCjvnFqabgAJtRJlHFmnUWlkjZJJnBIIFZ9vLs6ABCk6AUziQpPn1SuZsLIjFNZg5V7Lu6AoaVgNpwVfSRM3ABgo31QayQICAEzFJ9YHQtXKAx98k7Y1AmWyYUVtfZGiUDVGEciO0KDEVlu1+DKQyuKttmp5C4jSJJV9HpRABfGhtCY7zxpEcDr5PEI7BAd7KTQwaQ/yxQKQ9ukwQgMANt44iGWBM64vLYy3rP5gYjJtUV8BGDHNZIZCmn3QUhRgWK3TBvRBZaU/IVc8xHl7wrt8LgKkjRbzSJZaPS7XdyPkPPMJDGq0fT2G1sOW0+yof7+OQxE4TMMcXZsQrthTTwV9UkGd6sjad1wfodJzo8mcYVdgOKNxF7Y2LdHYX4egVkx7jLVHvB/3JGq8vnMPI9hDxj2PXALhGfdIakvKnXuqxgcPVKZFUWtBd+7Z1AKwzK5hjye48Gg3Mk2Z2oNl+2LpTlB1tRcFU85tQFy2V03u7Rm2/Kl1eWMvaIWkgY8BjpsLAA0xysBwo9wk9U6PM9ylxogq4UGFjhnTFyD7oSIqFJTPfjn62F5/vH+metkfDtevXLf/t5+19NH1k1h4/Ac=);lineShape=1;strokeColor=default;" vertex="1" parent="1">
          <mxGeometry x="647.1399729948791" y="13.200773442368472" width="15.631744064929535" height="17.75304141369554" as="geometry" />
        </mxCell>
        <mxCell id="28EZDfu7nihR8xJpcDyL-45" value="" style="shape=stencil(lVbZUuNADPwav3aNRnM+A/sfVBE2LkJChbDH36+8LodoSGTmbWx3W2dLM/Dd+/bxbTN49346Hl42v8en03bg+8H7cb/dHMeTnAZ+GPju+XDc/DwePvZP8/Pb44ScTq+HX9Mf/sy8mhDyxPLu7/wmo5b/L37M+N24v8RHZI33hJQNghgIisAeNRqEDK6KEBjT401CAWsLkeGSQajwpAjJI9NtAjkH5xSjEtgyIUEUTQggI4hSURoLCcndJuSyxHgmFETDQmKwrpzkIRsWQobXhbjIw1UGE0JtTQSDQBmJNSGbzZFBTdARxQiaQE3Mdi+5NuTqEAx8QPIKXzKy5Q8vKT8TIoLRej4hao8Km70aCLVxyZspigXkegiZEbjHpZLA1BO0FLVRz5RWNhWdtYWVuolWStN4K0NGcqKHzErnSRK5aVVpbWNkJJFvMwFs8USP1KlPGSnUmrBGgOinNmmyhww5UCOgcwNft/DFI3tO9g7ifnzW/q+tBiRd5ZXd8yXeleXGiPr/K9szwOuCraxn+b/G2+s/oGhhJjNaUZn2XtwznKe45OLsPZKBF++bbNrFZV6ad8HLlDDwISwC/MRb+opxWdnfwye5G5UOf3Jq/aFlp19Pf0AuHfkUbVDsqJeMQNL5tNuh+7K5ipfD5832edzt5ovx5ff2Jiyv5ls0P/wD);lineShape=1;strokeColor=default;" vertex="1" parent="1">
          <mxGeometry x="666.090692520108" y="19.16111903424337" width="1.8186149597840995" height="10.506926745652436" as="geometry" />
        </mxCell>
        <mxCell id="28EZDfu7nihR8xJpcDyL-46" value="" style="shape=stencil(lVjZchoxEPyafZ2SNDqfHec/XGUcqBBwYXL9fUahtKxG0Ivf8Lp7d46eQ5r46WP78r6ZnPk4n47fN793r+ftxF8m53aH7ea0O8uviZ8nfno7njbfTsefh9fL3+8vFVl//Tj+qm/4c+F5Q9FWljN/L08MGf//wdcLfr87LPDBUTEKb819fGQyQb8/3scnR65oPHh/tlT/1+EDA3whnzu8fBDgS6DcxyeQTwCfKfX+FsoF4AuF3l/rKQRIyNwTCjmQMSEoi5x8AblQmgGNwJJjTFAx5UDsMKH/gsiQQZarSb3T3lNEaSsUfU+QxOAvpJ4gSo8reVCEuJa40is1GvIgcdbM0p8ZntjiT/SJiLm59aBNicnjMCmvUyYL6rnGNXWELB0EF5BSX05rFWr7KBVLnEELmJUwEzwVEKU06LskYuBDkh7UR0m8ysAHUULq81AVj9qw1W27ZgZIwzvdNq65vx0lXaILOd42aWh8YhHAM/FgkAMGWW2QxJRBTOeOskiaA/YMxSbCQkI1unGLihLAWyoKz5RQxsgo0UnhAHyk6DTeo35EHDQelY21urkIATkgg8wF7TFqLjbo3UJCymB42khJmRQogG50gyBP0BdCi/lCRUgV1emoZVpAGuyoi4IHD3HU+ALyFtugXOKx7gZ7kI7cUDcZ2j/WTWpPHqzLCEVh9AJZBwTSRBvCC9GhDZjbarNQtUWtWi8WUjZIo3mwx7WM38PzZ/AyCbwdCKix5xbvBQFFKI2SllMGmshGz4Kcoeby0BzrVoGCJITe6ZW9JXNbCR7cjISQ+0VnZfeqhL49rmx31aQ+SisL5Oj0yooqBKsIeAkWgusJK2u2EFT1rCzy2WvxrRwVKqFPXD2M4Ci5Pqxy3EGLwpgH6ZkwSqyXNYtbqhBUD5M5ZFAB2VZfcz3AINVTdj9EYltAHzzFy1QB1TPeEszbye2eNNxCRNgwOA+1QwHh59Xvikfx4aFph3buuY2fT9RXvAMJZtbLsofrPg9DR14A4j/icXsc7XFkUTwHf207Ij0YT0P5U/mSTgf0M+rBwJn82Vuvdbz8uF6xve32+8sN3fL/+kpOHl2u8/j5Hw==);lineShape=1;strokeColor=default;" vertex="1" parent="1">
          <mxGeometry x="665.2522530709825" y="12.130931688496958" width="11.691709424961346" height="25.85661939713225" as="geometry" />
        </mxCell>
        <mxCell id="28EZDfu7nihR8xJpcDyL-47" value="" style="shape=stencil(lVZJchsxDHzNXFEkwAU8O84/XGU5UkWRXLKy/T6YTDERMVZbus2QaGJrLJM8vG2fXjcTh7fz6fh183P3fN5O8mli3h22m9PubF+TPE7y8HI8bb6cjt8Pz8v/69MsOX99O/6YX/i14FKgVGYUh9/LCVMKfw8+L/L73eFCXhrFOsjHQC1fBySm0kYFQrldB2QmjQPAbIxAQ8mkaQDkSqrXAWrv8QCokSoAtEBZB4AyBRClGEK/74hWqVagwuI6qmhKCQEK5dHr+QlgU2OS4gEFALRSqB7QIgBEYnHcCDBONVNaOaEFAAIJe0BmQI5CKfq4NkC/knoULwCSAECoOB9qP7nG1zBWhOUSlVBRYvUAQVGyEnIaMjUQpWpcEw8oqITSKg8GACZp6y5eABTxO1Fl7zSDxFmaYvIAxKWZas6k2mvqGqC4CrLMIIARYU0+VKPSry/onQA1VHteLwtIAECIVxpQPdT6TsU1oMF66dqkguhtUc8eEAH5rERL9WHNgEtWoq5/W2YQ+e4GZOsRqwmRgA+pUnIziImBBrH2PXLJdDIIa7Trka3zrEdOUx0V2KBGIyv2crxxE1iNRLxphL4l/HueFLQw9jSNvWm+nzDfgwMpmoVUkxNPYBJGoVCcfASNItpy4M1Bc9O8dRXwgXz1UxDbI7YPyR3+Svb0x+EU7RvdbdmyrVN1up0M9261H8vbx/8V+mW33y8b+OW9X7ntaFnX5fEP);lineShape=1;strokeColor=default;" vertex="1" parent="1">
          <mxGeometry x="663.3491089767813" y="51.3538510848108" width="3.2171818801189147" height="26.893688123887387" as="geometry" />
        </mxCell>
        <mxCell id="28EZDfu7nihR8xJpcDyL-48" value="" style="shape=stencil(lVfZctswDPwavWJIgOdzmv5HZuLUmrp2xnF6/H2h0cg1QXldvck0VsK5Cw7y9LF/ed8N7D4u59P33a/x9bIf5MvAPB73u/N40adBngd5ejudd9/Op8/j6/z7/WWynJ5+nH5Ob/g947xz5NwEY/dnPgpU5oOvM+AwHm8AlUlSY+8VkO4DSqAkDYCFGAByotICRH0EgFQ6QCLvASBSDW3MiUIGgERSGkDM5JFLmTg2AD2pAgG1NoBcKKMYCnELqIEqKJzGENtCVz1BLnmSNq316uQqIAqJbwGVPPhC0EYoFlD4PkDYBn3Tv6sI9l3UlVK4D/BMru2NqoUAUWv3V5sllFa3jNdNGVAEjtjYB5IIcrQ05tWeKYNWrXaeq9YdxOtL9wEHAVwsAZQKGUO0QmULIDryYYtLsVgCeBC0Mob9As6qjqfrxhOVTQkgGADuiyQUTGPgxouJeFtnJ8rdeCbUesqrLeDheEarPg8YQMWmdj4hjklUk80SIjHfxYxZspPPBzS83V54iy44Ozv5ysp34vXt+yclgvbJCBsvDLteYSsiqpyuIPoywhn1i6Ahgo1Xu9YBKc+WToODc+m7fUfC4uI9xSmtCioBogzpdpNyC2C4XEim3NZMp4KRzjoKbVLDUvV1ew2h9UjgAhbCsttcI1jYb92+UjA7JExpjLZomjJEjV0JVCBAzylZV2uPWEs3VEPuDvZ0YZsfLQjIv8qds/aIs5RCjL2yGJgBpUAzxCpmaOfvBFkog37bfKn4D4A+/LvDvI2Hw3wFuv3f3nn0aL4vyfNf);lineShape=1;strokeColor=default;" vertex="1" parent="1">
          <mxGeometry x="696.0536839860035" y="19.173182715843836" width="2.771496993828123" height="18.53263769686214" as="geometry" />
        </mxCell>
        <mxCell id="28EZDfu7nihR8xJpcDyL-49" value="" style="shape=stencil(rVfbbtswDP0avxISqetz1/1HgaZLsKwp0uz296NnKI3E+swF9uY4hxbJw0NSk9y97h9edhO718v59HX38/B42U/yaWI+PO9358NFnya5n+Tu6XTefTmfvj8/Lr9fHmbk/PTt9GP+wq/FLpBLsxG738uLSIn/vvi8wI+H5xu49yM+EQvAJyoyfD+GdTwzudLhAyUH8Jk8d3ihlNfxwqP/TMUDfKIaB7yL6/jALbyG91QKwBcKfsDXuo6PgYIb/GHgf3IURv8D4CtFKjzGC/jKjqob/I+Ar6zf7/OvH0jr+OIo5wEfAL7GMT+OHPCnan3mIV5U/7WQr328jhgdUBs/1wOUYZBRNSh9BWkNJiQxdw3xqjGmDIpCj0i9yFKhiAwK1T6IwiRAZjVT7k+o3MJa40H6vOqZBURdw1h4GhUMWij0TGutCJCmesw9EUWdRFR7kr7XZWnqft/AjWKIpbW/jQbBtzRsdEn7dUTEmaC9NlTQkGxaAxZQGEtJ9YO+bwrDk/9Q5emEQA3DlLbPlLA+B/EIbnnv6DNkEqzPoQUkaVnY2GSyFhLKkmljpcI5aPukJhq6ZBrxTR7+k4UdDpoItF3Y6aMGHxtvmjlEtp2fmic04OyAVgOkULsBzCUPmLArhsbgANd2h5nLBWjaLklz0GBLsluYGngQg13z5r4AxoPdI9/Ka+Oiqp0KbRp2E9ZWmAFxZtPWA9D8EROBvkE5an3uRtJoXOlo6EkrQgxYdm0OXHtMhKunGyeJaiMDrdktJjYPt+GDTh6IH/yRQAwINvEqg0hnJp9aUhnwa/jSTTIDvkw9pDa5tpUbvtj9E64Pb3fIp8PxuFxBb/8f75z6armvyv0f);lineShape=1;strokeColor=default;" vertex="1" parent="1">
          <mxGeometry x="686.166668669028" y="19.054312981166163" width="20.53806560848443" height="1.8913740376676742" as="geometry" />
        </mxCell>
        <mxCell id="28EZDfu7nihR8xJpcDyL-50" value="" style="shape=stencil(lVfLbhsxDPyavRKSqAd1TtP/CBCnNurGgeP08ffldiNH4nqnyG0tc0SK5FCjie9e9w8vuym418v59H336/B42U/8ZQrh8LzfnQ8X/Zr4fuK7p9N59+18ent+XH6/PMyW89eP0895h98LjqnUGRTcn2XBUSr/Fr4u5sfDc2deSeJgnsn7bXOficftPZNP2wCN5919AwRPHgSkEcUwAoSCbAM4kssDgNUnA0Al9iNAqAJATBRHD7rCIKS0CilxW7kJyEycxjJ4kroNKJ6KGwGVSgQAoTQWuqTWKTcBEkhGD+JgHSRTGA8teiqQVqnkxkPrFihL1VM0AMHNXSmMvVTVAwipXpPYATIKqVId+VBLY8gmYDxDFfKgcArIwQIEME4B70e8ApRS6NDKr2QBggDFdqt3jpwDiEwxWhc1AECi7Cwgg8FUY6NwB/AopEix2rzCNMXWzV2pMyDE7GEcfZoGNGfmMzgLCKj7EqWRcrpSkIfV+FZARGnVUjsLYFQ4baYVIKIsyYpBiQRTLlWbJVg4bTXTfAVSruvmDoHG8Tw3TCGEMo5pzTlYaml3WgcoqBClDa6ecmhY5tXsUwCqnNaprEJCoyyRX50hoLR+FiCpqZf+hgAhzbfcOF11iwLqULT7DCBAQszX7BhSKbAOWayC08seDfzsGoWvWoAbp27LE09hBKREAWQpBjs2YoECiLNt7+iogrSys73EV9F1WyaqTh3roFsgUqsOZqMrVbkCD7OwHQFeswQ4nRsfr50BT+CsMFaJCCaxii+jo6Ew0QlmzQPoodXA840XW+ZGAEDR41rePt4kaLA4SzHXJNCGefXGHMlODbUYcw9210SIMUdlCpaLWBiFpoK6YIA5Wx46OA4/+Rb8r7l+fDw7nw7H4/Jq7f+3z1RdWp64fP8X);lineShape=1;strokeColor=default;" vertex="1" parent="1">
          <mxGeometry x="713.4340465664798" y="40.43702035304682" width="25.927498725275882" height="31.412986595850043" as="geometry" />
        </mxCell>
        <mxCell id="28EZDfu7nihR8xJpcDyL-51" value="" style="shape=stencil(lVfZctswDPwavWIIgudzmv5HZuLUnrpxxnF6/H3BqpJNSFpP3mR6l8SxAMhBHt73T2+7wbv3y/n0fffr8HzZD/Jl8P7wut+dDxf9GuRxkIeX03n37Xz6eH0ef789NWT7+nH62Xb4PfJqocKN5d2fcSWQyL+FryP+eHi9xQul2uHztLCKL4VS6fDMlAIgeHKGkCmkbUIOlF1HUBd82SakSLV3QbBJsRIbQqHgAEGIQx9UoRy3CUFdzD2hkIATdD/xHSF66LRUiv0JMRGDsEom6X1Ijhj4IIFcf0IKVJBJjmKf6VQp+W2CT1R7gub+v3rXCUy1j1KuUK0qtRo7QtHEgXJgT9ITaiYHTOKFSVqBkOCmIN4QCvChLizS1IO8qfSqxVfgclzDozRb4Sk+A2lrgNjiGdjjbPlrfAQE1FmZasZQx1vi0539s0lwhPvzFO0ZHyiCKtB4mvjLJNqNfEVv8SkjPSzxqARUb8Xaz1jQ1VlCBgLiZYQiJdC6WlEmm7I7BDYn5GlsbZnkTRJ0zgGn64qoBVhU7ABRfAEjau7l89B0qls0QOxIaweALHsKfuEAUB2Ti4sAAXsceV5kAKh09u42xcCez+IX06842HXbraZvEzlRQW1OU9ZblD0VUPesbdPM1/nWsJ4yvSMYgociUhXl3ulYpi22Jjj3WdObT0SzINjmEipMQ7u2mJtUhNNM/zZCDQwrLbKdZ5IooPmntdmHtbVAUPtJM92bpNWEarMJwVRzmFbWCXWyeFYrdKFEq+4AR2ydtT/htYcDIVWmbPEROFzV4WzwjK44i6umljconTaB2eKRPYmiWHtQfPIk4is+oGkw98IrHpV+67V9vhg/0qp91M23zo2RvGiPHlZZO8AUDU6YCrQYfEb4z75K7+L14/oEfjkcj+ML+vZ/+2TWpfG5LY9/AQ==);lineShape=1;strokeColor=default;" vertex="1" parent="1">
          <mxGeometry x="722.2077051316164" y="48.30744393383782" width="13.487387693823848" height="26.3053959998756" as="geometry" />
        </mxCell>
        <mxCell id="28EZDfu7nihR8xJpcDyL-52" value="" style="shape=stencil(lVbLcsIwDPyaXDW2ZVv2mdL/YAYomVJggL7+vkozASxAiW8maK3XrqwGZ6fN4rBqnDmdj/v31Xe7PG8afGmca3eb1bE986nBeYOz9f64ejvuP3fL/vdh0Vl2p4/9V3fDT4+zxoAxHcyZ3/5TAG//P7z2gG27uwHkACYV9jaDzwrAgw0FAC0EzYMHLD14BzGogGzLFBC8UwARXC4AEcFoAAKKBYAcWFQAGTIVAA4yRNUDlh44SDTPASkDlVXiK5LigRIYXwIyGHoO4JogSUBSGudJlvWGXQ8RHROMdBGVRlgamHABJCAlJgJ7VyVUkrZgyxSY76Q02gC60h6Hzj+u0V38DlxS4kEg4cBAUirkIsSypB1TFPV4C9lJgFUEHZhIuQZAFzVODCnd6XMkaW6SVI9e1o5mghfcNw2QIAmm6sTgAFI5lEaYlxyg0KdO7ZiGuTtRPIHHaKU+43DhxBHA+slVQ8YacHdl0sYY5yAc6HOSE8SaQVxrzzwr4xl5GXDo6cSnJ0ixjbxtQXZs5PEMkKpeZy+nxcjzX7leWPBlOLw9KN29aHAwZ9Vp09RBEMvLIOtndBbD1AzpP24us4GEPWrFvAydq72mxxAlO3X7SLI+ejy8I3hbkW8i8FhRT9aSqI/eL56AoYYO1dvsBAAfrsvzut1u+9379n+5bPOnflHH+R8=);lineShape=1;strokeColor=default;" vertex="1" parent="1">
          <mxGeometry x="759.2212936681178" y="48.22696698272409" width="1.557412663764353" height="14.293912903171645" as="geometry" />
        </mxCell>
        <mxCell id="28EZDfu7nihR8xJpcDyL-53" value="" style="shape=stencil(lVfZctswDPwavWJIgudzmv5HZuLUnrp2xnF6/H3BaqiGRLS23nQsKQC7WEITP7ztn153kzNv18v5++7X4fm6n/jL5NzhtN9dDle5mvhx4oeX82X37XJ+Pz3P969PFVmvfpx/1h1+z+siuVQXOfNnfuAp5n8Pvs7w4+H0AW4j5R4fyId1vLyObtg/g/2ZKZQBb3gd7y052+GZbAT4TMl0eEcM8CGS7eO3FP06Pkr8I964dXwyVPp4DPm0ji9MJgx4YwA+jPy6Rsjn+EQu9vEbcugDmXJPgGRcQIVKodR/gSNFQLE1S4qL5hwlCz8xkBAzBbQgE/dVzSILRENsKmgLiqOMsvYUhgVSOJC17Of6RqiFQzmYUanCPYNWy5nckHQkBlTL69yHlJg8CEkW2MEsMhkUklog/V02hSSGFgBxNelB30yxbCmrxw2keDPtwZ3CsK0GdyovQcPT0rYJOphuHrYUAAef9KdPxLg/BwsQ22RUJGUySYSEqqRsLJe2xZ0+KVvAkMSIB97MDStW1n1rhT4cKjnANPTpI5UroOH08Vb1sun8LFhO+oAWBSOn1BOAcFMA13rEkAUWtKieYWoTgiFGzUjVWcEH/Chv2d8A8Yn4uceL6QCaXTPRRdxMBZ2grVeW7gmUQL6mSWBpzwi7TZ/PMhQCEWm/8FDWKh7emK8w4tCQOtbT4nw1X01Q98lB9AycZeNEfhMuF/+H/5fD8Tj/O3x8P/4syKP5R4Mf/wI=);lineShape=1;strokeColor=default;" vertex="1" parent="1">
          <mxGeometry x="754.1505539566631" y="55.05605024447675" width="13.5528314682972" height="1.8878995110464984" as="geometry" />
        </mxCell>
        <mxCell id="28EZDfu7nihR8xJpcDyL-54" value="" style="shape=stencil(7VpJchw3EHzNXBHYl7Ms/0MRokyGaVJBUV5+74LHaDayuhOcCB980I0aIWeAWrKyCriED9/uP329u3j77fXl+de7Px4+v95fwk8X7x+e7u9eHl7lr0v4eAkfvjy/3P3y8vz96fP1318/9ZX9r9+ef+/f8OcVl0y1HeTtX9cPnHHlnw9+vi5/fHjaLc8mxml5NjWfLy8m+vnbg7HxfH01KU/rvTXOnq9vpsB62U87X++s8WUChGh8ooBYJ0B045MzABwhVmM9B7QJkIJpxKYCyLPLUjPW3QLI0Vhi1QNANZlbCQAlGLcAzGYtZXjmDNDmSKrbbx4DJI5nP9SwAkCs1mxcoIB/bbIBqonsDM60GdAsjyVnakRA5YA0+6E543kstYyAtEggBWAM0NCqzRtLIqOqE3jjCGMUTLfF+mxyvGU/ih8X503GtlsMGtX+uceErsCePCSice6WmEvIqLWYQAtChaxJlFuKaXPiVz+o4CQeoOAUiRCyn4rxVsRitOIEKGiN+lfWzzmcy/jkbP0cD8K9hdhH9h/m9Z7aU9bP/pJiwIhU2TOJB+n+IxSbLWLfZ5/kTSDFqY36vq23VCF0mp4PECWkWPWTDJ4tGjO1kCigAiU/mUQquMS0U4BAfBY8GlUAnvxCUCwnAMdYJZiY1C+QLYnVfVCHZjwn9bqiWSMplzkMN+0cx8plscOIG6BxahHuAiUlIoCYVSSEVcHKyFQkRINoTVQui4RI86HFbplYqbM55L/IDJY/XhFG4AU5Y7QKgzEGbmUQ1o4iWcY1cROIO0+VlADK7Ach7UbMKgCQLSIfC9Nq1o7Q2elHVgdbw3AV5ydClP3Uc/SJ85lobnWo9g3QRk4dA9IIzp1WyIQFmupF5CtYL1IV9YnzK085D5K2jq84ZoGK8S12i8RKEv546C1ajokpo1kFwJJaqC8lBDTyC51KiwIwDSbBNwN28XhM+PHATMzVosOgjnZHkCStqMNaoOuL6l3CQpdH8IIfSuWd6x3NaNlPxPW8r8BGZ9F7WRQybfPiaXc3O7nyuHNB9Y+cV1060P6O/UJWzZQd7c8xYNP67+0fhXaVG+jw4qhfY9XHbQOmXeAFdoaE5arxguh0SxWpVnJenSGaQGhVYqm2W36hqWSQI1BR7+MtNhInBOUEwi5F5YKj9bkMKtmHEd1/grCzvHSOluW9iaBnO4tUC0inPZlZ9ktXp3KT0kU+asz/S0BvrcDLkfYxIY/v28kFxtm9CakIKGRLUmpDUADWZSQVqYmWhWyVXEgmk0PnjPpZAGzgIVoW1K2YlW1JhGaA0Ai0eatbq/ZOFq4V80E+YVq1NiRV0aqeWKmpMXhXw0yhq+atWi6f7ZATO0nf2OCj4WSlBHoGsQm2JW5I9jM/hNlK0inRWVIY6noDJEoCYhOQzyJ3WQvw1ubsxz3ErGITnA8lLtDFrLOVUhx2Owak0dDumujEUxSqg7TpbIQmG8gA4MzX5wQwI2pjTHk6LmkIYNOPoHpiAbDbBSlxNigAG7RLgQp4aMuVFSjcPnljqqTglcpitCcA4NbF7LADYL7Ch5MdANNSPv3sZ4DpBx+vaist5rcHAD4gdgUHB71iLA49n6GPrDkAtEbJI35PRTfMV+rQ7WcAkMTV8eBTnUavD2wgo6RD5UrAbQp4V+MWmu/HbduP2zYg+v/ZbVvERm9xhRzRnos76oh8urgETyjCFrfsCcXC4ho/oRpZvBNIeI2xeIiQ1PMU/tIhofjvTylIzUzor/5Wg54XFGR/DELyRY1ToxsXCGfxP+8n8ElERPtLRjNeD8jS3vLShJwrtO3J/vVth2kkfdUQ39G7RXW94+g7GUW2dtTZk+XZw3Lav4+rqLfltFZgjecPoTw2Q5bGcUDeXIyj8VqAS1HFanw6E7EqWtqAJ31UTlEZ905vA257D7dcLn+8Pb378vD4eH25t/9/fKonH12f+YWPfwM=);lineShape=1;strokeColor=default;" vertex="1" parent="1">
          <mxGeometry x="776.434836834012" y="33.435174895351" width="19.495584979821615" height="45.5245337940172" as="geometry" />
        </mxCell>
        <mxCell id="28EZDfu7nihR8xJpcDyL-55" value="" style="shape=stencil(rVfLbttADPwaXYnlvnlO0/8IEKc26tqB4/Tx96UqrK2lpEkL9CbLHIlLzgypITy87Z9ed4N3b9fL+evux+H5uh/Cp8H7w2m/uxyuejWExyE8vJwvuy+X8/vpefr9+jRGjlffzt/HJ/yccLkQy4jy7td0p5KEPzc+T/HHw2kWHyv50MUzk5dtQEgksQcEquANXgHcA4Q4AkCg7DtAYEoMAJ4k9QChWCCg9IeOuSW5Bci1A6RI/AGgb0PWsnqcUn/orJ2pGJA7QEkUUB98I8KNGVrWDAC1EeEGKFQBQP+O5g3aaXAG4damGQA1ThK5vg/iKDgA0IwNQA+NUhJKfUoSiFFKQtJXSSLkkgKcAeRG+HVAtvSWSowAKsieS/pODxSnRXTOAiqoUl1oeiwDogaTFAuIwGZKpezsoSEgN1O5AUor9DogUjVlTY2/mwDDpdBsYSslb6rkyYHG6aGLATjKoHHVNxeaCSijPmRyC8V5JCBHnCwgIHoHy1YFCBKQtsn0gaG3iiw67aGA2C35HaFXji7QO5ncCrd1iGJEXSgnAIgrohYkaqawEHUBZ1A39j1dZ3X4T4igAljImgGAq53tWicGdSoLG/CQTUzVCKLA3WHBjHEogue7NtD+cuo6u159MNadnbnj3gAKquOvb4AuJoiorpnobPOp8Pl5sVqhUeJI+noGB/dPtjK472ar8cmaNkdo2pyaW933YdRfJZzrCapDAZw3qgP3a5iHM0HbadzOtYV9PT5QEhOPFJmzzce1lWk9XgXJJj6iEeUaXW4NgPkUbwXMVNDMDHazwHzQoWwJ2px4K770gtGpjuONJyboP5q/78+b4WJU2Pa3tOVtvV86mcx4hWvRv34PfhyvF/ePz5fD8Th9u87/tx+remv60A2PvwE=);lineShape=1;strokeColor=default;" vertex="1" parent="1">
          <mxGeometry x="799.129171922001" y="15.189683269849183" width="7.596415036149665" height="17.76741567120007" as="geometry" />
        </mxCell>
        <mxCell id="28EZDfu7nihR8xJpcDyL-56" value="" style="shape=stencil(lVbLctswDPwaXXdIgCTIc5r8h2fi1Jq6dsZx2uTvQ0WjpKArSLrRMpZ4LLBEx3cvh93zviP3cr2cf+3/9o/XQ8c/OqL+dNhf+ms9dXzf8d3T+bL/eTm/nh7H38+7wXI4/T7/GW54G3ElI7oBRe59/OIJIXx+eRgBx/6kARwUgCO8mwd45+C0iywmogg4K0DxIJ4H5IKsPZSAQvMAyXBJAwRS5gGJwaIBBTHOA4KAiq7rdx3+i2CPUFoXZmEFiTUgoRgx1ao3STMkGQ7gdc5DnfO8vWtTzhHijRohkbb3SMb9voaraa48kkEzJUQdkUQkg+bgp7b5AgSwUaKYJ4pWAoQRuA1JDJZzAvubpI1hKLGdnoWy1jYT7WGBtyoBWeew0BiFkLVmDJ0nRtI0FXFla6cbGVsYnkhTI6yez4TkWxeWBNT5Kc182iLjHXyjALaM0U1E3pyHrUK81b72mWZt6WnY+PYQSpOvaS6tyH8xuFJeArwxaDWcEJU9mfZM7SvlIAZbIbR6bTdojMhxg32qT9SWeESmdl+X761y2fWsKlH0/TZfdZpcMy5Lm8vmVWcJUA/fm9VTfzyOi9m//7ebWP00bnF8/wE=);lineShape=1;strokeColor=default;" vertex="1" parent="1">
          <mxGeometry x="812.180909254372" y="19.21126131048777" width="1.6381814912560912" height="6.3426850509411" as="geometry" />
        </mxCell>
        <mxCell id="28EZDfu7nihR8xJpcDyL-57" value="" style="shape=stencil(lVjZctswDPwavWJIggf4nKb/kZk4taeunXGcHn9fsK5sEbJWyZstYUUciwWkgR/etk+vmyG4t/Pp+H3za/d83g78ZQhhd9huTruz/hr4ceCHl+Np8+10fD88X/6/PjXL9uvH8Wd7wu8LLgbKvqGC+3O54si5fxe+Xuz3u8PEPlXiZO3zsn0JVK19icv2Esfbo30gkWX7ylR6/wu5AOwL1dzZ+0AFBFArBe4BQpIgIPeAEKlWCDAhs6fgMaA/gQtFlCR1qXaAqGkrGNC7lLTMGJD6E1Imxi6l/oSsTFyJoQ86CwVcuNJXuvB45hJA+hiKQJe8u/bKiBDNKwpCiA1AqKK8Mrme3npFAECC5bcy/n/i7gJysYXQPDBIU1KXxAIKaAjvKfZBTxJ3XzRGcn7whEgpWHsHGshTFZsjAVRyFM3z83hlwd7QokYSkFI3i5cpABppp/SaWjUiEG+i2LdOdZhEo7cT+wDsVUKTswCPOieTSxaQASN8Je9syEjytMZsYg6QQ5pUS6JIYQVgspTgYGgu9fqitGNAuxa04anAXta0epNWlVkEUCbNOgfpkdhpfhPNBeYltvYMmKo1CjZi1AnKYyOPmSruTGOfiEG8bhxik85EAn/twwnrGBQgzpTFkwf+qJYbdXdQiVR7g1iAx2IdymcAyVPqKSEVbmw6hU3N2gwE6ljExtCmLNo5xTbayiDX28kskXhVaM8z24tAhVSAWdlW1p2bxx9cqBqgp1Jb2VaC7mNoSyHoZQVEs6cWqC7zwuliy4CtCnBm+U9wxyvFLoWqmQnVIZE367+Dktred/q0ahbAAfP3KYE5im4McPJ8IJA8S5GMo/S+vU5a0wsUQUZ5tkvl8d3hvj1bBUtQIDmMM/LKuk/aMxzjc3/w2J/H6+GqNs+nhy9G83qpYIN8zvmg8gta5rPv7+v2+uP2seBlt99fvjVM79uPC3rp8mGCH/8C);lineShape=1;strokeColor=default;" vertex="1" parent="1">
          <mxGeometry x="811.3362666380731" y="16.15436431960518" width="8.5976471151248" height="19.816994553709264" as="geometry" />
        </mxCell>
        <mxCell id="28EZDfu7nihR8xJpcDyL-58" value="" style="shape=stencil(lVfbctpADP0av2p2pb0+p8l/ZCakeEIhQ0gvf1+57hIkjBa/GaNjrS7nSDvQw8f2+X0zoPs4HQ9vm1/jy2k70LcBcdxvN8fxxE8DPQ708Ho4br4fD5/7l/n3+/NkOT39OPycvvB7xtUAGCcUuj/zG4Ka/r14mu134/7S3kOV9h6Big0IElAhWB4QIgoARqiWB4IsPZCHGA1ABCc9UIJMBiABegEIvvm8BSgKkIGyAcjgqgBEArQBKGOIFbDaAOkhRSArSxmqjCE7O+gCSdYhRyhWWiuQBBQHxd0GeOfAOYHgWkYDwUH8b84zILV+XASU2k5wBhRAI4hcwCUJqCYgUeuEC0AxjhSuKneRh0UE93+o2kUymsNnSKSjttKUwaugMxQ0HIDPugzBaG+nQ544640cQZJsYFFIhr1nzVBlRghGSjFBVCfyTaeWT8S6hxrgDN2LBbxbA8gEgdYcqSQgfxW0kSVOumaPnVZus6w8nLX2lmYUFYPdGHziIjVj6jyDboXHk2pVu7VTaYpyJ3kitr/v5mdqWbxTApg/lTTAEhnvwFcdtQXAqxPZOrlWiNfbJ1m13mjQVe7MHtTztjPcUDd2Z3qyvWROZzyjHrad+U+6vp0Fg/VO2dsbTGgr150rEm9IMv+dHSxDkN/vLHlXU7azRbL9qjU1Ql6zBvO6RsrcIjzTsaidton9sj3vjzI9vkn3cvcEKDI9zB8jWgp6EjhTHQLP16zsrXhj1Judbc9kUhJqn4fJ7fX3rXgL04VW5JO3QEUvrpc195i+Mj92P6y+dXXt+eHrivc67nbzDfHyf30l5FfzdZIe/wI=);lineShape=1;strokeColor=default;" vertex="1" parent="1">
          <mxGeometry x="810.0769776757145" y="57.18903762701052" width="1.8460446485710236" height="20.49245589547911" as="geometry" />
        </mxCell>
        <mxCell id="28EZDfu7nihR8xJpcDyL-59" value="" style="shape=stencil(7VrLbhw3EPyavRJk8312nP8wYDkSokiGrLz+Ps1sODusnqlIQE6Bb/KaxSGb1dUP8hI/fLv/9PXuIv7b68vzz3e/P3x+vb/EHy4iD0/3dy8Pr/rXJX68xA9fnl/ufnp5/vXp8/XfXz+NkeOvX55/GzP8ccXV6KofKPF/Xn8J1YX+9y8/XgGPD087QOkulhVQXPQEkJ3kFZBcJ4BsvyAuBwKIzq976K7K+fhUXUnL+OpiJuN1/nV8drWej4/d+QbjA1lPzK7IMl4NxOYXnF/Hx/Px0lzzsB5PDkDMenQ8oYTI/PxtfGPzexfX8cXVdD5eGVlXBukPjYzX9Xfgwz+MOh4fnazjQ3BCDKr/HVdC6BSZfKGjgXRLiTC64fzCPaCggXSGQCyUXV4POEbXyPjk0kqgqJQijFBRWfc7XIjYJ7q0rj97l8n8yQUgXHWNeIwhRNEvkvHKr1WBSnGdMLSjoKhKFrJ+JVADRgdXyQErpf26IhXuzr7QXAaN4zItYWrOBqiUE2pUgS/0eSzHgG2+CWjeBcYK78QAEqOdTF3YAQoxqypvDwhgUqTSHgUB1HPUcTMCOgtOGQPyAJAlpTa1ar8kAlDfslZi8Uzja7IHR84hFyfApcb9U5mznoOylflDCSjZ6g/M49ThIWZWpQZh60hbVoBOwaihEhHXPeiu2DkMTQEV43lFqS5DHA8uM4CKAOhwmrJwltxlI/QsEg6dW3Xp5oOngIYAYeljnzbZAGEmlGeADl/wNPwrEYBLQ8/JkgZzGgI8YauKO8Qrjc+FiIACSkBAIpuu4oJHAMsYFJArAhoHdGOlyPYQMYnRc6BWijPm7wCNbdqkGUoNRr4BsGzlX2iQKFXqQAOwHpwGAJZrD8B6cKlQjxt7gOJC4wOjd8TkUGWGhayapkNuyqf5LtHWutVzG6BOHzwGZOSSTkGtVA/CbmBcaihkLc2YdJxxB3SgxkVgzAdFRqBVTzPpT5c5xXFS2ZyvCIhkDwrAukdofOgdU7geXSD+oIACS9KD4wCIcV1rYbKk4L0p5susPs4+0Van7pWenAIgNR6GY9VbNwfRXWKAhgnTsAOhq64Y99CpBylADKCwg9hK7N2mOwdEY1bWlVBAAEChDnEAyJyudkmJU8NuOtK6+8CsQltJBwcnVCsHNYyPUi5Z8gktIA7oHfke+szNd2al/ZUDH82crlYG1NLsIKzQtNk0equU6S9s11YsO6erkeOdHf4jhMacaoSDxWoNKsXoQCV2ank2PvZaxpYUZ+9yr5bEsKNchS9U2vzRWF0N/1gtp9kAVIsaepkPab4B6XTjHd9qGl5NaD2q2TEE99FuYSlQwBBxK6XOig4E/GulZfM+FoTK1jV/Y2Z5a3Ltc1deXiJAaElQjAyM/Pt7efm9vPy/lJcZANyBFAC9vsS7WOPgVp9WF23MrH5mhZsIRH7SpkmbK72NGheIprHGrsdKm6nCrrykTamCCU3lBWzZapINkHmfLGJkHw1OBrCtbJkV6nFHVGPmenAt0yiaTauiFXqHctAGrvTSaDSaxQDIHg5a2ZWmP6NZnt4DGO14+wXCpZiRGgNANq0eXLIBEJ8ed30dz4F1daWa/n2h1yKSMIq2RO+CJMxkZwNEKgKhmnxJaHwICQsCzQJZnA7+4IaANtZQ7UcPiWwhY5k1pJPMv1VtO41hDSZN31ZfUElg/ryZY1PJTtMMjz24nOgNiqnIMr9b86ipw1mJfTzWGRp4WMUX8NpLIxsL54JSEbcZjqUC5XFcRzJ5xCcNodPxFYNUiC695wa4cfoI9j4yf6KQTF5LWyXqwaDVvA2t1mjwBIJrkJFFTwVi2D/CePoEpWE0Uzqze1mT5/h5G3cWB2qA8ZnFjY6PmDxNclLEAjLQPE1jKyTYkZYtOWIZn3k60fGagT8QKea8VLETS9I6JvwhTJc4S2XxTYzQBwrjWkIQkFjumzAGKKDwiw8ogAN/tmIvPsY7ILbpPEuUDZDo06pq3n0MJWAvVxQAZuXCWJM5h8wrhIQVc+DSrgCIBQpgPapqrlYCz+qqST/GI0Zmpfe+enwDQP+4PbL88vD4eH2juf9/fJSpP10fdMaPfwE=);lineShape=1;strokeColor=default;" vertex="1" parent="1">
          <mxGeometry x="457.21421327334656" y="140.37858104590248" width="48.48202016878645" height="24.55740703775814" as="geometry" />
        </mxCell>
        <mxCell id="28EZDfu7nihR8xJpcDyL-60" value="" style="shape=stencil(nVfbktswCP0avzJCF4Set9v/2JnNNpmmyU42vf19cT1KF+oip2+Ow7HgAAc0pYe3/dPrborh7Xo5f959Pzxf91P6MMV4OO13l8NVnqb0OKWHl/Nl9+ly/np6Xn6/Ps2W89OX87f5Cz8WXEvQaEbF8HN5k6HU3y8+LvbHw0nbR1T2GCGhC6j6AGSg5gDEgaYAs0vBARTISQFSgEAOgGwMqUCJLqAFTVKAlhxAhaJPyATJAzCErAAFoXq0MmTNUqmAHksMrAEUIbMDaBA1rVSBPVobFA2oUizZBVTWACkNhyUMklidCKmW6pVrhaSPkFxmxyduwOaECs0BiMtB17eEhU7mKEGqFsBO9eUKUWfuHQ+riIS2OOQIcoLA2nm/Abi37XrUgGRZyk4eENDEXHpLrdoHG7LkOTr2GShq++jKGIoqmTTfXFwFRLKq1AKgQ2lGaNolKS1yQijc+3cjQLrL6N7AJaau1BuDliTZ7vFpnTvanODnbVYlE4NfGOIAa6EcVB7LeDKl6pc2cZ82G5unxD7PNvcnAaE9wpMA6Z+WLMBTe5RKaJYmT8biXx75OnmvEN9vH3X3DEZD6EWwcfaEfvrG4YZd0zdOT7QLwGA8o13DBvM/WoUfLBjJistggxF91N8frEi3rXHjDiY7m+ZnsORRz+bGLZKs/4M1lez+5a/Bslbo8kz++EMImp7Ytftf89ikC132hc6g9SH01Wo9u9nSL/3m+J+zHZe+wBUZHPfYU7HT1fenZmh8R7wyBBrewSez1Vs/XzKVSPvj18N/3LoG9vLw54r3cjgelxvi+//tlVBeLdfJ9PgL);lineShape=1;strokeColor=default;" vertex="1" parent="1">
          <mxGeometry x="531.0267765596452" y="115.15055395666309" width="1.9464468807095727" height="18.5821239223593" as="geometry" />
        </mxCell>
        <mxCell id="28EZDfu7nihR8xJpcDyL-61" value="" style="shape=stencil(rVjZctswDPwav2JIgudzmv5HZuI0nrpxxkmvvy9Yl7IISitnpm+2hBVxLMAld3z39vzwut858/Z+Pn3d/zw8vj/v+NPOucPL8/58eJdfO77f8d3T6bz/cj59f3m8/H99qJb117fTj/qFXxdcYUpcUc78vjzx5MzfB58v9sfDy8w+M9mg7G1at0+hvb7aB163j5F8bx/IAPtQyDtlnzOwd+R8Zx+p+HV778j39oUssGeJN3f21pIHDrEhpwBSEpBRCfBfgSZAomwBwFHuU+osubAOsIWM7QGRogOASLZ3ibl9YhnAFBWgkANBSxK5L4OXRKMVDHG/gi9UQB3kreKREBU0QtERCBNDQfaKpzG0wq/Yc1+DZChHZO/6Pk6RDLT3vf9ZMgb9Sb3/MgkKqpjRnMjSabhivp8sWTKKV0g9oLi25jLAk+kboXiY00r72AMCMegcbzQrKgCNI2Fx+cgKxbaszwGgNyVE5zTAgwlWomaSABJitowfFXRs3boMyEPhEhzyRQaS0YCEyJop9N1Tn6AVErEKusB9TXKiK10aWZYB3LaBGaDgSjs7AEAd8jC2BYCylBPZIWgGMeQwFG4q5RrAOA0wgBoLgATH5IJLkQKKYQw6UEGAMrgUMJfGwoXGrlupIYCPkU+eIC6N9I5Qxiw0UMRDYKlFYZbGIZDJ4TGTigagHWhhkMmGsjEqhwZCYnIcxtaYlof/hIiu+TwfAxtbShgAgOB+mqVzACid7HJ+zBMoXVWDQwwZVEI0bhhcimAFkcBlCNoDtTGtP98gkExvGZn1QwYdZ7TmFnKh75uhfRzUt0bLww2xZNp8uFWNtQ35VrnXNo4b5aSl0Ov5KlfRmYR83/wbcljse/+r3Mb+q2NngduIbSptdlzwoGcsRXUM3uiA5u1k7+FezppvnNuBZnlK6GM2O3h8SXqWyhcKPB5x38DCQI+0+XQknQZjbCVf63jFoHpGBBmqlFMt1npo2X6aONebAlQxmYqmt5+U99rYtX0ADsq7EIaLAtgB0WuKGjikE+vDDu7gehPklT2SduNN08ZWGfRNjcEH2qhbzLQPrOkJdeI3W4KlaP/RBK07liIoFNczITArMBqJI8DBFUaPHFxgjJjbpcqNGRVKIfk0HK8ZCpWRER6L2A/ebW7by4/rRerT4Xi83MPO3+uLV3l0ubTl+z8=);lineShape=1;strokeColor=default;" vertex="1" parent="1">
          <mxGeometry x="517.269791421515" y="104.14217052382025" width="13.58178828334826" height="40.8136982827059" as="geometry" />
        </mxCell>
        <mxCell id="28EZDfu7nihR8xJpcDyL-62" value="" style="shape=stencil(lVjZUhsxEPwav07pPp4J+Q+qMMEVgikDOf4+rbhkViNvL3nzMb07R4+mRzt/8/p497LfOfP6djp+3/863L897vyXnXOH58f96fCGTzt/u/M3D8fT/tvp+P58f/7+ctcs26cfx5/tCb/PuCQxN5Azf84/GDHm3w9fz+ZPh+eFubPikrK3dd3ee7FR2Tu7bh+cZK+fH9ftoxWv7U0h9lWCVfbBrdtnJ3W0txKJPyVIMYN9EEfyWarE8fmJPr9ayWH0BwGTAlTX/74AQi/hZ99QxZIUAWBGCiHmxFwyPcQO8CgyKRoAoYwApJnFYCSNMfgihdAOAFVmENHwOtjRpRCksqCthJGoIXeqrAHSmKWIvPHCpbHSMdBeADXSGHQsYlmWvNQxrclJZEFHCaNLKYsLBJB1e2bLXSqaGjlIZGmtYsYDLGeJngKUSwV05G9I4xuK5/SuUsZKlyiVdJw1l0P6gij9pWtpUvz+aPO1yqWxqWugADigBgNq6Qk3MrimAHCSpAnUCQpQO4Gvn/XgWtWAQkrtndgx6EWmr49DPNBNr8gEkCVPgEDShHmgTteWJuZS1AQHgI1QnNZZpQmVI6XGG3ReE22hNtNGuoJerBCuiLca4JjMMHqMgq6MTCh1KROAcSNqbsAlllaftfJpPUXoihEVp7SySe2r+KnlDIsBgKIBbI7CpTQOLXApEWogaKcqXXnhUNeoAZm5BEE2nQK00mZKa+1jbJV8RQNY0I3ek0tMMaGBvNNpDYQablKVKBzjUjsExkkNLuWNY8ZrABNAOMjSRO/AAFXryno5qdYqrZRra1GS1gaYe5oAYpoqHahMTGCr0wBWBwy5rM4l3xeutf2hqkpDXpMYSur711I8sEGd9MYEecJWMgCCkicXPb4GiGOWILHyxhuU6uP6HiEWJeIgZ5hLvp8RCyFKAVbXIUHEsUUOQmES05FTQymsDbk+c2ljIQCg/tfKkauecRtLDQBh7OmNtQmAPKZ1YzHLkzZuqx9poPaGebnkMag53QQR6Tik1Y1cwoLMdnywX+0olu8oOfURuFjymTgB+8tYOC4EwGUlKiMVcO2WRd9qsADmW5zQt99P3hIF8UxFT7dQge4a0yUX3CeddiH9wpwJN73khj7erzs/3RzQFcN2KXHhM125jR5p/NiaFklHx9MVc0MyMzlj6eCYQjX09JkSaWhVpzIZqq4nEpjeM5+jGF8cN83x4ePK9uHw9HS+8V3+r6948dP5etjf/gU=);lineShape=1;strokeColor=default;" vertex="1" parent="1">
          <mxGeometry x="537.1642009467905" y="108.15806699019288" width="12.721225120986674" height="36.77164943677769" as="geometry" />
        </mxCell>
        <mxCell id="28EZDfu7nihR8xJpcDyL-63" value="" style="shape=stencil(rVbLbhsxDPyavRKiqBfPafofAeLUi7p24Livvy+N7doWdz1pgN5kmbMUORySgzy8bZ9eN0MMb6fj4evm5/h82g7yaYhx3G83x/Fkp0EeB3l4ORw3X46H7/vn6ffr09nyfPp2+HH+wq8JJ0o5nlEx/J5u4nzxebLfjftb+0aJO3sWyuU+IBUqoXdQSQEgN2raAVImBoAaSVsHKJEk3we0Sq2PoWZK4T5AE3HvoeX5ZhXAIVDoo9Y652HdhVLs36QNBqGWVwdQCgIAkVLxAMScpYnVAxTE0Jik9rVxzcM6dZnywkVDXAdK1QOS3geUQjn5vCpIU0krREQEEKriqU6gOIrVjntSoQqoLlYJwQOYoSJaX6+aqSQAaHP93wD+crlOtWWpLgBIc+pVbYAMPJjmSvVBBxC00cTsAQUJwp7keKhYckrFxWA+kahN88UDGopBSBd6QJ3J0hqSByAPTUjEAxQIqNYVxSEBWfGFBQDxUOoirUqMJVoXPCRQSybR4vRQZ9H+JwB7pm1CZKC4nCn0MVQrbzR4dW4qN1OuAUBMlHs9pEu3XR9aPOvrMqmt8QAP7AX3ziqwmIl41Qhzf7h8nhRUdqRYnLkAAhJp//Uwd4N13fgxYoMI1APHuaNf7Rm0FrbO05w9GpwWLfv3QHubMD5c9B4JvhHheMWKzceL0in1Y2zZ2ql5+Pdi+PBa+669Ha479Mu4200r+O3/fue2q2lfl8c/);lineShape=1;strokeColor=default;" vertex="1" parent="1">
          <mxGeometry x="528.3721205684928" y="157.3766950241045" width="3.177484773779952" height="24.731086226274897" as="geometry" />
        </mxCell>
        <mxCell id="28EZDfu7nihR8xJpcDyL-64" value="" style="shape=stencil(rVbbTsMwDP2avlpJnIvzPOA/kNhYxdimMW5/j0vVsST0sEm8pelxYp9jO+548bK+3y87Z16Oh93T8r1/OK47vumc67fr5aE/6qrj244Xq91h+XjYvW4fxu/9/YAcVs+7t+GEj9EuU4yDkTOf44ajxN8bdyN802/P4C5SMgWeyeZ5vDeUQnU+23l8YApc4C1ZmcdLpuQKvCFj5vGZydjKn+gAPlAu/beGHLpAyPnyAkvZAwNVoDTgSBFIYM0pxMkiqGiAVL3CSWEQhQIySBRSYSAqW4I0mVK27EhQ1EpKZSAkIGoRiqVwGhUKWgL5kiV1klEquVoIicRAajFT6kwGickDl1KmUBZbEDLApdbAK29XuaQFG4BwbdCWKYKCbmn1sIBa3bR+wPn5VC1nDeCqzEtk4zWpbdNEwYXFw5YC0OCX+vQJNr22BUQmRiQ1TSZpImGWqjamjVOQS1zHoMQhl9pGfMbDP1m0j8PQNEDyta+PRoGyu33ecsQ81c+nXuCAEEpiFUGABR3IlkJrfQhIbyZXVpvgpmcplgQljTfM403dkKIyBvxpn6owMXwZ3nvYgxt/mKfSuCzeYX4B+IZPi9tdo5fA45t08GTRcHHdsPYnXBc/c+Gq32zGsfL8fz1H6tY4g/LtFw==);lineShape=1;strokeColor=default;" vertex="1" parent="1">
          <mxGeometry x="559.1845813368122" y="149.13115744788468" width="8.439384424963464" height="1.7376851042306498" as="geometry" />
        </mxCell>
        <mxCell id="28EZDfu7nihR8xJpcDyL-65" value="" style="shape=stencil(rVbbbsMgDP2avFqACZjnbvuPSk3XaF1Tpd3t7+csIiuQeI20N0rPCT62OabCzeWwPTeVUZdr3700H+3ueqjwoTKmPR2avr3yqsLHCjf7rm+e++7ttBt/n7cDcli9du/DFz5HnlZA9cAy6mvcMaDNz8bTiD+2pxs8KjAhw1tcxlsHaBK8FvFE4FSCV6DUMj4YMHn8Tog/1FDrNB5WJB1AoLIDNAQrEEKuAB04QbJWk8TIqA14LR5hUhGOoqx5ggdMTyAD6AWCBZuWmRNNkmoNyqUEApIK7WMAEyGIogmBUtFcSySBoMCnlSMX0zBL8JzEtFc9ghVC8qzBpoXjbhFCKgmWm2lVSMZBLRRuEJ3WQSO4sCatVrxAZd0mR7izMTToVZ3nQbs1ra09OPl+ZpcHNdRCDWbup+VD5fuZWYBDQClJhclw4ZWUpcLGKMQ6Lvpk2nlD4qS+KIz4Jg//xCiHAydC6u5y+rAKiVCONyaQZBpgMMW72I+z+Bp85mI8DwXJmOeIatFXdR4/W4g0rlQcNVPnOQiC3nL0TIruw1sbM3ZfPIigBHthvalb8DynNfnUVrSLol4+fmCpHdJbg+KcXfua+hvPi9+n2749HseX3+3/+VOPt8ZnIj5+Aw==);lineShape=1;strokeColor=default;" vertex="1" parent="1">
          <mxGeometry x="562.197531847326" y="162.1559233635826" width="7.395637704405317" height="1.6881532728348247" as="geometry" />
        </mxCell>
        <mxCell id="28EZDfu7nihR8xJpcDyL-66" value="" style="shape=stencil(7VrLblw3DP2a2QqSqOc6Tf8jQJzaqGsHjtsmf1+qA925Opx7PAa66CK7sYccSRR5Dh86yYdv95++3p2i//b68vz73d8Pn1/vT/LLKcaHp/u7l4dX/XSSjyf58OX55e63l+c/nz6f//76aUiOT388/zV+4ftZL3nX+9CK/sf5P8XV8u8/fj3LPz487eSluuIX+ep6I/LJdVnk+/yB6/LeSVjkQ3YpHCvo+qWtCt1VppCdX3cUk0tkSzG4HleF7hpZITS0qVohZKJQ5gY2hUatFJKLeVFI4qIQhejiatbUnCf3Fryr65ayrlCPFdToaZVvc8mr8s3l1ahFXOrH8tXFsso3F4h8nm65+Wl0OR3Lp+k0m3yhbpRcWc/bgivEPnrFq9e1zQ+PLsDDAn2a7MgnKkRacI2tUF1aTdQjveLopwV3CmxLaqQQUKGyUFMw8ajQSORIcNWcoTP8KtPtNwVxgVhJAbJWsyXmGHkacXcPhVgp+wkO+5smsZmTE/Cl4jLZUlazrvfQ4oTl684aEIVrp3BRNBzWLdXsAjm0Rq+sGFmD88T59Ou2ukapzjPA0C2tZlWECQQBNOBhBYWwxhT0DOsKipGNWEmNKGsAKQpncg/NuEbizqcKADNK2AzGVCED9cjklqMzgHsrtHlmperaetNRUYNdXJnAvjF6m1F+dNMQ05ozeAICSgV+JZ8QJn0deutqpTZv8rq8mHBwlUWDnwF/kWcm0oDG6OEAkJBtKwXurOYwv0+cInUE+koRLCkbVpAvDFNlMtlOnpF5MJDqhICLgnwGRKVBIN31DPvpZP8qnxLIs/2oPDhomWB2Xb4h92cKEyoP/pYocFl5mTnxjfuJMyW+8byRJszWnmHi3o335ScoHfpDAnnq/+pvBeTZfpIyeIPzCvN/pTrgAedZvCtZrvFVXCR518goIEGYBzrCnwYA6ukCmlAUwHS9YZZQZERQzW8Ze5eONZSSAIsxZY1oKk0WZEpkcMmqUIlCu1bLNmLWJpinaWXI7rlVrFpUIbAqbcPxWxUa5pqqIOQMvWN5rQos1+wdsSVs3nWkgFZqFI2C11pq9Q2NT5b06xLANwowwveUAMAiN1ObAL0pCIW83jDJUQXWI9CrjlaBbalgkqAKLMvpmzfvDk1XyAb2Nlw4UgiwJU8TZqsQOr84s6XAoc8eWt2VQZ81a+DVmr24UGirw7qGKrD0xTqfKrC63Lr3aB6wLZkACrzSuRKjo4/3LhhQ33gf0Ki7ssrFQtlIY9iWDFhG3tSycDxi9L9UsAwxFAjxWg6KQttIynKxowJrCQ8ehaBOM705YurgjQKrIDUbzEaB9Tsadi/HoVm2kefXOwXWgNUECKvgQIl39Gwggjq10ug9ADDxDmb2Jqhltt+OstAKK8TZHDtqhXnAmUBb7T/rtp912/+6bjN9iI21buxzeIpDo48SUZ6BhGmK+tmIOewDoX3eqPMSyrOhTvHINp7GYxF7v8KqwoqtQU8rsOpxThZofFXBPlbijcQ8k8sLPrzRCwVi0rqZzQZqn/G9K4M78YgWZtK0o43Ia06Bfu52KdcVkuH7RkfGzTidiMtcQcw4lCXxeoYG7RF+b2P8AdNKT1Psy3BvUyiUyfTiCswr4zzVkWsAV6qzs1hTX21mgkJX8HjTw31ZdBZkgzHAYOEvpo0k01mu40vHFTRfZWlUztiY7oGmgtkgfN9GVUc5Cwzve6UBpByCE8U2u2/XSa1MTN8U+IuFMeQ0CmwqqijUjEInuHRJjy+4xJltAHU0S5CLGF2gZE7NFGS++9gpsIxZoTTAqStdoZpBbaZJf0Ty75yd/UTqzbnLHLYdyEMypTDFPM9UzJW/xfE4Kx8QQmA1zh7ZhkidpvuC5DaauCx7R6oaY2c29zagXeYY7OB+gwH5Ruzf8J2Psgh9QLFBz8ZTnTKhunReXVoSbZiNXuu6pfH0iCmYp0djOkvOMB43QSHLUzD78OXtB1pw6ODpcFA8tv4LpSnZeiyXIocZVQytBRo2WlQETIJZ0aXyBZNg+mDEEIinRanKY0OR5i4qD49qAh+2mrdikeKuymPvm8JKirh/oa3BIY9JOSsqVB6G44kmtCoPKUKmw3e1J/R+Cn3qovIJ5dnw/b1PMt+W1w+X959fHh4fz89H99/je1H91/mtqXz8Bw==);lineShape=1;strokeColor=default;" vertex="1" parent="1">
          <mxGeometry x="593.5725503164942" y="142.05077892975896" width="38.03127942908941" height="24.83806438816555" as="geometry" />
        </mxCell>
        <mxCell id="28EZDfu7nihR8xJpcDyL-67" value="" style="shape=stencil(lVrZchs5DPwavaLACwSfs8l/pCrOWrVeO+U4198vZlWkh6CmVXqzJbQGBBuNQzqlD98fP397OEX+/vb68s/Dr/OXt8dT+usU4/n58eH1/GZ/ndLHU/rw9eX14e/Xlx/PXy7/f/u8WW5//fvyc/uE3xecKNWyoSL/ubwSSPL/L3y62D+dn/f2kVScvfKxfREKYbKPlMHnZ6XcJvtEBXx+ZtLZPlOLx/YpU5r9F0rh2D42Yp7sK/THHl/qZK8kyJ6p6GTfSMuxfagU5vOGQAkENFj84gxIFBIAMMl8Y6EQgydoD+CwF5IGKEQpzfba7+Q6hSi6EzeqFVCCysxoo2hAlPP+GEUL8CdTnBlkFG3Qnzgzwk6UwBVnH0+LWL3Lf4snSIHc3x0ZxhQU+p9n+wjvK1OeMyaVnkMH9k6BUqUK/C8+nqYBEfgjFOf4ZJMgEP9K7BTFTgT8qaTOH+kRO8iXNsfHNA/x0xKS5wcUxgBThPkJJcIbDoPwA5DhETZRmTlqOp9AzhugzZdclAoCZApOp7k/8wgg8zVbqYoIUDwvJFEFPDWAKzVSenE71Oo5c0Q6168Dmk99abjaWCbO1KijPl8HSI/JAEg/1fV6yb7+6ahY1wGxJ+8ApO7kUUVucwXUAqNk8sAOUCmjJ2gvqQPQuoYcNRUyAxpTBTdtilLmm26WcUjzck+XAUgUEcCY4/qEDEWgDFEfgIIBS4oaANUdy2AnxE1gb/eekDsAatYsv7ILa6UIyGfdrOtdDCBIu8PSflnxAd1RHb3QHgBcqurzwQAKuKTGnPsAxRfcDQC4pOpz2gAop+1tdtSQ/soRoLooFdgjNWv70/IEcHGt+aJoAFTjDFDuYqsBnNw3gTcdeNFKi0MAarw9YmFfAezbDrGwD+n9FiYXV+30OroIL0wKU25LsAWAJqqNTLw8AR1aFn5rP9V1gHFNfJSQkm1Ct1xcQocuJNUDUI9rAF3Yh+Zse3sV14SjpNkDUAlqY5Dd5yg6tC7ybQDQOxhgPTRqmIytOS6HRjrTujLuw4rzoTm2VswlAywZl/EZZK0o2CUfVsXiuhY5hd363QArEMWphgUaqIaVIKcaOzE8qnJuytoijeuoyAJAY1z2c9YGwL1AjMupUT9TF/Y1vDzLfebZAZD0SVgaIGsnQMqV0R/trxoBYo/JvmNC2wnt9N83cWg9kRdAge1JDn5jZa1uAReX2tLE4WZ6WzC4fibAlVVaKwrDHLWhxg3IllNIvm1syvMTVPorR4OZWwRqhuIaqy+jGmCRi8mrca0wStv4Op+h3pyoXVgrw9VSSH6zYTkI1wiB1A35pYvhEcAlkOCwBu7LyN3eISOX2M/swtgl9gvHgkXAZG4+cxG4U25+ni4ZNpWL7JmIIH/Ed942m6IZa5lnTHMELlgd7WxYFpRr/em7BR8asFKfRHYLRBRPK21zfDJTRoND73F2C9AG/GFfCU2eAvCH/f3eWOCy93/TGhD/ZeyJeAJgP01uC25oH5x9gTWNvUjYDaI6zssXBhF+fuh99bDHq8noNzEmlAz55jrIUOFytfjFjemqAL6pLzUh92H6SBPdOixE2DSHZW8Tbmysm9/FateMw9LkCge8sbhsPKRXz+s3kHplHCkMm9O8pkzn1HX7saAZFCJGX4GV/iVit2fY+1oJchRi3Geq/wIAd+9m77pGhoyW5qdZhoyTpaPDCiTND78MFcjaDLcWwQpd2W/yGVakOtx9t9cb9vP9BsgHaUvKw4HO7F3JC73GHtn7BIYduNkv/qNvve/+1cFNe/vj/ScOX89PT5dfSOzf9z+JsJcuP6dIH/8D);lineShape=1;strokeColor=default;" vertex="1" parent="1">
          <mxGeometry x="629.1564230316578" y="113.40770729366739" width="39.101792363481536" height="72.38744026603956" as="geometry" />
        </mxCell>
        <mxCell id="28EZDfu7nihR8xJpcDyL-68" value="" style="shape=stencil(lVnbbtswDP2avBISdaOeu+4/CjRdg3VNkXa3vx+NQJlFJqfJm+OQtkiew5s36e79+eFtu+Hw/nHYf9/+3j1+PG/Slw3z7vV5e9h96NUm3W/S3dP+sP122P98fTz+fntYJJerH/tfyxP+HPWYGi9KHP4ebwTKxxtfj+Ivu9eVeKMejHhJl8UjU663yFdqxcrHy/L6d0/2+A3IZyrdygcgLxTs8xNwT4qUxMhzAfKZqpWPHcir/5uVB/7Mkdj6PwiQzyM8K/kM5BuJhU8A/iyRYrbxrUC+Wf8nSuA8pY/wDPlKFfizarziJK8IzABwNZDMDtUToYjpifIcsRSoYZN5pkDqFAGmS6I2czJXKijInWR2askUwJFysaysJ1xdgl2d31CFGBwpyYDZUGhlIOUSccpMHAlUEdOiNVoKpCZ3YqOgcQDcX6A2x6EzRWC0IqfPWOoFskGzbxD7hg7olhxaexxgOa9QKMz5sStBgZdysAlAvVQRNNQGoyAkiEDKr2gVELyL2BwgbbjhUhJos9FSSQDjaqM4u1UyNZCGW7B8UIUAjG4KDQPvRAIC1zRrdKuA+KB0sQRKMNLLAapVyCAOvdpatSgAAnUtbtnZgBQUOdG6FaXK3seJV0kggMCpgjhoRFAfYjgVwBX6GIRaX2HRJ5RBIFSBjREdNj3qpjL7VUnNILlqIAxcVaHiUNdiFRp6Q7E1SxUyCkR2geiwjKpCCtatAiLXPeUa7B3OKGjdBRw9c6RCCQXOG52xl5xblUHQSy5wC0cR+Bw0lrSB3OrApwr9NnjnMaNcS6ACwXeOoxXW0TNpQGAffSbRaPOArHapTAkRbkqWS6VGYHLpuONG9GYFcVXuk7TR8khDawUQOe0izbikCihwlQcSVh1TBXDV5kFMJtOJA7cnyXRMGQ4E2gBZGzKE69JMGxsqHLJStQ2QgoWB0YmJTaRlzEWXGtFq+soOGyB2M8qKhOdJqgwyfi1QgeNw+xobIBBcXH9SYMvE4nLfyXGXZo46k1rbNAFu0qnGlJTGWEEG50+DVoHJMvMoUafZT6DROksabOgMnxG+XTrOaTj6PIPYVojU8FJAe+eZozqrFcRRJdjs1mXthUYIV3ijMgjtNbQIGsrBCaIEiqYCDZuu3Ms0yjhnmL1Pg1nM75Ua3LP4vRVucv1eTOUBTP3ercHy6fd6OmaiPaDbGzacjdxeskJM+71nHeX6urUqFndL2wbRw2O7s3o6EI8DWqsdGrA1+LOj0AbrmQJnvGBHbU2RoDK5zi7D/agTx+tFdxiGicqZGkdzcZ0j8ZLNhSnADYEDQRgp6zqI4e8Cn4rrxf9PEE+7l5fjF4z1//aThd46fu5I9/8A);lineShape=1;strokeColor=default;" vertex="1" parent="1">
          <mxGeometry x="651.1715734194242" y="143.05886208407435" width="30.51268855342505" height="25.192582673859988" as="geometry" />
        </mxCell>
        <mxCell id="28EZDfu7nihR8xJpcDyL-69" value="" style="shape=stencil(rVbZctswDPwave6QBM/nNP2PzMSpNXXtjONef1+oGqUmaW2smb7pWBDAYgFwkIe3/dPrbnDm7XI+fd39HJ8v+0E+Dc6Nx/3uPF70aZDHQR5eTufdl/Pp+/F5fn99mpDT07fTj+mEX7NdQsmTkTO/5w+CIH8/fJ7hh/F4BXcWMVV4D0fw4lBCe35cx3vB9O8K7xDtOj4ITKzwGiA5PzokW+ENUlnHFwuJDd4YgvewXfyO4COiqeM3cMxBRmgcWBRPDApS7UHUJymZNe8pLhbhnbU1F742iBolM0itKrKDJGIQkOusi0NmWXc6UuIyyboY+Mag0KRzQmoMAiQTgwBfSy9HCCl1llarSZYjbhu4lqWQYVhInYFXMW0KyUUEUrg+aSuIpOEmWqUZMLSBurpp/7CG7oRhYTcpL8GSATNJuxlICZH3Z9M8YhFIDW70p08Q3p/NCIgCYSR1QyapkBhLqoJSa7sgs5C6OanE0ZC6QXzFw3+y6JeDMuc2bR9lTkix+/X2Qdr9/lSqPfHQL2hVcCKl6y4AkwOCj13KYSnl7ZThmgS04VgCiM1q8EhkhnVVTpEyqvOixkfNl5zfL8OwrOz78N4vDX5fPCJL863lW9dXb1Qsno5PGxYN3lcv3Zthgxw8MmFz43XzQ7g+/LvZvoyHw3wxvv7f3oT103yLlsc/);lineShape=1;strokeColor=default;" vertex="1" parent="1">
          <mxGeometry x="660.1611190342435" y="157.09069252010795" width="10.506926745652436" height="1.8186149597840995" as="geometry" />
        </mxCell>
        <mxCell id="28EZDfu7nihR8xJpcDyL-70" value="" style="shape=stencil(lVbbchMxDP2afdVYlnx7LuU/OtOUZAhJJw3Q/j1aFi+RkxyGt42jY0s6OpImeXjbPr1uphjezqfj183P3fN5O8mnKcbdYbs57c72NcnjJA8vx9Pmy+n4/fC8/H59mi3nr2/HH/MN7wuuEecZFMPHchBIy++Dz4v5fne4MOdKpTr7RInv24tSbM7ebtB8H6CJNDpALMTAo5Sp+BekUa33AbmSqAModqklauIAORMrAFQKHlACBQRopN6lkjovt2kIdmFwiBqooSAaZU90zVRxEJocoEVikNeWKXmX7OQPl7cBSsFTbU4yAjBFH8NFHm4iau3VuT5RYZosKSGPQTAo8Kq9OlcAU0kAIGNx2JsCiKiRin/BqFb8gvqgi1IGzFkM1Ys6W7WgF0ov5xWQoOaq3TcAhAoq10gqIyAJFCnz6BI3ACikvlytMSQEaGNpFCEBWTJAG3iw4sMv1IFppYYEYff5tLbQRXgv6DhIDjca02j13XXuC8il2LN+IWoUg5XGwIMBEgJY3/KlMUeFBHQTAIjLpjifJdNgBk1AjTgPKLH3tttjcdXXOkat9YHyjnnUtFpUIAZOY18SPLRsjvvqFhsoQNIyFoatEhmEfCVom+to6nKnaLVXyEG42hsYknw1QLlQAnuG2XsCWPoqdM8fL00OxECa5q3nK8MxEnvyVrqgymRsFAydTz3VF1shqJ1CUgdzNJX/c+f8p7l9/F1vX3b7/bIdX/4/rsN2tKzS8vgL);lineShape=1;strokeColor=default;" vertex="1" parent="1">
          <mxGeometry x="533.1202310659141" y="48.11413061129372" width="11.954327879121593" height="5.633967050453293" as="geometry" />
        </mxCell>
        <mxCell id="28EZDfu7nihR8xJpcDyL-71" value="" style="shape=stencil(rVjLbhsxDPwaXwmK1POcpv8RIE5jNI0Dx339fbk15FqUPXaA3tbroUSRQ2q4K717f354W6+E3/e77df1z83j/nmln1Yim9fn9W6zt6eV3q/07mm7W3/Zbb+/Ph5+vz0syOXp2/bHssKvg12qlPNiJfz78KYQp78vPh/wL5vXE3xsxNHjGeADBf7A+qpUq8MHuYyXTM37L8AfYQp+fcmX8UEplgFvASsAH6i1AR8SFWTAVEaHRKlFaMA6GGgiBkdolNKAj5kEbNBIxvVThiEyRoQBnyPlANd3GWNKIGXmv4z4RE0RvoznrcZB6H9z+EwK/LcU85ixxhSRQSEdOdGEKiJppjgWTTMagpRppVC8QQOsS0zN7RBJQVCz0TT4HUoDBtXTbjl0BWlQ0rGz1NqdPG8QfamZQUGJzpRl2gE0o1aJXfE3mIfWKLhMc39zyaC6KAXY78ygTVwKqBqsfJyBUkDlaQ1uMmgorGViqzUAlLhENXoDmIfom/ZigLgklCaDjPIQfNNb9kRnYN/FLEoCXDLmFFeiAtuMGVRXcYEUu6RTX1IU1kDR1YORBWXaKngyYMSlSHEM61KioC9ZifJU0xWdoUw13fDtZutlb9BwxeUprKh7B+YuiU4yh3qlbeE0gEX6ioFTYUs3RtwoVB37Yk/+pUR4MsW+xP8xsFvfKUNLTQEuZaOra0yt0+vSJVfUGyDloMVfcie5PH9Tp0kLtN7czpNDvNpYCAnCFLucPeJTV+znN+ha8IR7Ataf+tgV9cOTHsbqijsvb1Rv3HXLjepwatxX1Gfo48epugUN5ljrp+oZxieNFNKjTLmAd4pBcCVPvSXY+vC8Ll+l67LzRdYvgKM78Cq38UhG9+38gG3LcbPDw/qaxjvukuzG8dE2BOU4j6cMszuPvwxno3m8NjzqceyHKbvCcU+U4vCI/Vn8KHIcZs7jp/wGqKMM38brWOA1Y8UqYzwVx2fCx56QG/2JsD3P502Qz3M8M9T7c75sJkHlOPEhQ6X80c851/H28O/b0dPm5eXw6en0f/+tyV4dvlPp/R8=);lineShape=1;strokeColor=default;" vertex="1" parent="1">
          <mxGeometry x="685.2369732670652" y="121.10782349075396" width="14.937576516962054" height="24.57034326317705" as="geometry" />
        </mxCell>
        <mxCell id="28EZDfu7nihR8xJpcDyL-72" value="" style="shape=stencil(lVfBchsxCP2avTKSkJB0TtP/yEyceqeunXHcNvn7st1RYogXRbf1mrcgHjzQhHcv+4fn3RTcy+V8+rn7Oz9e9hN+m0KYj/vdeb7w04T3E949nc67H+fT7+Pj+vv5YbFcnn6d/ixfeF1xlcC5BRXc2/omgUv/X3xf7Q/z8do+AWZh7xFyNgDsoAhAcFDJAOQWwDsgQ3IGoIALAoCdkApULwEVajAAFbJMUqTmcwtQZJZSgGqFxB7koclBqCYgRQnI7RNbAJRnyAlC2QZ453Rp1AjRQDBzKKlm8kPcBhROk/KQoRh5zUw1SUA1y5VQl+tCjd8GxNzS/l7fH3m4iUAPsWoXZLjwGQgloAAZXGfwpLOEaDgAr86cgIyOc/rIFaEYPEcg2W81gDdIWBRC0eyAjG4IBElGxJWSjAxF3/r3CmA1aCrg3QggI0QcCakQoB859KKsZSSti2YoDzZvXGZFFV6yQwpQpMh0Kq8EQFWqdmlTadJ+3TwWcaF978v9Sa0bvygB3D8VNcASGe/AV50mS8bCp4hsnbwpxAZvo8LtdH92RoODKFnuzB4WmKHhxvmUBHSmp9OjrTOePTjJV2f+c0HIzuwsGBzt0AaDWr06K1LUA6Szg8WxHY+FSHY9Nt24rRIQ5LgJZsv7BEltkEBGsS3epb2DYiSHuVEKYRdbjLqabT1JHH8asKdPg8COJ5Oufvu8JerJZOeTx1CW9jZfrB0k84NtKmwu/EM3iq49P3xcX57mw2G9/Vz/r687/Gq9KuH9Pw==);lineShape=1;strokeColor=default;" vertex="1" parent="1">
          <mxGeometry x="699.0875578237121" y="125.16666866902813" width="1.8248843525757366" height="16.49158374134163" as="geometry" />
        </mxCell>
        <mxCell id="28EZDfu7nihR8xJpcDyL-73" value="" style="shape=stencil(lVhJchsxDHyNrihu4JBnx/mHqyzHqjiWS7az/D49USiLoKZHvmlBDwigGwBnE29eH+9etpvgXt8O++/bX7v7t8dN/LIJYff8uD3s3vBpE2838eZhf9h+O+zfn++P31/uZsv504/9z/kJv4+4LJOfQcH9Of7gJKR/P3w9mj/tns/MfREXrX1dtg+TxGLt87J9VCmDvV+2T0lcMPaePF+DOBuvJ8/XKtXG66Zl+zxJGezjsv2kMg32btm+RCk23kTirb793ey9FFKvinr1+UmihfDBnc7bAEWCEgdVUu0PFKSQjOJE2QCQY1KyquL7lAYkjeUoiPYeomuHXExq6gFZIlENAP9Jc8qqFyW0AMD3MkgqytKKI/VlSFUcJ4b2HiANmlZvlaylaWkx6L4OGXVgWXKSe67mk/qWANqLAXLKhK0ATH2lpxUPqINhd1yrQ+w9lMwF523QOKQPPEs9l2psmr3cMgZJ10wlWpzUPuhaRFkTLrYHnLWFywi0vV5B6AusC6Ro59TcSEgQKbQsngVR2JG8bRvoPJWQKTkpagFsNsDDWAjPPATbvNHbIiETpqFpGzXxoHOb3mcAmlYwYbKASGJQSG4AZMJvtKFcbNBMEIoVoFpAIaIGoCRbh0zSOgPMkTCUSFp1rEORRKgx917D1iqBeYBG1QImkiUUbsoWQOmdJZUBQNo3yBeHI7FKp2HuAuCYh2EEIa1sm5wlaoKeKFvhwRkPmRYuDfskyJdZDJgf5khJKvOgFwBsd0hTk/y5RJmHzwIwZYspXGxt4TKgDp2Pr90AmDazMkYBMJVeGdQYckaiK6sAAKmn98qyAUDs07qyzkwnfV25MAGQew8rKxkAqZ9xc+MhbWb20Kd1Xit5lswqAP6yXXrOUs8laDBxD+Y+gOWbcakMgz3wzleCLRwuEOySC6p5c8maxDPypdYjTnqgki7DGor7Bums4y1U265y5S1X6V1gvEVrm/JX3tKVDqvxLYC2pffKtwxKJ8/4FkPbKLqcT7t88h6vdiE5tfDL0dpehyWPkCFI6M+O+UGe7hsTP8zZQBvkGNtlYMHcyD3SgTyYY9kjPBsO46lwh1DRScjTh0Rip2KktGVydMAMJHBcsp97D7dqjg8fr/wedk9PxzeG5//bV4T46fh6Md7+BQ==);lineShape=1;strokeColor=default;" vertex="1" parent="1">
          <mxGeometry x="703.148039244473" y="117.06447268428474" width="12.694976780513798" height="31.820654924033192" as="geometry" />
        </mxCell>
        <mxCell id="28EZDfu7nihR8xJpcDyL-74" value="" style="shape=stencil(lVfLctswDPwaXTEk+AB5TtP/yEycWlPXzjhum/x9oWqYiJC8Ht9oCSsQj13AQ3h42z+97gZ2b5fz6efu7/h82Q/h28A8Hve783jR0xAeh/DwcjrvfpxPv4/P8+/Xp8lyOv06/Zm+8D7jUqEkE4rdx/wkEOf/D77P9ofxuLTPFEJn7yOVcB2QHUnuAFwoCgAUmt4tADFADyLkfQdIAgElU44dIAtJvQ6oTMl1AEmUCgBkSqkDFN98bgK8c+R6F/qN4oALLVwfRNWoGQAisQEUEpQmodRXrlaKCRSikq8WUECaRIPuK7fIw7VuqisXAlykQG4VBIMgoqwA2q+AEdqdmW0hEohBAc7EkCEjojZbz7maICA5ysZDbJfcBhRyJobQEr1dh2xZrYCMeiOtCocBJZKk1ZUQ55g8r4JGDBIrZVNaQaWnbjYeMiSEAoKJQSiiGDRL6+ZDHtayURvNt9PKViwnAoFekkC+93CTo1qnlYsCmilpf7MFQMqVJo1LKUOkji2LS7EEaYpM1fRGhup6P0CHWl9qHRHwStHOxYlTQL+jp1A6gI7WAEodXMv65yDVWQw8+Nrm7OeojuSBh0q1XzYY143tyJqWDZCjFRvwMuOo9F3BUFaDZbOH81Nasr/MHeC+56aHzd61+bttX6g6Y+8ByzhZycY0DmzV7oZ9pSx33EenWrXfR/EmT+zvyKeqiuELLpcujdLb4264e3O+aa+HrzX9ZTwc5i1/+d6u9fpo/ksQHv8B);lineShape=1;strokeColor=default;" vertex="1" parent="1">
          <mxGeometry x="700.3074102447611" y="156.31245615156013" width="2.3649322364624368" height="21.107405636335216" as="geometry" />
        </mxCell>
        <mxCell id="28EZDfu7nihR8xJpcDyL-75" value="" style="shape=stencil(lVnLbhxHDPyavRLNfvMsO/8hwHK0iCwZspLYf5+aLHq1zZ4pwbfViDX9IFksck7p7sfj/feHUww/3l5f/nr49/zl7fGUPp1iPD8/Prye3/DrlD6f0t3Xl9eHP19f/n7+cvn7+/1muf369vLP9oafF1yUljdQDL8uD4KE/v+DPy7mT+fnG3NtYmWyTxLTsX3sktJkXyTasX0OYvN+mvRC7M3bm9RwbF+qaJ3sNUhtx4CKf88HVpUaCSAvK0RJSgBNWp8BSQK5o6aSFoCRFVpezpAlkVttXWL1gE7CoqtEt0KRTFboWcIcF1rHK/YBTcLsaIRiI57uJsWtgCfkDBZFdQIgOTKJbcvS5ltCcHeyJatjx1eASWRbQvbMgBTFSPCZ+dBICPhMAX2+pWTU0xpAEPOecqYpjSXqfE1I2sTutUudD1EQfSS+rUmeY6MYd0QZOT8ANY0kPHK1zoeuVazSYKoOYJLZLQVpcSa+SJm4d2lzuLYiyjIICTZvCWnOiKmnEWsDgDRPLOWQQXMw4RWNhGsPg0qvgELJtSFfZk+DF1h8N9Sr+dC4t0z4vlUpc7SCSBojVxS0+QxwJcvRlnzKmYpxvu9zPhgKBPF0XZIa8RuI41CCXE4D0FlVRP2Yb+k9pfYB6vMBZFjItZYuwa3QKFeW4ksQeCQQP5QoUT2gEV4CbbmaBWqLhARylaAeUJmagRorHtDJCsk8CdhVEO0DdCmj74S+jwiitixBDoGalpdrYuQKjdizBxQuKnNbHEFcvalQl0GdxjcAjgUAoFuyJYM6F8bmNdkWrtwP2QEaPUNSLx6Ma+m00DcANJji4rhO2TglSc0DMmEBAOqyQuMr+Gs1Kqa3LXUPyCSWtkNXD2BCdLvWZUvGAOp7pg3AzhB28sFYxpnXPxvP8JzeYTKecWVZgYm+3RRlh94hgT6C5ZBmogckdgYbsXmboizjQJVuS+0jT4foATRFfxtwDeZbADk0xHxZAKyyoyo2Vx8qDT7U3dI9gHWjqOx+hTI2eaQd2iJnWIMMdVIWABPf0D9ebCSqTmpfmE9paED0Fcd8iC6yAmRlWIRrIBnX4On5WqGlmdiANHZEhpaCqvXmh0u90DoNeZ+dWgc9ExJAQ+LECVoKJk7wvjwH39YhkENjx27ghXtjGYdLNLeCDlV3NKjoM81UrmYQOXFeAc0oE65oRl0/gHaXjkIQGvOh0VBXBih+FIKWnW5pGYVsQwHWsi8tCpiKda/bCnPGJS6NAYgOUGl9wKHdwAhiQtlQ4BrMN/OfwoYCOojxCrhu8mgokN0KaVTuo/B23BoDlT89efbWTvNha9nna9VGtwSa8fPQOuY7R8wX5zNooUS2jWKqB7DhYy0+p7cBKqP76PsHTSOl9kuWee2tcaTUPiAPdXQzl2ZDsgx1NEerBi6lbVEC1G8ITTemqLRKw6uuJGY6EVg71+HFXfPgp446RhYH5i7TlHJwWNw1qu+BuZPPgQ5ZlxErDkNoIvjhZKAXGQZvvpsnEgfBT27CmCMemFtz5krM1Vf8QEWLDq65MSdvj74FDnQk9Jsfwz40x4/3725fz09Pl892t//33+nw6PKNL33+Dw==);lineShape=1;strokeColor=default;" vertex="1" parent="1">
          <mxGeometry x="710.3369875560679" y="107.33370613929287" width="35.13718541232606" height="86.5956893971985" as="geometry" />
        </mxCell>
        <mxCell id="28EZDfu7nihR8xJpcDyL-76" value="" style="shape=stencil(lVnZbhsxDPwavxKSqPM5bf8jQJzGaBoHTnr9fWdraGNR6zH6tllrVhSHx1DZ6d3b0/3rfhfc2/vp+G3/6/Dw/rTTT7sQDi9P+9PhHU87/bzTu8fjaf/1dPzx8nD++/V+Wbk8fT/+XL7w+4yLTUpcUMH9Ob9RaeXfiy/n9c+Hl8v1KiUN65MEf329Fgl5WF8lB7I+SAnDeu8lpeuA5XttBETJxKIQpegIqOLJDr5ZQAjilQCyaBkBSZojAJXoRkCTmgnASR5NUpVAaKvSRtY0iycWNXGjQQonkO/D5240KHppjbCgnaQVoJKIRepFx0CNUZSwAAPCGEmRnzkFe+hYKc/Zd5+sANBGQq848WMyJN/DfRuQbWDAyEICo3qpYzaklZltQLaRlFJ39HZk+Mmk0h29DUid1xXQaDa0KmFkOgepJPhakzSeIcNvlaWPs1Rn2ET8ii10TKACvzI3VRt9BcFEYqNla1INve5sA0IvpCsgSyNE1Cp1BDTXudwGaI+1FaDdDdvhOjG3kE+8VHzPlxVQRMkZcrTxDUezHRIiwewAKklhiohmZwGFFaYqpVlAJWdAu4mmxX3E4zaiiKvTFuQQPkmdAIk1lCgtWoBjTTHaHgciIolvAMJEdeEAUzcAcMyvSbwhIndPX+vTYawbCFdWBcBDrBaQGQ9IuSkhMlMzrkuRC0Al8R187/sXhw6kbCzaxVlAYZ069AS74CESL20Aau97V03yFlDZGaAFphxllWxx65xALONq7zgXAKZnEBppqjONJRBoShZAYynZjgJAIKGxJNDk1sx0a5x2KPwMKALZAm6Y1MwO0B+MB0R/sgDHeXBTAjHFBKa1WUBmZwBgLgIEgAZhC1miEwp0aprOEAlx0Hhl2oGVSggqI0RbFE8kVi5To+YDR9FpB9970jag9AZ1oU6YvofUNRMEBE5gcib2yXYFpJ6D2wA0qJFp7FkI0xVVyKjEQoea5YhjqYTfMtOhztYlzBQs4wAwbs2FewltfNwBwcIGcMhUo74Tpk3GtFoeINIY07DYlBnMKI4kUGp2MEtKm2KcRvxlMCNlRictndYWs92Bph1ipbV1aezNAli0erUz/iJl6Z2AaUAx0elVrYDDxB7J9529+Yl83JhmMuXJ461U0kizU20UqadlOFvNELjCbVZNhkgHYx+s5vaNDnCL/DSATPMALkrmbizQK5DlnsqUSDqDqrMSI9FrIkXejt9Xag8ixuhnT3MAnbONHCMriUeRIWac5INYnPT8jfVTIeL2oIiYnubowI0qpWrWMw2J9aZ9+FtXYmYY9nSMxHod7Q90isR6M7LxXrPYb3KeNwJv7VE6EcL/JmHW6+6r/P7X7fnN9Xj4uKp/PDw/n2/6L3+3V/t4df63gH7+Cw==);lineShape=1;strokeColor=default;" vertex="1" parent="1">
          <mxGeometry x="28.813392503553587" y="151.25239318366084" width="18.99961886871415" height="36.541028707874375" as="geometry" />
        </mxCell>
        <mxCell id="28EZDfu7nihR8xJpcDyL-77" value="" style="shape=stencil(rVfZbttADPwavRK75F58TtP/CBCnFurageP0+PtSFdbVrqQJCvRNB0dcHjOkBnl4Oz69HgZ2b7fr5evhx/h8Ow7yaWAez8fDdbzZ1SCPgzy8XK6HL9fL+/l5vn99miynq2+X79MXfs44jsRpQrH7NT/xpPrnwefZ/jSeF/ZSSGJjX8jFfftQyHffz+TcPiAmitIA7Iix7ANSJBcagAQKYR+QhVLrIQgF2QcUJtEGED0GaJ/UqBRBVjVQabOaMgUPAJlyC8iBUt4HeOdq2iticpqACwuizataaUDl7LWWFpBJkQdLe5sm8+lB1JbXrtQGKAgQiNugF3nYbg6tvbNwkUCDZyNQWwkt8EyZyeU+TRF5cBuFcAwYoaTdkQIJaI7siVtGKFNGAFl58JUj24Bcc3IHOBLAauNc4FZntHJkG5BJ3AoAZMBOrLw6EmrXSIVXQYMjWSPEskorKJy1mq44KkgGrDc7BkVSUDhrtbLiaEQeQi80FhVqDUtiH7RWvd0unKW1bb6POFrcSmi0fmO7+1Il2FJo0IjgOgQXUTtEakepAyRIauNo6VQg1H78T4BC2sqGSRWqnI0cadNqPiMCGEfboO2JAypgsz23DIoBimvI9cT3UZ2gktl60nmQDJcBVspt0LbQJKACth/5Nq3s6pDZnryh7yUvcKHhfgHKcOwaGVplxVPa1XXtXgIo3KutIdRxt2PeqYWQB8Rk4ra8DOd/6PcFXyfjNin74e9g3r3Jv3T2HnSClTHlzh7J1rT4cv99QODptfbnB9nhlWh5KHL/uvp/bG8Xf/8zXsbTaf5NWb7v/0vs0fxPI4+/AQ==);lineShape=1;strokeColor=default;" vertex="1" parent="1">
          <mxGeometry x="45.2183971824511" y="157.21418980357976" width="5.626055530075291" height="16.569163367394935" as="geometry" />
        </mxCell>
        <mxCell id="28EZDfu7nihR8xJpcDyL-78" value="" style="shape=stencil(lVbZctswDPwavWJIgBeec/xHZuLUmjp2xnF6/H2haqSEZLW132QaSxJY7IKD3L3vn952A7v3y/n0ffdzfL7sB7kfmMfjfnceL/Y1yMMgdy+n8+7b+fRxfJ5/vz1NkdPX6+nHtMOvGZdJ4gRi93teEEfq/q48zvGH8fgl3isVrgGeQtoG2H7etwDHAKAUcnslKduAUChIBWClLNuAmIk7gAeAFEnrKnGhBKpUlLiuEhPn7Xj1lFMV78iB/TWQ1Pt7iig+UQpVvC0ADrS0HPhABR2g7QEciT3oI7dmuNKcKEd4RKxZM+LREZYE10nEAhvJqiQ1CyktPP4bIKRaAbKjopDnUPOWPZRbKaS1epK1KpBbSUvrrwAmDQAQydc8RMFXCuTrpAMvZdgEdA4g6ErWa43czEQAcZa01N3nHSUE6CxDqAAD0NUUP/WJMrDGCKWJj6gvYktzoIj2z6T1/b05CDpASRrLM8dAjqSkjQszFdB4Bsh1yiEsRdiSZ27kiS3DknaNPGUpw5ZLNrPKxJORnm8FTIOh8UmHnbufPbrOuyunmxWuAEA/PycjRAO3m9BW6QiY698ABvDAurtHhsVnVKTl+DU+wYEurXpMfwUkwBRqu7B5LejRQ1w3XhE4zl1LWU7kgZy7UZjKItcr491t94lWAcBXl2+Iy3vjunoKrmfHlwQos64fbIAgCdz6qP1/vH18vqBfxsNhfoB//b99cdvS/FqXhz8=);lineShape=1;strokeColor=default;" vertex="1" parent="1">
          <mxGeometry x="42.152961062645545" y="161.35742314644745" width="11.527293988935753" height="2.554508016632667" as="geometry" />
        </mxCell>
        <mxCell id="28EZDfu7nihR8xJpcDyL-79" value="" style="shape=stencil(lVjZctswDPwav2JI8MRzmv5HZuI0nqZxxnF6/H2heqgYkLRp3mRZS2KBxUHu0s3r493Lfsfh9Xw6ft//OtyfH3fpy4758Py4Px3O+rRLt7t083A87b+djm/P95ffL3fTl9PTj+PPaYXfF1xtFNOE4vDn8iZ3KvXfm68XwNPh+QrQAgUHCJQaADAVNoCUKAsAZOrZALgRFwAo1IMBxEq5bwOUNNsdYoCAwhQth8hjiVVATsTRAjIx2CGpE8WS5rHEKkD/jt26lSmlbUAUSsUCOgXAITYSF2khDhBQrVtLGUusAzq1ZgBVSQNpcKRaLUDVCqTBKgQrjZaoA5NypG5N6kwBkC4KsG7tBUpDKbqM6w1KQ9QAK74u1EGKSqZqtSSBmAGg+ZyWSAHktHSfcWpkQjvIApCG37YAYt0qBVYNBbD10sQKcVC12gRSVhlIQw0ojoNQRqSZJHqAAGlomFxOfwBQ5RRZmASqhmozxwVpwKFrmPrCrUB8Cog2RafAgTgoIDmT0mgA64A8pHYtPkS6UnBeipiD+sQWsimBwA66XrQcPkpRpch+B1SMpVIKHtAQoI+ickW6o3yQ0fev4oByOoYwKuOMyFjfMor1DKhw2JhI2GqsbwIKRF2wForIpLQoTDJCsxXqYHe48sMmQj6FKHVhVKWGulYiqT4SSOFJG6lzbIDVkoNPOk1DJKcYfSRaHwV3nTQFq40W4VwZfWevaWTt6vcLsepwgny6qMU6GFdgT/CzjI4SFY0mo9nM45gmD2hwZaw2D4h9tPmN9ByFfQZolUKA5VRchtbXGcwOnEVEGYmuUrUhyLBu5znXZ4NgyasqGJsFOM3a7PD37zv4fmqe3v6GS0VZHDMaGnp45SAjeMJwIuU0hsWtCaNbl2rMCur/fRy9ZpmqEPGE4YbPzPD0Ng0MVkUFH8Z0IC+Wg87gFcUtjgFkBjAGhFE8Z0CCo6GWNqe8kmEcWl2YlMfxbEurnnSGk9507O4eENE5PXjxKWlU8Kr45qxuRcc9Pau51qmBQyVPz+lu6FFpCAhc1XRxRVtgkf/09cd/APTh/bbl4fD0dLmsuf7f387oq8vNTrr9Cw==);lineShape=1;strokeColor=default;" vertex="1" parent="1">
          <mxGeometry x="53.08947750531411" y="157.32347521296083" width="10.529197926363395" height="17.521859080408603" as="geometry" />
        </mxCell>
        <mxCell id="28EZDfu7nihR8xJpcDyL-80" value="" style="shape=stencil(7VrJcls3EPwaXlHYl7Pj/IerLEeqKJJLlrP8fRphASQafM3yLQffKOo1AczS0zN4p/Dh2+Onrw8nb7+9v73+/vDX0+f3x1P45eT908vjw9vTOz6dwsdT+PDl9e3ht7fX7y+fz39//dSf7J/+eP2z/8LfZ5yzJvmO8vaf8ze+GN/+++bXM+D56eUakIyzCyA4E5wANBPaCkgm2WOA9yauW4pWruCjyeuWYjJZARJvKTnjvQQkAmRT9Qq1LIDsxiZvA/LYwATgDEkAisl1BVRTsgA0k/ICKNhSPAYEx2Yt0TRx6BB4S6WaIMyKQChpAVRnShGAMqw+Acl4YaXQTF0dV6vx9RgQvbHroZszTmwpBuPiCojy0DEaSwCdcVihbYAmYgmAGFZANVGt4E0iQDNWnWGm/BUgiuDrfthWKMIPoRpXGdDUCtnENZactcOXtxHRlMhLVGEmxLfLDLiTQaUxwKtDWFNWFoDnpJlwRMcAr4gJO6YtFcmVAbFBjggagPAns1qTtef8ukItg5+PWMCvOQrakI6bCTaJKWtiKiOaJ8APzxwS0xrfYOOgmYwyKCNrFWAS3SxBmsngOCrUKZiiQqMybcSZtUdFLq6ejlmygA+mrmbt7KmKXOAzQAo4VUYdlyAY2ooVoE7aemhkeRGHdtVYAmh14rKx65ZQ65VZobDs6mmYIakVokkEsNIPAPhVnbgyfuIIQH7AN0X4waFm0QpIURGtAFSiGWPVEdIoUDN/RsE4chuJmaBDFRKRyokJKtviyN7xvB3ZdFRyCz+vMiFZLiV2yIjbz1cubroY5szKCvsXz4NxOUilfUDpaT0v+ghhn+a51hapPdtU/FcBl9QC+L3VoD2kBAGjdJPQQ0xF4YIuDtaQQwwlUUS6/CBAvLcCqVtYKQivdQ21ngHk5fSW2uoGlJWmt9SIgNOIxEMAtYdVc9FF1s2igNwUuQxJRMUZGtyrUwcWSbFJRYLoJvbqtValQ+SigIZS5VspHEzZjlJ3m2CyaUSQUTNSZBmWp5I7agKomkPCNN2MUa0FQIUrIiFTF+21SKpbF42UUwq9DgF/bValbhs39kk3MrBSqQxQKQc/UOfTuVwBQN2eAVkB0Ks5BqhpRnKcDziDalkR/TTCybNRuQ2INwBKLwBAbQk8XcWh0yYwEEtK6CXPVkK0KvpOdpP0yHLVdhfm+56iqrFPXILuAbzJgQFO+AHyOtnt0CqBGpNx9nqEUzeamTxyBGA/2EFtR1sKhQFKKyFFmYybHuEEbnFTlZIejiPmu5eiPwro+o14KctOqTe01E86SWQFKb91e6rrrmEDBMkadZsc3JECHbCeoauTO4DVrF0waYDbNJyiyuq5KKL/i8JxpfIww9lBC7c93Ubndel8JC3VIZwvyluGXhyN1+V5xZPBbUw8TnQ0ZqA5tO70/Jb/6D3VPAmAQA23lVO3vqM1d9Acyi21MRKegKQpyY3WYgKajArEMSn7Htl66kYzgJB1w5q44evSRm0pj+uFmc5JpjN+z68rxOn6o2pFvQNqsJpYgYAoFVKR1QolmgtokPUwuU016LkeduxXhil3ZQaRXp9NCiv1FVapVJoc+QJAM2KQ1J1DU0bXKTyOzErNd62616jDJpMDnLy8+nlpMgA/L002wP/v0uQGIA+5dQTg+Pa6ZhUm19pkL90HmmsJqlkm9WXofEUbynF+6xJBTE7NcLdpVNFSw1WWbyBX1f9Ae9H4CurJqxXy6NgmIMkxCwB+v+hX4ytYfXuVQBGTS8wz4Oeoh/XEM6iTKryd45yO+s67blNEdAKqwTJ1k+mqR7SjAE61VGVcWL4L8PpqbBsg+iJFveXrwztdg2XRAEncVNSx/bukF/v3LN3wvMr9rXj2yxKlSViS4Hmlh/OI+OvfF/Ys29h6ZtFRvG3Py9n+DfvLy6cffgnqPgAfLu9cfXl6fj6/snX9f35HC1+d3+8KH/8F);lineShape=1;strokeColor=default;" vertex="1" parent="1">
          <mxGeometry x="67.31020672207251" y="150.00787753536179" width="12.683084868670676" height="35.67581447251018" as="geometry" />
        </mxCell>
        <mxCell id="28EZDfu7nihR8xJpcDyL-81" value="" style="shape=stencil(lVjJctswDP0aXTFcQfKcpv+RmTi1p26ccZwuf1+oKlMBch+dmyzjCdvDQk7x7nX/8LKbgnu9nE9fdz8Oj5f9FD9NIRye97vz4SJPU7yf4t3T6bz7cj69PT8uv18eZsn56dvp+/yFnwsuMbU4o4L7tbwJlPKfF58X+ePheS2fqFUl7x3FBgCRMmtAoewAIFA2FiUKDDX4pAGNUoE+RK0hipHI6UzZa0Ahj0xiyjpKyfUwXAdITIIGRKrIh0pROy2f8MiHRi4rQHaUPARw0YBIDHyQ7wWnAUIuoEEArKnBjjxwOntyBhApBQhIOnHM3av/AYr2gRs1rKFpk0rEPjA5Tb7SKAANXKhqatRMCeSh5c6cDpA3HmhordfXO0CMBD4IoOkoNSEfqGn5u2inW8WAYNuMABpwurJtAmIkAw2l2MY3ewUKSIhg6D0DQJSEzLVtTEIFJCW/8cGhmq5UvY1SQDXNFA2gQPIJgA1AAo3avbhoEpehhpw3YU2wplnmgwkrbpXFdzKvABwBoFFhCyjApCr0TtaHv3S8Tu/Ug7gCVGCS5DUFG9YCNHjnyJm4MhVAJlFR9ICYqxZ1gWQbk3yCATdq7RW54jdKdXWbRDSc6kBe03UVh+tsep/8axUAIHxtm6oOFQBc5/8qTBmPxY8BPFs2STdEYWq2bVSJAiBTIqfpLYnxwKAN9QrDPG8cHsxQ19e7G4e06zy+cQvwlkWDNcPb9XCwx/g+N25clEJfmG/cxGIf9zeuepu5M9ol7d42WFazrfvBNsx28xys27Ih6Roe7PPN8nlwYJCZZuTxiUT6nI7/4MhT7AgcnKlkZBp74Jkt2/B4qjCaHI14BMaLrUl3H9fby3V5iV028rC4ql3JHZytwmZz9sITIGymEpYXbiX7fWRP3Cya2N/k+xC9LZ5yms2aDThf8w5o84vo8OEbgqG8PPy7jng6HI/Lbcb6f3t9Ia+Wq494/xs=);lineShape=1;strokeColor=default;" vertex="1" parent="1">
          <mxGeometry x="89.05039112079567" y="134.24679099944922" width="3.6401343231937062" height="30.77160503632217" as="geometry" />
        </mxCell>
        <mxCell id="28EZDfu7nihR8xJpcDyL-84" value="" style="endArrow=none;html=1;rounded=0;exitX=0.5;exitY=0;exitDx=0;exitDy=0;entryX=0.5;entryY=1;entryDx=0;entryDy=0;" edge="1" parent="1" source="28EZDfu7nihR8xJpcDyL-5" target="28EZDfu7nihR8xJpcDyL-5">
          <mxGeometry width="50" height="50" relative="1" as="geometry">
            <mxPoint x="400" y="340" as="sourcePoint" />
            <mxPoint x="450" y="290" as="targetPoint" />
          </mxGeometry>
        </mxCell>
        <mxCell id="28EZDfu7nihR8xJpcDyL-86" value="" style="shape=stencil(7Zzbjh25DUW/pl8LKt31PJn8xwDjiY049sDj3P4+VBo6XbVZZxX6LQH85ov2KYmiyE2K1Ev66Y+Pv/z+4SWGP75/+/rXD//89Ov3jy/pTy8xfvry8cO3T9/tTy/p55f0029fv334y7evf//y6+vff/9ljpx/+tvXf8xf+NcrLmxhn6AY/v36D7lse/rvv/z5dfznT19O42M9j9+3Vml8yafxqW0dx/dxHp+2kJ+P37fYT+Nj33Kn8eU8/5i3Nmh8O8/H/iVHGj/O4/exhfB8fNz2eB7ftn2n8VHGly3j+HTe3z1tDeQTtxzO4x8rejJe5LmHbS80vp31wbYLh490Gl630Z4PN11pZ+3cKiw2bek8mX3rMJm0fmwND2sxl8PztmcZHkFzskrSjiYclLwNNxz0rGyp6WRgeF1K+CaZCFpWdVdN7WDuTX89oc63renwAXI3jVIlaLCrfevn4QUVeGz1PJm6LOKT4aPJ8EHmKWypnMY3nLyNb2ed7Fsh82T7eP79sSUe34KMpyOyR/UPNsMKimYAMbD2yUQGOTmLZjaURJqWwzkAcA/yls9GZ/4EraFsQYyy2R2SatmqTMmsOHk5UzKREqud/fcQO97QnNh/l7Oi7n3Zr2tAV00yT5dISmNN4GEkAuv20I2b3o98UVCxxoRkY7KB86Lt8FfwL9M9Ct0wuZE7Tcp/7AAV4gN50amHsTMHDLpkMx7nfUgZd9pmHMWc1i0B5ZsG9XweUkcONJcoXxjLW107VscSjVWSLplMZEo5boE8fVxG/QCo4HMMIIY1RyROxlOjB4C2GkCorgHIzCTHEO4AZXnhI4DokxmVpgBSPiPzQl8ngChUXyzlCCCx9q35KRFgLEJ5BBBNC2q9b6RkgPyujTPAcF9oRAV3JaZTW4kM7msCRwB9IV59gdYQlchMAFiNnNSQzUUTICuzmmKlNTgvOgGgGrle7AOpd+5bkjOdkGsUHx6bA4BFF2+X0vLc1wAz7gLIyPhKcYasrJj/GtBWwH0AUBRVjCiI8lX0D2W4E9eWPb8OL4JbNEfV1WjueQ1lX9+8BsTFvx6AtH7iGuCCQRM0ud2a15F/AOpyk9eAso7LA9CWA7gG1EXNH4C+VfBAtes+TEHDTtehbrfuOKUWlIaa3HbYuBa3cl6Dya2CQ2lZPZCJgULVVrZytt61oWNvjkqbGHbQpdbUzJgYiEo3C0HPlq+xtraxjMoBUGCne1AmYIImgtXdAWqJAWbIzv5h7gyoRk+aHjEAOXYDCNGdW0mBfdasRCu4070sF/gAVExM9KouywCNAG3rMqWG6bs+nFg7inUEpxp9hfDXAJfhNMAAYzyiW4MZYwIkJScTAARrPKLnIwDUeziie/eFqi7LAJEBYu4NQHnv0XTj7Axm2gcXgNsZJDMzXABuZxDX0JUvdWbGY+gR7Zx5M0A5b5ydQWLGBhDbakcKd3qoETBAonTdWEblACCHsoegIUq/y9l5RFtJqqeTagogMj0BSQHEXA0gWc1+YzeGHlIDUFbAAJKV7R1JnAFqcgCeknCBCWBtym7ReCKG3nYYgEicHaEhi64Y7xpAYnZzMriGrgFB5zSC2Y3qbB8puAGC96O06Lq26cA2Oql30TNnTJPoySiO9VXW1rJuLw40EaeU1X7XyF4uaw7LAHgeskrJAER1h0szG5nuZF3ziqqO7Jt2+gqA5yFrFGQBAd3+TUBXAN2JTbG6LxQGCCczAN0PTEBzAFaN5qZEaWYD9Oi+wGvoTkpo+fJyswdApS/YeRBdSphhGkUtn4Wb6KnLynMfwia6aDeASqnj3a2ZGbVLAVO0BhCrMWMU/sJwAQFSrLYux44BARtjpboN79fM3Mu9bONbFANI1thoIhqyoZetRuIo72AASWSby8LzMFRKvbFYH2x+ASxquWGukjuxqIVStJMbn9dgQQha7+a+YIeWASLWGVOQMa56gKZ20Zl2d/BTWegLZfn9B2BgOseWmOSiM3AVgSFi1E8g/3Hpmckb2QVJ9nGSNLKVScnGuIn9kpLvGRjRRvgvdCyeuFhDu2MnKqWGt4QX+3ATcbitNsD7qMD8Avus4gBI+ly+f9zENFmZ7rgJUa4AlACaAJHSuNtpCdpn0HIjVqetN6QvuS9QNDpVo74TsDuzcTOl4L5Al+ATEJxYSVuvjihu3BXghpIFr3ysS+qzbtV79/aeD1B0X7g5ou8EPEoFDz7rJi6T3OAkaeyzJG1sP4H5nKq3hDNbyJRMPXtkOtPcF3a8/3rzsoekQKc1dA0VJ//hpIDsgzGswIDoOBzVqYxH1diBJd5kH8Xc94Cp78mlXZ4ZA4i6wrYDNUZdcoUt7SaZWHTRFg9gRqpoqcBMbPB50FuR29hSy/+4PHkGoxJm3RxRHx/nVZ7wI7HxI7GhgP+/xIa43brzlIomXGtaWeGnZka09SYpULUopN4k76tKqd3oUtMjapaPquR90rjdhIpdy3rNP9zcWOySvE8cofjUeubA78dV0APw4yrIA/7nroLczbztAxVtzMydLPrmkqO7KRXsIDFAkC9wbdi8OzobfDvVmPWq2t50d+dc3f3XjWuv2sJjRBQzTO7u3wBU9eTzDj1gcaWvX+g3Tiu6neYmiFmD4RaN1tWVoPaA/QDdZYFn/QKoRm9KRBun77vPxvOJM2WW3IkFBFRnOB3IrgCKqKcydwUQczWAZDZaxfLN/qg6fwAKFwDt6kdnUEPNTEFLslvCItfm6p8b16w2l1yfRXhUrtaUJlrYRAfIhKi3InyATIii3nUgczUhaiVjw2JjW6IGNXXZ82tA0FRIzXg7ZTNO7koOiyub1hbMKIgAVePdye+5olTMfeELAlui1EqWhmFTde0uhQ9QjareJaMumUzkxJWI/N6WKGItgQGuxiN39EDFldFmllKpSkQzJ+6Ky2zkiiSxuPOQ+XZq1qFLQw0XhcxKd1clTuRk1tJLaXzm4ntfrZ+5gcD3A3DIcdFxwJd+Fz0NN2vwXRMFSeJFXwanBi86PwpWY170lmTU1ovulZtF+/6YjE2jFx04mXutfI9PRrd70UWUMYF60ad0A/CdUBlp6EWvVUZGNru5/KKpqy4rI8sZc+sXHWn8OMLsefMnjjrSXPv/TfeKAbSjP6OPS169Ezf6Bc0l3nRzzY5pmdLObxh0lVIaWL0QXQdO4haF6Hp8TFlIrNHdWyYunYlJF22CxnctonuYY3Bb6q5ptbdG1WtAUApnYqAkwj4u2oMppNn7RQMyMWMDSAlTfPTbXwOaOsWbdxn2qjGQreqmEVwq3W2SdD8wO9HP+2CTpGzl7rLGs9Wc1uCKF2YzO0kpabrIJkl3fgaQfdj5DYjdtR3tGf20AeSIzncJCLCrU5wvH5CUgj7wMd85oEUHTXnNlxT4aQqZUeBrfFevwbc67ioYm6C63m70VdL4ZLiGxTiZpjnQhu8tNBVlwyvjpk6qovWtyl4KXmkURzqRERZtC0loIFyvDTfoJdXKhHlYR5j5biW5Ky58vyFp4SGXiiWNcXa+BIwapk0zgW856UMjGTc2aoOnmTXyR1Gj8Z0TZlGZjfkKukuOq7b14L3wsRfVhTfdezK+yu8PPFa7bm/iytWgBi3xvUVQ+eeIRyVod9NbxPlkvMZBBcsLHKHJfAMWtIwksx91bwvZeCJ9QeuLbvq6gxah346XG5TMF3hBc9hzvbi/wcsT9yu4HAi/VeffzqNHF9zdYC438n/v23x34+0Pbw8B/vbp8+fXdwSP/68PB9o/vT46mH7+Dw==);lineShape=1;strokeColor=#0000FF;" vertex="1" parent="1">
          <mxGeometry x="254.34061361497925" y="181.04809668908638" width="250.12324782914675" height="63.78158651866306" as="geometry" />
        </mxCell>
        <mxCell id="28EZDfu7nihR8xJpcDyL-87" value="" style="shape=stencil(7Vvbbh03DPwavwq6UtJz2v5HgDiN0TQOnPT29yVraLMa7pmDPBbIm+PseCWRHA0v+1DefPnw9vPjQ45fvr48//b419O7rx8eyk8POT99+vD48vRVf3ooPz+UN++fXx5/fXn+49O7139/fmtP2k+/P/9pf+HvV1wMLRoox3+OX+T/fvHL6+Mfnz5tj8+2PV5DHrcfT6GV7fERSr39eA5pX0zKYST2/IDne0jt9vMlFNme1/0IWX4JM+/PlzDI6dTQ9+1mXY/cfr7h8yWGQdbTQ0z78y2Ufvt5PW34+zN08vwMDaxbQif7TeoscwdIGMQAKYUCb5ghRgqYu8laXId2Dcih7mfU0vKSW4Cx76GVkIjTpeLeUENlm64h9R0gIRK3SC3U3e/aCJXEjbn92ACS+B6mA+giWWSmkPc9iDrjJICyIn0Belzeew1oawEHIIfJlqQL2E+ptzAYYCBd9BE6o4uIlh56DMT5SlrhewBKaGRJpYQIBNlWhNwCTHiDrAi5BignAWCEzAAtyB4PY65juAZI6Dtg8jukdIzpmUIlIaqsBTw2cxDGw7oAeENZ1HYNUJqBN9TQCFMqMbY9HiZ3vqoxDW+QZZlrQMe7c/Yg5JSUSQU2PfjtkzAeFFBITCsxTgeoDNCcpcfa1TVgYEwbgBhOlFS62wMDqKUnAhgZS1k32skOzL1FLb1HnFpaiC+JuFNq6066BugWwQ6VUqVoBLt4mGQPytWSEcBOqacgO1VqiLL7QckdQzSFSAzXCypVpZnExFLFG0iJLJMA0usjAxnzAOqy/t4B4Jdi76Hsx6p0L4Rb9YKqu/PphcIs3VXCAd2rqCZLGtEB4mKqa4By9R5xukjGfLqAvEecHgPTGrrFDEqgLQV1DVBL786nzsLuOD31vG9a/ZduWi29G05DiqlKu5V3w2nQCtu0kvvufCqwGJENJ+6VRxLbw0T3Vs3H9qDxBe4thSoBjeC0x7RkeqEYRzjdyjY9j3zwAMR1bteAsrj6BIiENWZFGdomvXYVAIZTAEtyFYAJh1qGHauSe/8uQAvR7SGzvK+tbOG8B2a45lKaSe9pBUAAKaCTEDUABFCkmaIBBAH5zpLcG9qdNzhfYrmoPyUFMPb2driTx3lLC89QvC8ZgFm6Yk3GQpQtySljA7BNF9R8BmCukVEZ2ymxmE5YZ5GjcHELUFw8TBZAEZVxO3KWWwCf4rNNK3tjIeQQE7cADUhAuBJw90OrNEMZLi1red16twDIfIkCZkTDGYDZIS2lfVpSu+NL+w2kSQ6NhxLKwFNidQ0NIHBvKxfxGwgCSAGDU2WCNzQqdBXQKwLoKcnKz0+Aydy7Y1qmzlfYkjpWHRQgzDWG81ZZmd0tQIdT6pwEJgpdDdHO9nAUV08kwPK4FI8r7SSYJn/FdBqOOtPEgFCVSP17ukLfWLa8da4DljRpkdwsB/lAotJYfWM4ec/K3uquEKOacbA0SwGwaQVQaSyrz3AGMDsIFvoMwLXDdADhLDAqAu5ouO7yMpaBGwBOiRc2Lt5wx/ka1lp6o9VNOyWXKtIYlbXFE4AKV0ENZwDm3uLcm+f45q0OwLpexsaCx0pVooSWEFB5AHkA6+vYklzEZX5KUFrvnVYG7ZQcgBXv56F2zhHHNx09CdxxPnFL4jE93BtY/dQAEQGsEnIZopTIGrYHzDWY4RrSfRd+P+gpgeEalZXfD+iuXpS4pTtKgTu9KSukQ52CN1Gsau2uXdYI0msXnE8O3XgLgEvKtPxj97QrnVAyHk7DzXXQt44Vheu4xxqY0wyuZgTrdgpI3Fuhjq2ij5YdKvbXLM1ivlRdN1h4jl+QBBRASaCsYs9ZfLMlZSwaN95U1KwJavGtUuFqeVlGAJVwcdXFTwBWWrf82O2BFY1nxNarpbvMNZLzJeHJaHIpSqddSLUDtGnMvZnhXCVEI46SgKu1GIDtwVVzDMCT0R/Fyh/Fyv9PsRKPNXHXKK7rkriqzK6vk7kiyyhOFEB9ydUerQN9p5QIRYRKATbPAUsSerEPr2b6KptdAzqyhgw6SDY6do5MkTGA4B5U8zEZOppLaTJNXkfFKnOvNPEbZV3jJ2Vc2CllrND2OzVgdwONuPj8GhAxf/j2Jy4BfbppoUJpph9dzQPQqDK2NA+WxPWSHSK0wAcdt9NsAfJpK4UTw5ld3WQBG/7pjjVMQTGAhrybjmBZVj9Y6AAUKh26U2QmTNnQiRsUUHpm/QSNYKAZS8nZ4ExHup+8YyENx08t7yLOZ8ToZnlYuUipFwZoNY1q5MoSp1sn7/v7AaZTkfca4Wek5spBrgF+15NGUEtuQG/yWbXppn94D7x2LJVbPsun4YozNVOJtbgJpk4FU01Yp7C6Apu3cxmHyQ82KDkxL5s8ZS9HOenEAqxSXo4WyIlnJhvFdJecZWqEBYrrNRlXsk0XLDDZOCkbWM1oB+V7VscuaY3kH4BKqwgloh3sYiWAPHBqXe9JNtyWxTUgOm045+qK9/w7iVzc8DMfic3J1Yv4KGYaTkvznl9yxRllT3bJpYY9EWuas8l7XwnpfEk+P278DRlv9nuj+tnVvO58DJDc9E+69wUENCAaH0hKEXtTyra0R4iJX62r3XstErEHqUzIyq2CY8ZFaHWpYTOuJJqeVPeRDh/QLch5+hdo+GPLKPOZs4zrT7xzl/B81G1ZDppwBm7Qeypip4WzY3R6hFbFXEM60j7/xeOsxhBRfkVaFI8oICMVnBEPMlJJEVe5/NvjTGxGbCfF1dG98TjUa7gKjDgYzNPfuGrSp8eJi0X89iDS+ZCIai7SAPnuTwjvPK4/fPta8f3Tx4+vHzue/x+/btRfvX4ZWX7+Fw==);lineShape=1;strokeColor=#0000FF;" vertex="1" parent="1">
          <mxGeometry x="279.43754007451844" y="237.43398501781894" width="219.26329036290372" height="69.05680133492615" as="geometry" />
        </mxCell>
        <mxCell id="28EZDfu7nihR8xJpcDyL-88" value="" style="shape=stencil(7VnLTlwxDP2a2Vp5O1lT+h9IDGVUyiCgr7+v01EuN/bcM3RZid2U+tz4eWwnu3j1cn/ztN8F9/L6fPy6/3m4fb3fxU+7EA6P9/vnw6v82sXrXby6Oz7vvzwfvz/env79dNMl+69vxx/9C79OuEApdVBwv09/cOTc3z98Pok/HB5X4pV8VOI+bIv7SLUq+YDkGxWtTgTqhEwpaHnelo+O2izvySUgn6lUJd+AfJLjZ/0jMZJPxH6Sz1SB/qlScZO8BCRvy+dAfpb3nhI4ICeqCpApVAAoxDwBJAQ5AgBTmE0OTBEBCoUy+zSRa9iGGdDDgr1U2gwoVEGaZsni2Wj5RPYgbkw85113A3BrEq/PcSh+VOp5wKLAAkgwVaOolCcAe2IQB/F6nL3EebDBeYCnOBvNFcZBEqHOKlX5RAGANJJ5AUhqAJWkfP1cn7VQBid4HomwABo5xGCJ8gxoEjh0gtf10IQ0QXozNSVfKILcK0PfRb4OUjuf3KMaF/lGHhggBrOWj+D7UTNMl0dpRK5oeQfslY7mtL2ocrxOusZUUMB0xxT/M9DH60pueTS5DXmVom1Jqa3vK/9ESlAfHa8A4xVGRa0TGsoXJe9Gi9jIT22vGxHcKhjVMzsA0Ip0MEWNUsMNZZAbQ8EKgMYcsUFRY63QR8KlVZ3AeFCIo12sABn1NE/FGwDq/HW0ixWggBN6fzEnFOBWXma5FSAhppPpLmoAGu9Y4to0IACVqpCROQHRe1dgrjZpIBWwl5CJmlAFUIANwlYhmxMAHwmgmdRAhCf8mZUNdXTqLYCOdBuROV9xbtkiVjWKkkmOUH1WWKZiI1TJCY1VUHLiJjXvCE/CQLD2qxAxmncEYJnbg/zujTtpldD4/9Y5VgCPjM5GpQALQjSurOPgUOAMQHIDFoRRSbIPxsEY3bkSNAjr1gtFbQPXaxQFzqSGABjXqEq+C8Rk01u8hBZzW0B9UEVjxtkaDbjk9OTpYeO1RCPZh6ZtS2V9lkEn1KHxquQuhFrRsQBgIP4VYDtEVwnYYHvQBRawXa4zGWCB3kcNbaCR0nbqHgcA6LOAsQEu9ecijVa9Ps8YQAEqycSUbBzACTGPNWoFQI1XNjG9mRS46slcqb1U4brqi9kN29gmtmZjxZWrMv/YDncf2+H/th3mcb+56oOoSdXRLxb5DMeRvk0qAKY62SaduaRCGeerLhmulMF00WMwUx0XWGNSZPoqDzcEYS6es4Ilr4ANMY473eV2McOrvCi8MudR8fBKNQk3zoWQM7yO7BvxbEMOcOBJeSTmcstbRzFtXdqqFbqfCbg0NT0r9EtW1AW9viyUyKABKTt9byA9BQ3PqegHA5/GE8iWW/WLQYDZGpu+LPEOMoz0Wae2SXyA005iyHj2TUj2Z1Sf5s2pwPHLvmkVami+009mDMdB8yAnywnSRvcnHoW3Ia4GO7y3uOG5N/EAvu605zMc0ZzuZXjeMvsKHvWNeIRPZUaZAG/VjakeXscZRy50974w4ZIySeBGEb8vxfCIeFFcfrw9L98dHh5Or9Pr/9fP0fKn01N2vP4D);lineShape=1;strokeColor=#0000FF;" vertex="1" parent="1">
          <mxGeometry x="528.2622274293228" y="230.25681289228794" width="30.2756262935452" height="20.724311926247424" as="geometry" />
        </mxCell>
        <mxCell id="28EZDfu7nihR8xJpcDyL-89" value="" style="shape=stencil(rVbLbhsxDPyavRKSqAd1TtP/CBCnXtS1A8dpm78P3YW2lhhPY6C3fQwpDjkkNfHdy/bheTMF93I6Hr5vfs2Pp+3EX6YQ5v12c5xP+jTx/cR3T4fj5tvx8Lp/XN6fH87I89OPw8+zh9+LXSEuZ6Pg3pYPTCX++fB1ge/m/QXcVxLu8JESwLMj7wf/NQF8pTjG4+Q6PgrFPp5Avl7Hp0Lnfxd4Twz859TCbXhHGcRfPdU64J0DeE1fGuLPAeAzSY/3jgI6QCgPCdIQQcVqpdJniHNz8bEk3EqxWaRAxcMjYuwMslBCBkK+P0FC0+21NPmedQ0kiDWPrPVMAay10H4wqJC0SCvsapCg9CRTlJ50Jgallki177XCFFFIsfXWWjiB3WYNoorpppBCpgQKZ0l7pgwaWoy+I24gPypD+wf4t8JQBzcpr5DPWNp9hnyhjPtzaB72lEANPujPqFMf9+fAOTMxSpIpQlEh4SxJT0J0saCQzJysBYdkBvFFHv6ThV0OmjkG28FunypQrXa9KW2UJ7s/NdUVnGAXtBo4wMHeAHSORaBwc8PQAwLAJ0p9GbT2kEH7u+IdVeA/UOyLpkMK7rcW7aptjR8MSTeWLOtMAyqy2zPBEWm7OVIE+THxMLcMf45vWEfg5/LpE9zNtl7kwLwzckhwRd14n/0nXB/+Xp2f5t1uuXlf/h+v2vppuabz/Ts=);lineShape=1;strokeColor=#0000FF;" vertex="1" parent="1">
          <mxGeometry x="537.1505539566631" y="241.07514441376918" width="11.533483017493381" height="1.8497111724616389" as="geometry" />
        </mxCell>
        <mxCell id="28EZDfu7nihR8xJpcDyL-90" value="" style="shape=stencil(lVbZctswDPwave6QBM/nNP2PzMSpNXXtjOP0+PtC1Sg1EBsS32gZS4CLxTHQw9v+6XU3BPd2OZ++736Nz5f9QF+GEMbjfnceL3wa6HGgh5fTefftfHo/Ps+/X58my+n04/RzuuH3jGsZLk6o4P7MXzJK/ffh62x/GI/X9gmxCntfkYoByAjSQagIzQAUhCQAVOCjAeD7sgDEhOwNQIOXb0iERvcB3jk4J1kKyx33XChaW0CxHpERiwQkuHwfUD97sGkqBSlIQEUxPGSCV4CGku4DYgHJkK6Iu4kgj5q0i2iIg8WmxDFl30hEQZOpnog2HHBavbSPIOMF/lM8Hs3gKCFJIXEesxG/j4gKUFAMrfKLlS5qBhnVEAOcVF7lIA1dJOY09gBK0ElYCal+1O/GR3OSku+hdZJ+V964uGrrEQbXu1NKspVX/dIgNko716XeNxZPCsid9ZlRi3ZhtTGuH93G7Cbj3UL7xjZGSNTTJ/l+ORymRmxI6aa9EU/vZHCosqmuzR6tipXhFrSwV6YnLenZOJ6jniIr8580n/Z+kRbnH/TAW2WJINVAJjmeG5VaRpb+fZtMQlUVA2+Ijdi9lL8DWWRyd0/K3qrHxPH32Gfus9QRT8nL87a9t0Zd7jafzaFIeztf3GOLbKIrcujdZlft+fB/dX4ZD4d5877+X6/a/Gle0+nxLw==);lineShape=1;strokeColor=#0000FF;" vertex="1" parent="1">
          <mxGeometry x="570.0952938677829" y="199.1729323096714" width="1.809412264434286" height="12.1967268469906" as="geometry" />
        </mxCell>
        <mxCell id="28EZDfu7nihR8xJpcDyL-91" value="" style="shape=stencil(lVhJchsxDHyNriiS4Iazk/zDVZZjVRzLJTvb7wNGxYkIalrj22iEHmJtANzx3dvT/et+F9zb++n4bf/r8PD+tONPuxAOL0/70+Fdn3b8ecd3j8fT/uvp+OPl4fz79b5Jtqfvx5/tC7/POCYpDRTcn/ML70jCvzdfzvLPh5cLee+J2QJCBIBCbjxByOd1+RCpuEE+kZN1eWbyaVSIGOjDlcoo74iBPjGSs/LOrcsnR9kb+Qz0T6V/rssHKiAAOVj/ZOIC5AvxqI8P5ICDciUxDhVywEMKSHW0IBFXAMjWBPZUGABiD9ECKBQ9AOj3xqSLgRhFIVMe0zp5ciAMKZCMKqVECZwQhWIc4+Z65q4lXjWBTlRRJYi1oXhK4ASOFMdIl9xjf702xdZCVUeDSGsxpzH5aqKIAM5GulbKqJwd1dHoKpQQQE2sFpCBSpEpFAtARsfaw3QJQMkXKUw2oBPSlEsNgEo0Wda+oVLLnGABFaRGKVfiIIAnJZGf4lABkUnuvLg0Ei0gwBpSyTsLQAUkYlWSAJlPAcZoYUpAJe+cZfvmB2SEJudYEM0PgPrU6moAFTZQKZRNg1Y/gApSBUKwAETfEicb1HGAXGXq6QpA9C3+itGIZ2SZchZAoYDS1VE0gNT9thWwTBJbVQq9CLca7eEo1txqAK7zwsbA3SrqKTUa4GPJ52AbvZLevre9rQXEsLNfq9GIdZppIONk0gIzVpeu5VYqq/3MrWQp2IaJjgUT/ocBc4e4wQJzD2oANFdOXU4BArzU+ugMAHFonXpSSUDJtVlg8hLar9q0EScA4Ps2z7gJAIhJJ6ZsNzi80sxT3A2rvc5sk04ZGKEriXVTxW2RvNEoQhN0bQ1m2mCq2AQZT9D8hbMx9y67ACJs1KF0BRaAg02Og+VKTXiHUqOQH1XShEfDdPQ20InhMhqTPUETHo66C7svAA93Rd2qgtkVGe7rSXNvnB00fdGuqD7hMTV8oQK8pD4xjVrTN6CFQOtnbEEeT65a02a+V0AGcWiLmQFwHz/WSjqMcfAJ0sxc0voGjTPNJwYg0Ohoy0HlBXiV+4p0KY8ulvqGdCGPBjhv25XHY7G3u7E6KAJK0vnQ6FPgyOos5fnc1/cVeTPFaIQZytt7tNgX3xX5ZOS1daGEsDOPZggqZG/3dOXwjAi4t/oLeXTR+NGbz9vy+vD/mvXx8Px8vqW9/N9ey+qr85Uuf/4L);lineShape=1;strokeColor=#0000FF;" vertex="1" parent="1">
          <mxGeometry x="570.1398890605369" y="233.08186512733994" width="19.529688002418197" height="18.88872928851538" as="geometry" />
        </mxCell>
        <mxCell id="28EZDfu7nihR8xJpcDyL-92" value="" style="shape=stencil(lVjbchoxDP0aXjW25Zue0/Q/MhNSmKaQIfT299WWmqxlfJq8LYuObUlH0vFu+O519/Cy3QT3ej4dv25/7h/Puw1/2oSwP+y2p/1ZnzZ8v+G7p+Np++V0/H54vPx+eVgsl6dvxx/LCr8uOGGStKCC+315kym4vy8+X+yf94eVfY0U2Nj7Mrcv1+VW64e5fa4kg70Ae0cSjT2D9RMTF2Nf49w+Jgq1sy+UgL+cSfr1K0U/tw9CpfdXiJG9J8nGvoD4eM1Xn1/vKQIHfKBiAEKeAYDJ9xEKkTgBQKLUp4w9OQQQyzmu5IHTgSn1PsTYaHUboEnts5CUV2gHoSQ9ILXE3+aFo2x46iCxNSa2cDSVGQKM01pLDgGipV4JsPaj9gpTCwkWv8aE+8QVrQZU/d4eqbrGrlm7qP2RqvIX1I+e2HBJO1oG5JNCtQcsLRNESbRc+jyIBhr4oADjgyTYkxRgerZkSD4FsAFUWHH6t48WAHfIFM0O0gh/GxApZgsQFKVgG/dbGG4DHEVnAah110qlWKcrAhTKhhqFBNBbAT7YxFUMCOZIqVXIzAfX9yXB9K7SpsGK3hUUkPjWtlaAgPLAtgnoGwcGirpoE8ewzWjUzYxWQEaAMdNXOs4K6F9TWeUBTlHnyBknchsZsy2y4UaBqVYnstlB36AdSqv5VUFElLk0dAHBrY/bwLlqh7c4zNjk2G5RADmUr2HoG0ieLIChbyDAokDNkRyMqw6taiRfbQpnNharmXIZisR41YTroYUAbDOnY7ECp5kp9lVdBAugYqNUCpxyKlxLn7iicQPsC64NwZWeQVpAAeZIqpgSUn26Q++0ajIkphVgZWJue75TuaYAZ5BqY0PvmFuZTxqNbfgsMA+pKeerfaCIXCA3qHskToa+5yss6CGkep/IwD7Y1l3huCq2cSfKIDp6XTLuMlQlur7Pxt6Bga6a26jJ0BaYFTKbjkoM6KD0MuHX+KJmN9QM7tfj9dzBWT5e/1XPf+jzgmtqejZxjBR2TWLNRhrb86ArzzK0i7FHc19nbK7GviJVq5Oit/ewGnV2hZ7PoRF2Zm/u2gF2uNGeIX/G82gCkewf/I2tB78znqq70PpDvnTWImE38CFj/nzwc9n/7fXh7dvc0/75+fJpb/2//Zanry7fAfn+Dw==);lineShape=1;strokeColor=#0000FF;" vertex="1" parent="1">
          <mxGeometry x="554.1143215896263" y="192.13675054530358" width="14.779256587592272" height="27.318074997785743" as="geometry" />
        </mxCell>
        <mxCell id="28EZDfu7nihR8xJpcDyL-93" value="" style="shape=stencil(lVjJchoxEP0arl1q7To7zn+4yjhQIeDCOMvfpxVKk1FreAO3YXhvel+kjXv62L28bzfWfFzOp+/bX/vXy27jvmys3R932/P+Ik8b97xxT2+n8/bb+fR5fL3+fn+pyPr04/SzfuH3lceJCleWNX+ubwyx+ffi6xV/2B9neGcpDfh8G+/9wvf9bXyIZKzCm3QbHyPFrPFA/5TIGYWPQJ+cyPb62yZwEV885R4fKYDvl0zOdXhmSkhAId8bwCIBE3LvUctk3W0Cm8mFEyO0b9wSUVJHcAyjVnVShFUjQukI3lKOkGB6CQEnngQi+Z6QiJENmULvpeiJGRJ8n6rJkMMqxV6lFCiiOGQd6mzIF+ylPltzIAvKp6QWpokgsUcEpyVIhVigUvbkYk9IFAOoaKtVEqssiEOUAiuaEIFKgVuYZoQMspWlgHqVZjW1rFNL5pmEBJLPURlsNsAEMbnvMpIqBqSeGYIQKYHMGzpGkTwCHjKUFN61jrCIt+SUvRZWgh/8ybBtJ8pF4xkkHU9/zwio47HXc0cIHklIg0stWdDxOA854cgDH9Wg9d1CSjOBJFogRLIgi6pKyq1Sy6A0q9GqW2RYB9WtilDgIKmBS5pQgIRhPyq44fnWGWZ4B8ImmV20xShqRu9f4lK0gC1VJvKoVL5KbHEx0IdbX5hlnQEhls41VGYB/pHO6DUedZbaewcBqNU9TIhmqH3TlFxOodg2uhkBSZCpXdQcDzDImdvSfufgF4Lt025ltchTt7pzeamEfuSsrEfVhl6llQVMTMy9SisrnhDUrl2XSCxBNTxZUyM6XYx7LUOjhaDKR1btgradoiez9ExUn3LgCSq9cb1FvXTmBw9sGQ7C8UCY4WY0HjgT1H880OJNh6d2OPs+6neOUlT4lYGjZmBaa0cqXhHGt2h4aKeMG3DT14ynANJtgLt2DrtPGdnSUKwGWxmeM0dfMrysGGM1CbwzFwxZpM+DlyfreHn4f1Pztj8crhc98//1zY68ut4Kuee/);lineShape=1;strokeColor=#0000FF;" vertex="1" parent="1">
          <mxGeometry x="577.2599815455465" y="197.11008184900038" width="9.714996999369532" height="21.868889258548393" as="geometry" />
        </mxCell>
        <mxCell id="28EZDfu7nihR8xJpcDyL-94" value="" style="shape=stencil(rVbLUsMwDPyaXDW25Yd8LvAfzNDSDKVlSnn9PQqZlNpulnaGW5ruOtJKK7njxev6/mXZOfN62O+elh/9w2Hd8U3nXL9dL/f9QZ86vu14sdrtl4/73dv2Yfz9cj8gh6fn3ftwwufIE0o8kJz5Gl8wOfPz4m6Eb/rtCVz/zqbCpzyP50jeVXjj5vE+kdgCbymD84PGX+IN5TSPz4ZijTcg38wUy/jd9OI8PhKX+lgDBc1CnMsPaMYeEDLFVCoaKfI8wZpjihMjuEm1uU9wKAhRKCBCoiQFQRwxKkMgHwtCdiQoazfleCQICchaVKYyac0KJS2x1lWDZAEET7ZUSY7FP09QTcreS0wehWSJfVk4IYNCagjeTn69MCQXKYDCtUlbdQgwaCurhwZq66b+AecPjVGmbMle1XmJbLymtW2avnihedhSADU440+dgoz9WWkaeZoiFw6ZpI2EVGrGmNZFUEhcz1UVDobUDOITHf6J0S4HVc6AodFuH1XOgLTb9abKZeDQdn8qwaEZUO9nxQvIOTZzUhsetKuv7ZMteSCRq+OXACXV06rO0wEDBDLTojm2tuJBH7W7LUB7tl7zxMD/TTysMxu5uc7X4Rnf6Gk9vMBovaqlQwGE37SDh/Arb4N/wvXh9+K56jeb8d56+n99UdVX4yWXb78B);lineShape=1;strokeColor=#0000FF;" vertex="1" parent="1">
          <mxGeometry x="594.1724490326305" y="226.10928602256786" width="9.475934541958623" height="1.7814279548642844" as="geometry" />
        </mxCell>
        <mxCell id="28EZDfu7nihR8xJpcDyL-95" value="" style="shape=stencil(lVfZctswDPwavWJIgudzmv5HZuLUnrp2xnF6/H3BaqiGRLS23nQsKQC7WEITP7ztn153kzNv18v5++7X4fm6n/jL5NzhtN9dDle5mvhx4oeX82X37XJ+Pz3P969PFVmvfpx/1h1+z+siuVQXOfNnfuAp5n8Pvs7w4+H0AW4j5R4fyId1vLyObtg/g/2ZKZQBb3gd7y052+GZbAT4TMl0eEcM8CGS7eO3FP06Pkr8I964dXwyVPp4DPm0ji9MJgx4YwA+jPy6Rsjn+EQu9vEbcugDmXJPgGRcQIVKodR/gSNFQLE1S4qL5hwlCz8xkBAzBbQgE/dVzSILRENsKmgLiqOMsvYUhgVSOJC17Of6RqiFQzmYUanCPYNWy5nckHQkBlTL69yHlJg8CEkW2MEsMhkUklog/V02hSSGFgBxNelB30yxbCmrxw2keDPtwZ3CsK0GdyovQcPT0rYJOphuHrYUAAef9KdPxLg/BwsQ22RUJGUySYSEqqRsLJe2xZ0+KVvAkMSIB97MDStW1n1rhT4cKjnANPTpI5UroOH08Vb1sun8LFhO+oAWBSOn1BOAcFMA13rEkAUWtKieYWoTgiFGzUjVWcEH/Chv2d8A8Yn4uceL6QCaXTPRRdxMBZ2grVeW7gmUQL6mSWBpzwi7TZ/PMhQCEWm/8FDWKh7emK8w4tCQOtbT4nw1X01Q98lB9AycZeNEfhMuF/+H/5fD8Tj/O3x8P/4syKP5R4Mf/wI=);lineShape=1;strokeColor=#0000FF;" vertex="1" parent="1">
          <mxGeometry x="593.1505539566631" y="238.05605024447675" width="13.5528314682972" height="1.8878995110464984" as="geometry" />
        </mxCell>
        <mxCell id="28EZDfu7nihR8xJpcDyL-96" value="" style="shape=stencil(7VpJchw3EHzNXBEo7DhL8j8UIcqcEE0qKHr7vQseo9VIdCdIh466DYfIQa1ZS/fFv/t2//Hr3cXZby/PT1/u/rx+erm/+PcX566P93fP1xf9dPEfLv7d56fnu1+fn35//HT7++vHdrJ9+u3pj/YLf91wwZTcQM7+fftCTJZ/v/jldvzh+rg7nkwp43Exks7PF+PCeL4aS36/ojj6CzWcn9frkwwAn00hF4hDDUIw1RNAMHEERGvEEkAyYdQ5RiNMpIwiJWvan6eAiiIlFZKI5Kypo1lTMSUSgDPJDYDsjCN+1jgCpXM0kTjOxe7XDaCRUQggGxl1KM6ETADVhFGHkkwkOngNDQB4I0QHH41PI4A7TmPTjYCcjWUiVQzvbE0hIgXb03EfGiS8FeCm4EvErArwcQzvtAI4ADhqpXbDqEMU6umwSbxL0UzMGgRjqeU0M6tgaAT1DANoAlkEuEoAHhNIAYw1lLb8JJIws0YMDQV4whoK+I8Y90ozs6YjqmQAjf7ZccxK2Xi4QSjzKSAAwPVwPANECD79CXZD6Qm5JZDWJHKDqpgAkDpTHQOciWMCZelJewxQXqoTGRMd4qR0LpTulSMsMJ8YT1I0KbcCwJtMlFabyOg4ZW8hoaEFyo/RWqrJxA/NJiOgKs2QG1TFPIpUPU2gkjup7ADMcVXTBXTIlDWaxOMNWhQ9u8EhVeZkKrvBo0hq6Egc11SEClRMJlTZANCcxP7NKWDKuMpFkjEfYul19RQAJSt2tj0FQM+nvLTQAepD7neeAaDsak2qzNO+u2nrjBMNbwVAaHjbk/YMkMfQ0KaOFcV2wyiSeNr+tBtg3HDd98eA0DuL3XwSmadDj5wNYOnAUeMkkjWRmTWhlRqAsEbNvcjuAIl5umCNa0MZU7r2AWYHoCmqrXREP1Cz1q7iztOe3wBNos5drCNTpbMgoJBGV81a4YbYK8YZwE6AhadtfRMgIi+tRNIpy79JaW9KfZNZPTYnK8cpAG5YhEYwFm5YBF+Y8mER3nHKh0UCKTEKAhYp6qcUpZ7WdmoiAUozZeKlBZHV3n+9lior1ocVGf8PAAzgq/pQ+5j32gpUsaCsalzt48Vrq2jFNUWr00Qksdoaj9TXWoHFFdCdLFig4lzW2hkOKCOTtYaJdSdb57xryWhbOe0ptOlb2BXCVdvKylxdpn3RtjY7A8gYGzpxLJIaAYW3xhF1aPzMbpCu4gYoNEdVAKgozTPE06piRWLa4vF4CppSqGUhcYSOTdmiEp6YSSMhghKRap1CX97sxybSGydB3qi8Qui8C62uWpqO4GrXMb5LpINZnDZMOpjRDVPqa+vdYBbY/idiE5e3FdLZhgk3fYWv1QQJP21DyOnyEdY5mZr152qwA374alAmADPrz9VgDz6+GoQNU0x0hzUD0lIHXIXw/r5ZCVYhhQNSr1C7upsWoQHLx8Tzwfc+dQNov8L8INMu0fdR7RDgCw6XJdH9j4/Y31dLnzV5MQ4AQh8SuoCFerF8dIIp2pRmN0zMV2wvxMeNaEW614aJPZGT3DdWu4LCzCoJO91UqeNkWrakbZtyDPCodOKFvc080HynPnmdtOsYrcoalrVkE/Ft0+Zxu4S8p9EbiEAR1xrtMSYLVZRHKs1nN42JQgdRi0uQ7WHE2XELx5k17bSIog8rLfKp0AHU4mrC0gczgkxn6c5X5l9nrwU4pHbel0/PS/Q4ozhcDG2t2FnUoKosKAMGzaKMTSsh3tQdvILyxuMDJeiH72+7fL4+PNxeltn/H9+O0a9ub9b4D/8A);lineShape=1;strokeColor=#0000FF;" vertex="1" parent="1">
          <mxGeometry x="623.3468423968948" y="226.34811446761842" width="26.564126496280323" height="30.536231962275565" as="geometry" />
        </mxCell>
        <mxCell id="28EZDfu7nihR8xJpcDyL-97" value="" style="shape=stencil(lVbbcttACP0avTK7y17Y5yT9D8/EqTV17IzjtsnfF1Uj2WAZed9kmSPgwAE6fPrcbT62XXCf59Px1/Zv/3redfjchdAfdttTf+anDl86fHo7nrY/T8ffh9fx98dmsBye3o9/hi98jbiaIeQBFdz3+KYAlv8vfoz2+/5wbZ8gSntfgdAAZHBJANCB9yagBgmoEK2QCpAXgEgQrZAIsvSQCoRgACqgzCEnqOk+wDsHzglE9VCrmQSSBERIhgti2pWHDGQACoGTlRt4MGjKOHXCDKhQDJois1hlb1x4WESgh1i1ixgNYssU8lUS3vBQwGfNkjeS9uBVzmjm7HTKXGdvcaRbj+ZmXI6H3csyU4ZI9wEhQ5IRUYRq6C16rTcGOMNDmhl/EFBwkuODIXGK6FuS5qmk1EN2bw+dLD0MdbNnBqnGsxujBqDY0nkUAG/0aQ3KTJDUBLDFkwLkRn1myF67sLJm/dQbfVqF8LwMqqaJjCTCTUT2nGwdxO32uW016E5d2T1B87Oy3HCS4oPbE6doH1zPzLZs65X9zyqR9vZ9kXT4aRpnyyoDJ7+O0zBbJj/plRYgGsUKs8bnbKdzaTlZhCy7x5nFilFPRluPidmgBvvMY9M3xFP4GqSGfHmOq3Vs81kdVDnj7HqxttVuWmmH1mt21Z4fLqfzW7/fj5f39f/61OZX45mOL/8A);lineShape=1;strokeColor=#0000FF;" vertex="1" parent="1">
          <mxGeometry x="664.0751444137693" y="214.1505539566631" width="1.8497111724614115" height="11.533483017493154" as="geometry" />
        </mxCell>
        <mxCell id="28EZDfu7nihR8xJpcDyL-98" value="" style="shape=stencil(rVdbbttADDyNfol9L/mdpvcIEKc26tqB4/Rx+1J1V9ZS1rgB+qc4HL6H5A7x4W379LoZgns7n45fNz92z+ftED8NIewO281pd9avIT4O8eHleNp8OR3fD8+Xv1+fRsnx69vx+6jh5wXHgRKPqOB+XX7JJPLnh88X+f3uMJMvQil18kzRrcunSkU6eR/Il3VAjFR7h3ymmNYBQSj3FkKkGAGAyfseIFQYAAqF3AGikA8AkEhKn1RHCQNcn9XiKYIyjCH2QVdP7mMAJuexS6EvdKQAKq2A0heOtfagDtETxw4ggWJeB6i+2LskkRIAiG9ZnwEK6CXJ5GoPSOSRhUosFiAgaFl0q9oUkFYFSJ9WKSTIJSFn0lqbituAsqgDEyOAJrEn0BgV4DQL1WABKEucm745ALjE/gYAcVq732cL+Fv724BMpdosBcDpmig5W4cAGDcCTAwFNp+6xCaGjAG84ENqlFpLq5gYdDwDAmnhJFpAAmkVR44tICOKxhsWIB/qDU7DISBtQc3SitrbOw3CpKlQwaROZgrorMRBmDWq3QctJLtG1WYEQeistGkSYlTqaQxNi/qah/+E0K1lG5bh5vW+rf5Z7dD1kJu6Sd5TBR4t1ui45IB+3aJ9L93ZosnW+c6aTs3bf7wDkqXbnUNDve3zOV4y6Gxo1menEvLHtS6e3WKIawumqUUB/nh7xXitF9Cv3dKvNj9l4LZ+vQ9MwxGDeRdTm5/XexvJ5wWPA1UQb1F+9DR2lIH/1ZEkI+/R3tRha/UjBtdqG87BfmZnG8jBpanvFw42XtBvuqDM8e9bAddmFicjX5H+xUEYYP55OiImwuCNXJv5Jq8NiGduSUaekT/JxpvbA3Et/x96P96X14/rY/Vlt99f3rrz/9vHrf50eRjHx98=);lineShape=1;strokeColor=#0000FF;" vertex="1" parent="1">
          <mxGeometry x="656.0839660368772" y="206.1626849353231" width="6.526725837827826" height="25.66716735830539" as="geometry" />
        </mxCell>
        <mxCell id="28EZDfu7nihR8xJpcDyL-99" value="" style="shape=stencil(lVjZctswDPwavWJ4guRzmv5HZuLUnrpxxnF6/H2haqgIkLWu3xQHK+JYLEAN8eF9//S2G4J7v5xP33e/Ds+X/RC/DCEcXve78+EiT0N8HOLDy+m8+3Y+fbw+T3+/PY2W49OP08/xDb8nnA+Uy4gK7s/0iyPn/v3wdbI/Hl4X9jFSZmtftu2zo+asfdy2ZyZuxp6BffXkgrKXgNK2ffPUtP9MvgH7Qq4qe+8xoBIbQKaCAI1i1BE4CiiERmxCTsQZAoqucWjk8AlVJ0nKnkAVBNC0S7FQ9RigXUoBptW7mZczgilXHIQ+InvKuBBsANxfsQVIutQcKDAutY6BCxWcJp8UoETy2CXnNUD4iEpdbX/WRD4AAHePZ0CjjLjhKGlAkxMAXcVjr9knTcggrV5aWHfQgi3XEb6LynyEsAUASqfawt4D8iVKOquS5wDeH3p7zfbcG+R6AJbbLXdR2Hh/qbYGAfifyZkSCO+A/9V2QpNOAMSWsWNUUoSZgUO+UAgWgLpZUsQrQAM8lZhTsDEglyRo61KkAogtqlt0N0vVkA4LoJrW4U6sLZdsDCIwCCCzyRCvwkYQJhkZlk5AMiyF42QBkNoz05YAwG1xOFt7NKwyxWRDzkBeArVkc4qKIL2pNxgpmkM8omhqlqiAeNNKHmU4g4SWvk0seI3sRRzXrYaG+bjgOAvI6IR7AcwrPZ2nyvWYQ5e35VjDAK8V9cbgFIC7azSXFS9uDH8BmEl7Y70QQNaAGwuMAAz1bqxIAgj6BFnb0FwbATqt4yaJhr/vIS6W24JicFYjZR3IwCWudqOXrQyNQmeX4QLlYn1DEnvQzusbmCgm8L/1+82neQIlYztoS5ePLXHRzjDsgtA3uZlA/Xp11dzZaZPhJrhe+SH/V+axK/3/ORMgM1ehepiZVSIdzMyqTA5fuCwJHFS3e2/5t+3l4fOTwsvheJy+SCz/bz9ByE/T54v4+Bc=);lineShape=1;strokeColor=#0000FF;" vertex="1" parent="1">
          <mxGeometry x="669.1395438107654" y="209.13322889463973" width="6.846922919631652" height="22.817497734601943" as="geometry" />
        </mxCell>
        <mxCell id="28EZDfu7nihR8xJpcDyL-100" value="" style="shape=stencil(7VhJchsxDHyNrigS3M+O8w9XWY5VcSyX7Gy/DxiFkyEwasenXHzTgh6CQKOBwS5cPd/fPO137J5fTsfP+++H25f7XfiwYz483u9Phxf5tAvXu3B1dzztP52OXx9vz9+fbrpl//Tl+K0/4ccZV8nVDmL38/yDoxh+//DxbP5weFyZy99clH2Kl+2DoxD08wuwbxS1PwHYx0qclD3ny/YpU9X2HtjnRKEp+z8B27QvgZrX9u6yfWXK2r6B+zZHdbaXAxuwL+TdZN8oA/+9W/wdAF8oJnBC0zfgRAlcuWWKcb4CU8V3zjOHhCUJJK1GijwBYiLPIGuJ8szqFCkDWudMYaZRDpBHqY40LYBMDbiUvD6hMAUAiIHqnLjSyIHEBaHGXGo1UEG1n3WmG5MDUfLigAIkiiBKPlKaM93q4O82gCklDUBh9YucLIA2FGqbS+TjW+zTKN+1Qx5kQfNC7B0o6IUEiz3mkR8cWKcACIDR9ya8Avc1ctE5Afy3z3eD6Jf8n+1rpQLiKfGZ81XLOHG7bMjN8awZMy5QUFWThp5tO2RPEAA4IS4daQVAcic9TXFOABk1BTf0dgUoSONFGGyUAOuElJx1GjygXTN9XPJc0QltKMmKSBWd0KgYZnvAbAF4UzoBZFp6bVYuCfeQS8ncoeI8MBWlFtIJwQm16XGkhwGUT09T0ABUD9JrS9SXRoIhE49WvEwOA5yVJHRpC/Cjc20DghYxiRuaUu2lJW4ZAUxYpYCQCNjE9RJFNW2oIQDUeDr5inYJks/QW0qUcYnqAsLD9kaJMpz+N0RA5jbkkpEZIR+ah62QySPQGNal0lRcQCcYMe5hQHl4K8D2BwHUVzoQawAaMtjMnqv3iP846VWTiPdJ733S+9dJT9xVeietCwGkF8+lX0RuAEDexdN85eLglCTvvUqNsqeKRkM3UrR6sW1ghkllTI4LwMFG1d+EZ5eih8NnyWaDgQHVdDZJZUCv/zzG5UWNIqzMErSieoaTnt0KCQBxz66dBIAybfdaAkCLJ7s48x5ukuxmTgBoDWMLugPQDKNXi90jkIa84VABWYijc6/sGS08iNXz8S5SAq5aP1yNyuFKj4jBbd14vVlKGVayMcfibpyJ8F3HXJVfaWU6kpA5NlGwcRgeOMpvoRneYL9qLh/+LsvvDg8P5137+n+9XJefzov5cP0L);lineShape=1;strokeColor=#0000FF;" vertex="1" parent="1">
          <mxGeometry x="660.0474895345244" y="241.07350493602337" width="11.789938125461049" height="15.01538062998543" as="geometry" />
        </mxCell>
        <mxCell id="28EZDfu7nihR8xJpcDyL-101" value="" style="shape=stencil(rVfLctswDPwaXTEkSJDEOU3/IzNxak1dO+M4ffx94apUDEiB405vsswlgMXioSHdvWwfnjcDhpfT8fB182N8PG2H9GlAHPfbzXE8ydOQ7od093Q4br4cD6/7x+n388P55Pnp2+H7+YafE65EaPGMwvBrekOQ258Xn6fzu3Gvz2NR52OGwi6gaAOIgJ4FhEgawIDBBdSgAImgoQNIgNqljJB8QKka0KAWB5AhaJaIINb3AbUAogLIFZjfB8QQIOioOXWmVxHcICcNIChO1HLfXyXMgNqvWAU0sjSJzebQVMmKjxmqE7WQwlmr742HVQRliGxNFAeQs1WTBEGOwJOQQpam4ESdUpfzRSKiZwEhL1LtqUn0H02qo1tCOULUiWgM5AEkTwbQXL0WSZN2qVUgTxsBmBcAR64tQs7WpejIlUPvQxdBJw9QunJmWmcn1wHCkskDAnsWxAEdA4viHZaYFjVa3JITTshYaG5RV7YNX5wkp8+UtmCJXZaoQmkW0BwLWQBkY/AsJO5SuyhRr/WluflelGhz5C0liqb1JWj0HwFRtKRZquiXaHd4niix87x6fjFPZGR5PSNA0vV5ZSaGHt4Hh26EpHN2ZapHYLNn+GsD2rZ9ZS9BaJqfK4uP3Kbv9xcr6eh6AZDB5bApo1azgz389T7Rx+rsvM8lWW9CH7zrsUrvrea8l1tstlf7UzzNm8rHzou0iG/wR6TLdEO8slUkvIFPanaC++kqwe45vhr+YYu/cl4e3j4ZnsbdbvriuPzffmLIq+nzJN3/Bg==);lineShape=1;strokeColor=#0000FF;" vertex="1" parent="1">
          <mxGeometry x="692.0737319270695" y="215.1451463535468" width="2.891890367015776" height="15.60834993553624" as="geometry" />
        </mxCell>
        <mxCell id="28EZDfu7nihR8xJpcDyL-102" value="" style="shape=stencil(rVbbbsMgDP2avFqACZjnbvuPSk3XaF1Tpd3t7+csIiuQeI20N0rPCT62OabCzeWwPTeVUZdr3700H+3ueqjwoTKmPR2avr3yqsLHCjf7rm+e++7ttBt/n7cDcli9du/DFz5HnlZA9cAy6mvcMaDNz8bTiD+2pxs8KjAhw1tcxlsHaBK8FvFE4FSCV6DUMj4YMHn8Tog/1FDrNB5WJB1AoLIDNAQrEEKuAB04QbJWk8TIqA14LR5hUhGOoqx5ggdMTyAD6AWCBZuWmRNNkmoNyqUEApIK7WMAEyGIogmBUtFcSySBoMCnlSMX0zBL8JzEtFc9ghVC8qzBpoXjbhFCKgmWm2lVSMZBLRRuEJ3WQSO4sCatVrxAZd0mR7izMTToVZ3nQbs1ra09OPl+ZpcHNdRCDWbup+VD5fuZWYBDQClJhclw4ZWUpcLGKMQ6Lvpk2nlD4qS+KIz4Jg//xCiHAydC6u5y+rAKiVCONyaQZBpgMMW72I+z+Bp85mI8DwXJmOeIatFXdR4/W4g0rlQcNVPnOQiC3nL0TIruw1sbM3ZfPIigBHthvalb8DynNfnUVrSLol4+fmCpHdJbg+KcXfua+hvPi9+n2749HseX3+3/+VOPt8ZnIj5+Aw==);lineShape=1;strokeColor=#0000FF;" vertex="1" parent="1">
          <mxGeometry x="689.197531847326" y="213.1559233635826" width="7.395637704405317" height="1.6881532728348247" as="geometry" />
        </mxCell>
        <mxCell id="28EZDfu7nihR8xJpcDyL-103" value="" style="shape=stencil(lVfLbhsxDPyavRKUqOc5Tf8jQJzaqGsHjtPH35fbhewVZU/h21rmSCQ1mpEmefrYvrxvJs8f59Px++bX7vW8neTL5P3usN2cdmf9muR5kqe342nz7XT8PLwuv99f5sj568fx5zzD7wUXKMkM8vxnGWBK8d/A1yV8vzuswl2gWrv4SuLvx+v8HLp4l0nyfYBEyn1CvpBP9wEhkecOIJWCuw+IgXLpAKG0JG8CErcSG0Cn8AUAInHsAYUy6FIqtqvJUQUrZE8p94BIgQEgk0s9oFIBXSqOYr9C1r5VAIhU+o3LugKoobKlhk7BoEu1UnQ99xIJSEkBtadGzcSAfI41pwGB2lQvXbwACkVAJgVIX7WOONSm0g7kCpBAEXPGbAEVpZSo1AGA+pqInQUgbtTYjvAKgFSgKtfYtjWjLoV25lcAtNU3ACpM8lBKiRKiqxYdLIDRCmkgX6QEDvW8cdkCkApoiUb6ZgCiRrH2oICMz4OILdqjlOrA1tSE5IEzGoFD3JCBQoJzit4CkBzPfw9HLqKtLuQGABTLbF1u1Yd75JDHllAqDDIAiwhU0tAmJAOPAtQQUs/XkiFf1bWC8RQPhSYPfdURaKSeal/D7MWAfertoa9BRzw4Qurk3gBUetAKatW9Q+iIA5e4mKwM6AgqOjprWlHvRGCFoD3p1TU4SmCnxVuxFG7CcPtiyRT7jdMRBis4raEv2umagBrcLO2SEfQ4bleRazgiHpPrJcbDwzlonof9H65WjgqwKiYvJlwAQ9leDXWr0JvBJsMU0CWsed413IG+6yZ6E45M9tLmVTigmVgn4Cbct3lvd5Xh6+jBx9d/w/Xj+s572+33yzNx/b99F+rQ8qaU578=);lineShape=1;strokeColor=#0000FF;" vertex="1" parent="1">
          <mxGeometry x="705.3549491109848" y="232.35495301455512" width="23.79038848316054" height="29.048335326837787" as="geometry" />
        </mxCell>
        <mxCell id="28EZDfu7nihR8xJpcDyL-104" value="" style="shape=stencil(lVjbUlsxDPyavGpky5btZ0r/gxlCyZQSJtDb31dpxiHSyVmGt3DYzbGk9Xqdjdy8Pt69bDeZX98O++/b37v7t8eNfNnkvHt+3B52b/ZpI7cbuXnYH7bfDvufz/env1/ujsjjpx/7X8dv+HPijU6pHVmZ/56eVOr6/8HXE/5p93yJT9SGww+SsY7vmcR/f1LqZZ3QOok6QmbSDAhC3D2hUO/rBB3EvoTcqQkgVMq+BsnUEiAkquIJSq2uE2oj9UUXpoIIhVLyBHsCCKVT8V2qiQZoa1ES9gSdjb5OKJSLIyiTgElbid0XrYUqqEEaFb8ktaqA+ESo+aJbpgoGJxyl0RQuKSsVX0NPxAwIhdh3qVdisKQklKvfcA3u0GRzDYROvQECU8qeMEhBDY2GRvwAL6jUeIFHc6baIr6C/Zmocyy4gQ4xVY0dbWAr8JzoGa9wPRwtdZiBAJmaYsLA8F42DXsJDdMI2spT82d8JkX2Nd3wAi+gn31O/wJfwXpSWjTUPBxJOs8T4IIwkCKEtMQRMPAiI0RNK2W0JJm+cCGiAuzRaiiLbVnRGzia1/jgqL2yzTrAa1xQYobeVRZONOAxaKqRiGega6ax2McMCuB4BtrMkCqsurCeszOt4DUMoMDT47P45YQtLVWkIZO1n0Br0EmTadKXbGkpoZGleAAe0xJYkokiFG1pCb3Bjtjg1rXDmGBZK9hLFXjcSI3+ZeEHRU7pMYgU7BYlxSVZlkGOWsac6zkQCgloq5VYfZcsZ2d0xlqC9EVnPAfNMa6ZfjtwbW0xJliSH8DAWpr2cybkKZbrBHuDr6HPDbJ2twh3kTK7dh1vLfRTwFltWAb3Y2YYN+1u1GvAo3PcDjEpAQ/XU6JOGfrpWER4ng+u49uMfe94dC8ye9ZwtyMBkjP7D2E5EwPFHWNiCvgO/XSR1M45YO0F0SnmCtfwKXgXZVTwZy/XH+Ltw/tN/mH39HT6IeDy//Hmb49OvxrI7T8=);lineShape=1;strokeColor=#0000FF;" vertex="1" parent="1">
          <mxGeometry x="709.4268135781758" y="231.1578866499084" width="13.415294675808354" height="24.535251427585195" as="geometry" />
        </mxCell>
        <mxCell id="28EZDfu7nihR8xJpcDyL-105" value="" style="shape=stencil(lVbLctswDPwaXTEkQRLgOU3/IzNxak1dO+O4r78vVI3igG5X1o0SscTijYEf3vZPr7shhbfL+fR193N8vuwH/jSkNB73u/N4sdPAjwM/vJzOuy/n0/fj8/z9+jRJTqdvpx/TC79mXFOSNKFS+D3/qRTi3x+fZ/nDePwoXylVJx+VWoAA9gpSIylYQ3SAHEgxJfWUigEUAISqB9RAJQOAUs4OIAF6KQa7Dw7RmBS5SYjVAwoJMELb8t47QKjU/wNEKXirzawGrK5MLB7QIKUslJrPjasf/ongSLn1KooAx1rouDeiMLCaYu29hBhFitKHIYL3Q2+yxRnJZ6q+GpppbIAPk/gwW+CRwVa/xTNSJQa5miM1T0nNySAGRSmGLQBhyryFktbl+k6jLUh99WC3TpnsNazEzdJMu8TDidESqe8ZK5mnifimPpHR1a67DoCLpySqG+uzUo29CtQCrH7aTX2iJhPDEqc721i6YYT75NZGvFU+LmzvHA0WZZ8WK7PH0tLLrww36xfenyvTk6n6ylkZz/a+57My/yMl/z7eL1Lf7jLMhpvRz5QQGV58/c6eGmgTU7S4kw+gJNnoe/lADJyZ89JDrvKoHkshlQ3yVXrvYz4ifTZge61RZ9ngz3aTzThe01a0JR02b7Or8na4rs4v4+Ewb94f7/tV237Nazo//gE=);lineShape=1;strokeColor=#0000FF;" vertex="1" parent="1">
          <mxGeometry x="755.1690516058168" y="225.19626850619693" width="1.6618967883664482" height="13.379157157137342" as="geometry" />
        </mxCell>
        <mxCell id="28EZDfu7nihR8xJpcDyL-106" value="" style="shape=stencil(rVbZctswDPwave6QBM/nNP2PzMSpNXXtjONef1+oGqUmaW2smb7pWBDAYgFwkIe3/dPrbnDm7XI+fd39HJ8v+0E+Dc6Nx/3uPF70aZDHQR5eTufdl/Pp+/F5fn99mpDT07fTj+mEX7NdQsmTkTO/5w+CIH8/fJ7hh/F4BXcWMVV4D0fw4lBCe35cx3vB9O8K7xDtOj4ITKzwGiA5PzokW+ENUlnHFwuJDd4YgvewXfyO4COiqeM3cMxBRmgcWBRPDApS7UHUJymZNe8pLhbhnbU1F742iBolM0itKrKDJGIQkOusi0NmWXc6UuIyyboY+Mag0KRzQmoMAiQTgwBfSy9HCCl1llarSZYjbhu4lqWQYVhInYFXMW0KyUUEUrg+aSuIpOEmWqUZMLSBurpp/7CG7oRhYTcpL8GSATNJuxlICZH3Z9M8YhFIDW70p08Q3p/NCIgCYSR1QyapkBhLqoJSa7sgs5C6OanE0ZC6QXzFw3+y6JeDMuc2bR9lTkix+/X2Qdr9/lSqPfHQL2hVcCKl6y4AkwOCj13KYSnl7ZThmgS04VgCiM1q8EhkhnVVTpEyqvOixkfNl5zfL8OwrOz78N4vDX5fPCJL863lW9dXb1Qsno5PGxYN3lcv3Zthgxw8MmFz43XzQ7g+/LvZvoyHw3wxvv7f3oT103yLlsc/);lineShape=1;strokeColor=#0000FF;" vertex="1" parent="1">
          <mxGeometry x="751.1611190342435" y="234.09069252010795" width="10.506926745652436" height="1.8186149597840995" as="geometry" />
        </mxCell>
        <mxCell id="28EZDfu7nihR8xJpcDyL-107" value="" style="shape=stencil(7VnJblw3EPyauTZINtez4/yHAcvRIIpkyMr29+mXQY8fi3o1EpBLgtxGo65hs5fqhSf98O3+09e7UwrfXp6ffr77/fz55f6kP5xSOj/e3z2fX+zTST+e9MOXp+e7n56ffn38fPn766dNcvv0y9Nv2y/8ccEN6bqBUvjz8kUUHX9/8eNF/OH8OInXNolXKf1YPAbpYf75JMoAScoMSEFGIIAsOU8AjZIaAVQ8IQepiQCa6HznPCQVCmhpApQqnZ/QwaoqSSlgzF6rXRpxW+xuEwe0JIOpZL83W6lVyZUAhpQ4AyxWmOOG6Oy4HiQwQMdQNQCNpS4hIaCxS1cZFQGDnVDQSj1KZMGXRRMCaLQm6eNdgIh+uKVS8GB+46WHxP4eq3ZMnxtuW5Jhi4vI5OtsoS3wqHyEQC1Oaq/KG1/MLmtmHyof55ioVQK5b0GKrOYwkmmm7Wz/0t0CB/p0kK+SWJ4ZHc6JWZIn0mEmz4mZjW7IDUylMYdcrtKISXVJTAMEcsL3f18BZmbC2SVj1BmgEa8ZQ1ddAOQEI1zwmykZCclviT4Hdm6SiEq9eaXcFapMzDoCMqp5upPQGFadZ7OWIoWdsPCdBesglx5r9lw7gtcBRvJztFbuBwNALFVjNAYwIwJhJFqoDFDnE1r2lDoCdDihOckeAQZw0vDoOsjpa229smqiLLMdATSfZbDOsGNr2Bt3dcGexOJxEOLuA4NpqBSikl0xz5e2M2lpsGieg2lwR9SG5dnMkElslIBmNUMz6ssRuXLzDAkmVaxvO+e/TsdZguIRlTW4BXtuuzVL0o7kammu5A5ZGvQwxZnqoCTGjPKsZahOi7vYpswqBVok9cbvqAmLDQHKLGouWE6gM0ZFrjdAJleOC4sZgNl0GwQTGikTlZJlm6IXElHJAFBCe3UyP1IJm+HK7xCwhBonFdbK9IUmuyfHUSqkigBloWHz7wogKg2nuL1GhLjbolCjJbosv1/pwJ29LdrJRyqPPis01wqOthZ2hbbzqI8627x13lGns9cB6u37W3Oz+Hywz34WRH1JBPUW4iiuW0UjJRJE6Vrs99WcJzNW8+Jn/kOAjHRhzSKrtZqkQdUpNDdtCskVT2ChUQY6zgCBNBht8YN1yJEBBq6GtqaGqGSBUFbHsZ5HcVzdGr0bJ8zhvSnJivky+Vi3yoJvA8yOs36YbgwU66113Cw0+nVdtuvpGWmYTaC4Vb7INJvg1KCUxswmeeY9iy42UFrvGWEYM5VIeJtN0lzRS3TPHI2ssGmwbpT2ns2blh2AJZClKDRWphLtGSrGUlGnhSOa6QmtNBjNRJwBbqxXDPC+/Y2RMQz2NxZEBoATbmyg/t+tXgD/kd0qfV75d+9WreJCKvBXg44e2J4l2M4A7VM7X1gtucxbt457le3lhuoPxTYP2uk1T9urfKBFoTh7urxGOuWpP965vLEZGxaiV5jrriD5BuRV+YBtJK+ay9KJPy4GHOOjT8UH4tAaBW8QD+6aMoiz0LSOI4F4YmsXnPgDLRoLV3F+Lkg8XLziApIr03Ddwq/aMYi5IQeu+bibBlIOD4J3v1/fELcP35/Kv5wfHi4v7fv/49O6fXV5ltePfwE=);lineShape=1;strokeColor=#0000FF;" vertex="1" parent="1">
          <mxGeometry x="775.433965340563" y="210.43808922214646" width="11.513492788985786" height="40.55134027774773" as="geometry" />
        </mxCell>
        <mxCell id="28EZDfu7nihR8xJpcDyL-108" value="" style="shape=stencil(nVfbcttACP0avTIL7IV9TtP/yEycWlPXzjhum/x9V1XlGOyyUd504Wi5HA5o4LuX7cPzZqDwcjoevm9+j4+n7cBfBqJxv90cx1O7Gvh+4Lunw3Hz7Xj4uX+c758fJsvp6sfh1/SF1xlXM1SeUBTe5icJUv374Otsvxv32p6jsscE5AEKhKoAxD1AEgVghBRdQEUNqCDeCQKYFCCK75LYoFOGgg6gQtAx5AhYXIApQ0Eg5wQMAUJQiBoheD4VYO1TTVDp/wBpWTQnFMhOIYpAyBogUJ2oMwMXDahQnELEstTpzL73PNxENO7Eao/4x6/biW0xsg3CAxTAbLOEjke4EOGiDOzYBxtybVnLTo4gk7Y/p+C2PwxFl3kqvBMw5UUhzgBxuyHiwrMLQHBcSrJk8IOAwhB5jUvSZAzXBD0VSdakdWKyPqFTt0YzMcTziVEJRKtSh3lCiwMfpHZur40C+M2TCPLK/syQ0R7hSUDrn3rVn57IYACsNk2ejNGVR75OrhXiT9hrweiMhmC7rTN7ELJmRWe4Iciq6Ul2AeiMZ4Ko/e/Mf7Ljv7NgsI23s8Gwzb+/IUUrRRHI8V4g6iYmn80RRHvTyuGoSvPerC6NHo49s9WIAOyQP0bgZOy9fk/JZt+3z3np1Qt/2JkE+fr7XrySAHlFPpvqJ/19v15NO5Kul0+HT+zjHft28b78P4273fzvcPne/iy0R/OPBt//AQ==);lineShape=1;strokeColor=#0000FF;" vertex="1" parent="1">
          <mxGeometry x="809.1105646666201" y="197.17123908910082" width="1.778870666759758" height="14.823826317079693" as="geometry" />
        </mxCell>
        <mxCell id="28EZDfu7nihR8xJpcDyL-109" value="" style="shape=stencil(lVjZctswDPwav2JAgudzmv5HZuI0nrpxxkmvvy9Ul6oISmvnzVGwEsDFseBO7t6eH173O89v7+fT1/3Pw+P7804+7bw/vDzvz4d3/bWT+53cPZ3O+y/n0/eXx8vfrw+T5fTr2+nH9IZfF1yNlHhCef59eRIolb8PPl/sj4eXhX3JlL21T8CeKcgH3p+FgvUn87Z9SuT690fium0fC/lq7FMA9o5i6OwTpbhtH9Qf19nrB4H/wZHEzr5SBu8XT9Kfj/MU3TZA/S19AE4o+m2AU0DvkYtUgUuOKfUhu0oFcKwAnzuAz+RBEk0h9kFLgCyrx6lnOXhiAYBqjzVUGLQX4r4OYiSPeQgGUInBKWkimKCTowK+II5q/4UUSMApiVgeUm7ZvgX4x2sDZMaA0M5kBmh9g6AVEAwgkWBATD2gwlxSQOqDLp4cjiEbQGzcbwFMxWnTLIiHIVurp4yaUiLug66htZF1QLYxKAB1jTjUgwJQPSRuvM4AjQqckiazM0FrhQDiFCAm6EySoUvVAApMDQVwT1ytsGvoMMlsASho5YGzBVTEdCSRAQDqIUobTwtARi558sMX0MSKI3EFEhe5KYQFcRHNaG4SYZEaSDSoS958IVLBQUuwAIeCFsom6IBjiEM9hJa/W6nhvQUEFEOhIhaQwSlpershaNRbteLYWR4cqjjXCnLBNOOadtECKq5pIw81+TLioZIzPFQKuFWmoR4KIk7VkZE/rI0EJdOHEar6stiwE+hMqjrZHGxqcmIdEO0crQL7hh/GYuX2ZAtgor4yRyclb9RGbeJ9C+D7BFe1kZAm06I3iglPiEn19cearnyBWy+dAZrBSLlmO4N02AekXH3bF2YAt8awvpG1CbWQxkidhCZFFtq7IodaeS3EPdqY5syf7Rm2AG9Fqy4sFVCged9nke4/Ba0znoJZmBxU9m6stSYAt2rTdHrteaj4k1255519nTBvV5PQHFy3r3aF9jDemK36dE3VrBMQrcLgdsI3XgHg5jheMTDsK+MVxqz7Vu3HKxL8/kmsJGsPCkxH3mCP2py2fnMlwbAHTXrOLPRQ1U6C0RQARVTwPJYwTIhVAJpmo0fSpvqNEUtb+m48UXy9MDI2r603ZkTAjH3wUu66vf74fwP4dDgeLxeIy//bG0N9dLltlPs/);lineShape=1;strokeColor=#0000FF;" vertex="1" parent="1">
          <mxGeometry x="792.5545821097355" y="185.18188305856722" width="18.248946652865925" height="34.79078432917254" as="geometry" />
        </mxCell>
        <mxCell id="28EZDfu7nihR8xJpcDyL-110" value="" style="shape=stencil(lVjLctswDPwaXzEkwQd4TtP/yEycxtM0zjhOH39fqB6qImit4pviYCUCWABL7Pju/fnhbb8L7v18On7f/zo8np93/GUXwuH1eX86nPVpx/c7vns6nvbfTseP18fL328Pk+X09OP4c3rD7wsuUawTKLg/lx8KpfLvh68X85fD68LcMxW5wT54qu4W+0ouWvuwbs+JirWP4P0xkUudfSbP6/ZpsGeq4P3ZU/adfaAcgb2QK529p5TX7cVR5M7ekXPAvhB7Y8/gPFXzy+b86P1VqPT5VUKB83s3n3d22FFI4AuVfO+Bj8TgE7VQMQChDHJcM7nQ+8yUUJASBRMkoSgAEKkYFjGJh4DU05o10MhpBfRHiowTp4C+kGOmivIQG5HnTLutI5k8pAhreQLkHiAU8BekT5yWX60Y0H8hp3bINYBpX7m2AlwFmH7E5LEPtW8AJZNgLtW+Y2tPyCjTydJbtICwD67nkgglFFZP3B+patcDPki2bNUa9ACgRIi2a+DGlzJxX3LaSAQUtZLTTEIFMKBrYhtXbYZo9iRtpeYLpbl1HeBJnA1TAHTVL/i+qKfko/Gm5DRH0vmGEqE1GizAI6czZQNQbgAyaaqzWEACR8quvW8BEDSjA8VofUggrJmtyNASiWiqx0aERR6Q7MlD+9ZMFwRg22eUSxWwVZ22PkjrbWtKxigTrYeMyFcHeleolVIZCqg2r1bFmFhAwvSO2TpdEL1DU0eLsKI8TCU6JA5Gybf6WlAj4pouJqzavlHXiG3gLOgN20yiagABqhNNXB0qDtH7ZkApFEwePNTp4pvEm2eWXhyQMA6t5D85RidA/4WNQT0B+rBuSAEF5JvEhgQryTbkjATbKjcEkwxdY0OSKcCMrA3RJ3OvXspKoEMVUPvBPglXFCW2V8oYGuHXAL7vSyq+M2DrBDBqndvUWwX0edALhEOJY5tpvZcxAsTGzVkwaUmhTA+XIL3qQ0BpMZlLtNXsWoWaTqkHAuVTPMU+z9IE2poMMC1DL5awsfIQotBicH13EOxdWkOEdPG0nDCX+9hm5Ce3HxMABHVcr+iRUEGP+5sNwLAfmk4E2mRsanD5fmAfmmpZ2KPLurdXPj/X0lV7Z3WSJhnNZ9c0/2zvoa4a1xke6uFr6w+G5zfnqXCfNLgr8FI/RFOI0XbOJqvAzjtwQVsG6Ls3riI3zfXh/9bz6fDyclmaLv9vt6T602XDyvd/AQ==);lineShape=1;strokeColor=#0000FF;" vertex="1" parent="1">
          <mxGeometry x="811.1424369955444" y="191.10311518295623" width="15.613993477089252" height="26.870724756612617" as="geometry" />
        </mxCell>
        <mxCell id="28EZDfu7nihR8xJpcDyL-111" value="" style="shape=stencil(7VjLbhsxDPwaXwmJelA6p+l/BIjTGE3jwElff19uXbkraneSLXoqevODXInkcDjLXbh6vr952u/YPb+cjh/3Xw+3L/e78G7HfHi8358OL/ppF6534erueNp/OB0/P96evz/dTJbTp0/HL9MTvp39hHycnNh9P//gyPufP7w/mz8cHmfm+ndmY8+ybh+Yolj7um4fA2V7H07r9ilS8tYe3D9HcmFDvBLIOWP/64dF++KpWHspwL5SLZ19IAb2Nbd0NPvSAlq2r+RzZ+81Y7zu4J2zEbOnAEqsR7j+CL2TRzFIe94l5ohPCFT6oKNraVvOqlA1DkIuAodA0sM6MTmECyHpcZeECriSeIo98HKgBDohZ5I+rbm0NCw7OAp964imFZQ6OZvWwq27l5tTn9dfqWSK4Eoh226oDlaaMwXjEBu6luEaqfaFm+AIGlQd8jYHphKsQwZBe02rWIcKKq1l7es268HlSlPJw43AAYlcGkJGpN0Y4mKvDQ2ezxZ42uEO9IKnbIqcqCBOGp4f21RZsU8mP4E8IEkmNvYedlqgOKBawPMVo729sj6MN1EyDgIBERylHqMlwrETdCyIdUh4DprGLBcyWHbI5Kp1yKBoUiwqiqYBVKG49veMjSpIq85mMQ6lqY1lB7aTTQuNhqeeEE2nMeQ7uTDDDKqIK3TuGLLQ3kGCR/TvodlQloTtdFbN4YBDrlay6QkoS1maBJz3M8BS1ueJTWtFo1ChNnS0RycMDtqiSNdOVzIOQhF03BS06TitAzqh2kGlDVRRpbVwyTpEwBoKDV+sQ0IO0mhrFgMjh0HdToJhUwNpi0LhNrToxK1o2A4koNAQUIeJZgz4Aqz0RGRmfMY2sNeo0vdaUhtIALwnMjYnZKiSNjvofKjROjCow6RJBtYQNOP+RIdF6/Bfh/3zOgyhlIKZI39ZhznKhr6kCa1lh9IQOVdJqGJ5ED2XoiyHHCj3XKGkXFHMTKmPYZoTYIzoi6/hbH1RDQBFqdi3Qn0VRu+dOmy5V6tJKRi9CtcmDy6v87mR8jLfRYuM6KCi16yzWcMwjKEE+2ar6EWLJB1URocpoaFm0DJVQ19UNm22KglA0rg5qxB542autvZ+4+avQlU4bhbVHkycYXH5SrhNd7zx9sPigjzAz6CZC0UAaEVbfxmhDKDgKPaVyo0EVszNAi9BvTKYa/NsuUyAEnAIleFucEikh2Q1lMk1Hf82EODl8sbd+Kvm+uH3Gv7u8PBw3uLP/7dre/3pvPIP1z8A);lineShape=1;strokeColor=#0000FF;" vertex="1" parent="1">
          <mxGeometry x="806.1627711370882" y="239.13744787831797" width="11.730689407443833" height="17.58534705688976" as="geometry" />
        </mxCell>
        <mxCell id="28EZDfu7nihR8xJpcDyL-112" value="" style="shape=stencil(7VnLbhw3EPyavTZINtkkz47zHwYsR4sokiErr79PM4seDZsztc4xgG/SLmvZz+oieeEP3x4/fX24pPDt7fXl14c/r5/fHi/80yWl6/Pjw+v1Tf+68McLf/jy8vrwy+vL78+fb/9//TRWjr9+e/lj/MJfN1yL1ONApfD37ROhxv9+8PNt/dP1ebe+VgoyrdcPIlgfaXw3ry/n6yVTZmdPB/aUSlW8/eD3S7Sfe7dHgP1ZSMq0vlPvYH2kPNsTMzHYgAuVPAFSJAnnADUghQnA0T45BjCl2WU1MgAfYqPSJ0AJlEBQY6Ew+6BpYWBSjFZkW9YSpQzKiIrLcqMGNhAqLsuZakPr89wFjamBEFX7dlvfLQTHDrNVzQ7QE0iapqjOdRfsk7OycDlQQASdw0w1eZMK2IHb4kOjinqHfdaaNj8wKWuanUmZOkhzYZI5SrVTBD6UZl9vgAKjJGyFvAECVQRo1ltbqQpFxJCJyryD9gILABRL09ZtDUZJY1LaDFAWBP2sQ8ElTlPZQHm3ZENg4yRNHPBhAGYfUoGlMeaU49UOO3TdQWlNMCDPeYgb65wB3OiMAhtIOcXlQYkTsZJWP1cPSIA1WjEW3U2fjhInVv17ACoN8SQQC2Rubfm6ON1APyip5OzDKsjpZi7uEgcBOkFdLSmRIae7NeSu+GCUuvchNagCBmDeQdkW6aoBmHVJVmoDJLCapKyBhvoKUGrLwKQuFpM9GYOO65vFO0AFHde7acdtPgQoAxRQ3VxPUCvFoFN2tmkoAeR1N+7dAMVyeQbwWkMDB1hAwyRuB80cMql69TPUCSBXzRwvAAZN3XVoLtoBDbmezYCdDwy4sjPFRTugzPVkPb/LA1InCnAtp3SLFNbYwemfZC1y5kNygGjVdRaltDQEmuyaB5c4BaCm1kyXtUdxLdVlhwLIVavVHci0RyFt9KVaI05c9zyjLZpwx/V5BA1ZiXzoSy2JibQzpz0JVCiYNKxOO2g/QJoRqjMbjymGyLUsWrrDQX0MQANCq38Oqx6yUB40r+7UNCYKFn0OcG9mKWA26d5UVMCssO7N3cWke5P9h3D9IVz/T8LVTaCEz8dj7s8+cKCEaqkvR0XVS6i8m59AOeAGav6KclzioX4Qv8M4H6M8ZGozVY77LhQlbdEZIBGf8VUkzg0kOEq1+Nsc6XDs1uilcU32E8cXG+KdrnjGyULGGoYCWKOsQ1HgjCts1b+786rApNw9GatGY+B0Lp7IdEyi6x9ed9AogUxz9jJ0nHKA06l7Kf2ub44B2Zf37pRzjAjU67IFugCunjYUgK7hI/uZNTQXOqJ4raHr0WAvdkLapYFRkPytnRaGgPXBH7+HfgP2Hx0rBQQoePtrgwo0eMVaGdLw5t1GF9tV6jGD+SrVZkXDMEZ/0NBmRQP9XSBsrF3tCHgM6L5IudpTynGKi5H6NtvwKwUfCauAerktzwIwycou7gKE7Sx0XNTL41Iwxjwj1OrXozP0+viGnxDWxz3MK+vjYYCvJuvjZMAqcrlKD5DdtQfdm0mAT2+N/VE1wsdMXe8qLsJ6UF0R3eGCGK93x3/GYu1g/R2d4+zRUYLj4/wt1kHfGU+B9bPmS4yGv7MeBA7v//oYfn+9/vH+8v7l+vR0e7jff+9f6vWj2ys/f/wH);lineShape=1;strokeColor=#0000FF;" vertex="1" parent="1">
          <mxGeometry x="515.1673082597235" y="288.30676367408955" width="26.65346264627351" height="19.664662499887754" as="geometry" />
        </mxCell>
        <mxCell id="28EZDfu7nihR8xJpcDyL-113" value="" style="shape=stencil(lVbZUuNADPwav3aNRnM+A/sfVBE2LkJChbDH36+8LodoSGTmbWx3W2dLM/Dd+/bxbTN49346Hl42v8en03bg+8H7cb/dHMeTnAZ+GPju+XDc/DwePvZP8/Pb44ScTq+HX9Mf/sy8mhDyxPLu7/wmo5b/L37M+N24v8RHZI33hJQNghgIisAeNRqEDK6KEBjT401CAWsLkeGSQajwpAjJI9NtAjkH5xSjEtgyIUEUTQggI4hSURoLCcndJuSyxHgmFETDQmKwrpzkIRsWQobXhbjIw1UGE0JtTQSDQBmJNSGbzZFBTdARxQiaQE3Mdi+5NuTqEAx8QPIKXzKy5Q8vKT8TIoLRej4hao8Km70aCLVxyZspigXkegiZEbjHpZLA1BO0FLVRz5RWNhWdtYWVuolWStN4K0NGcqKHzErnSRK5aVVpbWNkJJFvMwFs8USP1KlPGSnUmrBGgOinNmmyhww5UCOgcwNft/DFI3tO9g7ifnzW/q+tBiRd5ZXd8yXeleXGiPr/K9szwOuCraxn+b/G2+s/oGhhJjNaUZn2XtwznKe45OLsPZKBF++bbNrFZV6ad8HLlDDwISwC/MRb+opxWdnfwye5G5UOf3Jq/aFlp19Pf0AuHfkUbVDsqJeMQNL5tNuh+7K5ipfD5832edzt5ovx5ff2Jiyv5ls0P/wD);lineShape=1;strokeColor=#0000FF;" vertex="1" parent="1">
          <mxGeometry x="557.090692520108" y="274.16111903424337" width="1.8186149597840995" height="10.506926745652436" as="geometry" />
        </mxCell>
        <mxCell id="28EZDfu7nihR8xJpcDyL-114" value="" style="shape=stencil(lVhJcttADHyNrqgZYNaz4/zDVZYjVRzLJctZfh8wysgEKLbKN4pCc7A2mtzI3dvu4XW74fB2Oh6+b3/tH0+7jXzZMO9fdtvj/qRXG7nfyN3T4bj9djy8vzyef78+TJbT1Y/Dz+kJv8+4lin2CcXhz/lOIZF/N76e7Z/3LzP70qlVY1+ph3X7HIibsY+RhNcBEig7QKLQ1gEs1KMFNEoIwP4EjblmCAjJAETvgKBZQ7QniGapwxOSjSGlceZ1QCLOBqCJFnRCoSwWUKgVAOjEFlCYKjhBC1ds0KURo0pHyjatlccjrgOYos1S1cKBLCkgW0BTJyMENBt0S5RApUUo2PFpjSJIqzZCs1nqDNu7dQq20l1g8/VFeyuAESBTFQ9Aae0aouWAnihXAOhUbKX1zIJc6mNcLoAynFwDRBd0HaW8DqjE7oRGDbmU/ADpmRm0d4+eWaeogEutjt6cA1BrpNFqM0ABzdfiGMgZIIB5qH305ixLEQGU56qvQwBB10bBuZThQlGX/jfzrPlQpTXo5ACC65AGk84AAoLWwrXiAQG3RlpMXADcqiHWBQnA5quUis8S4xHl6uvAgARiCIOGZjMqYI1O87LoDbSotdeCS1OjjJlsOaOocsqVkj0ANtOFJC5i4yMPq4j4KYSufiexbjCNrurEPk+o2HEJuGTuOiAtuCxCaoq6hGz/TXsRA6pbpGkMyXWAeOKYdjsgPwWwkxuqgFCH69Q7qavyAExpFE9NqoAKKJwG7fi4CN6L3j7Xseyvq3UvXHOkABpDxr8zGZrBSAeqtspy4f8Ve6cpVQN2UIIFxUwyFsQbvBpTJZ5QxShaf2LFo+knc2pbwC+q64sNANdLuk8onksV/Y5SBc6Atpd7z4hQ9Oh2Lvb5Aapb3bVOod8gR91i3dsj+s1eXoTxHrRGvpGdfQH9pmLbv0sO4ltb5I5TNJ9oBbInLR4JWLN3A3/hpDV/mrVX4kb+hMGAH/YNPF/z4/ZlhgtZlZETOhm+B3/2a8Rte734+PTxtH9+Pn85mf/vP5XorfNnFrn/Cw==);lineShape=1;strokeColor=#0000FF;" vertex="1" parent="1">
          <mxGeometry x="551.0676724393275" y="267.1314780426426" width="8.46131163313521" height="26.795895213565586" as="geometry" />
        </mxCell>
        <mxCell id="28EZDfu7nihR8xJpcDyL-115" value="" style="shape=stencil(lVhJcttADHyNrqjZMXN2nH+4ynKsimO5ZDnL74OJamQCJJvRjaLQxKDRWMhdvHt/fnjb74J7P5+O3/e/Do/n5138sgvh8Pq8Px3OcrWL97t493Q87b+djh+vj5ffbw/dsl/9OP7sT/h9wYVCoXVUcH8udxw59+/G14v9y+F1Yp+YClv7sm5fMrls7Etct6+OfFT2gRI4T/OU9fkzVXCexuT08z0+UKvERQOuIS0DGkXjoVFLEJA0pRKD8xiQFCAKaxUfSccQM2Z15iG5wdsaIGsPKVHCMRSdt1Sp4Biq14kO1LCHZgA8tLUI8O4q/YEofuRy1UXQgAJdCICrArAn3zBN2gOXkcvVzGkPVSoE8coUtfpqgWKqUkHaQ4vUQAycqGgxtUINxNALTGtjkpqV1NkgulwCaEvkvbUPwD4QmxAqBRDCtadc7Rk2jZnyWiYG53FW2y3Bgo7jtJOcBSDUYoutBVgJ/irjK8BTRRnLoydOAAwAErLpMHIkh1KWKLMFMMhBYMrZkoRiCG0WtCiXISAaWgvsknKkZnTBmKU8E7bML1CcwVMweWiDt+XEldGmJwBYzX6mVQEALTGlbO0TcBAXarMAUv1obxNOE2h4Upuz9uUBQ87OTqnNCuINdl8Q2WWQskxZjwTRNbJvdmOTSkP8+0QxWwAazTcDZEpWTVGt5EEty5Rsuvj7VAOaEEC9aW4KoGgPG5NZ/jZp2Jj9AjC62NguugctjI0FpsegPWysSAJgnbi+hOGgq9bSxprXE6eLbWOR5GD3876qYg/V7LYOjvLOkg76s2muAaKmVUocSsNR1UHLtEOTp/CsHsYTVl/CNEk8NqblDjN7yRMhgTeSvi6wfT6yl5ZnamH05OWGwXYkyAEBP0KfITRTQctFsm9UaRC8bD8bIQmvmzP7CPmcnyeMRWA1XrMAU76JTzf2hv/Ml8NryEwPUgDo+Td+VNi2l4vPLxhPh5eXyweQ6f/2i4fcunwtifd/AQ==);lineShape=1;strokeColor=#0000FF;" vertex="1" parent="1">
          <mxGeometry x="563.2304075476295" y="270.14892588753673" width="6.730642099627403" height="23.823640276824335" as="geometry" />
        </mxCell>
        <mxCell id="28EZDfu7nihR8xJpcDyL-116" value="" style="shape=stencil(7VnbThwxDP2afbXiXJ1n2v4HElBWpYCA3v6+TlcZJs7O2d3HSrwtgz3x5fjY8ezC1ev99fPtzrvXt5enb7e/9jdv97vwaef9/vH+9mX/pr924fMuXN09vdx+fXn68Xhz+Pv5ukm2X9+ffrY3/D7osSMXmpZ3fw5PHPn478GXg/zD/nEtLxS9kQ9+W94nCtG+X7blA1Oe5B2QL5SLkeewLR8DJTHyLgP5StG+3wF7UqKYjHyu2/KZyY32eJIE5PX9bpDPVEH8c6FQB3n2FEGCVaGOBnGhCCKUhTyPHngICVUIowu+wJw1hRETihLotCrkUSFT4UsUIlNEaVOFERYxky+XKCSGwNM8GOClTAlFKRGPUcoelo5Cz49Q1TMLMEmxLSNXlEAOREld9COWip4AwBeTRav4Dpbj5V97mhYFzQPwIWj9G4VKFfig9cWjQg2QwVjfN+ahpv7kuEKw4KsFmqRYHim4ahQAMqagqnxCWSBXrHwAHnsLiypUQS0wlWTlEWE4ErHxQcWpHcP4q5UDQLQw+iphKJ5Ty6yxE9SGfDD2n0DQ9H5MqDwBjikB+dCJZ5F3kE5jP30ln0CP4jkBrnfd4wDSHukmBcDXwU8hchAS2vZzmhSAScp1s9MREXy2ffOEgiY1j2kQLRsAU0VZSlYB8bXC3swKynUMEq116NgqVJBpJQZvosTEyKRKYqChYUAmLQasio1B4hoXjj5oNWeUByUfo5AhX+u/y8RHgpyOVE3B6ZmAYOpcoQLboEbdF2tSAVHSvFofMgmouAa1qauhElUFa1KEk7Mq2MThSbWBeeI9dEIryKkeBGVaaSZZBTS0aeLqWA8tbqiAdKRyVgFWXOlRX5mUEZaExOTB9flhq4DK1H4YZJrd3EBD57atIwz1aRwY0Lc6YW3KsAVpmIJRKL3HbCXCzIV6pkdxvVSh6Jg0YmMVuK0BndNFGu22asoaT7d6fbazW+19bGscNpeGpgByzalfEVYK8jHdfky3/+l0m6eu4/oAcWYBtNYIKkY95jGigicYX8iNJgm+l4dl5lru5RXueJQmTF8rqbPZ8aDqCWObUvpDY1ssxGNZ5gIXKontUiiHHoatid5MkmnZmBxXmJio7XjQnWFZMq3XToi6sl1eaioRNFTBbBdZ4Lq2rSPHatDLGZq3WwcxWIJ3jHmfqvIX7WsFji/zPlgooeKZ9s0C73nzPlvg0DnvywWykdjuIX0GPT4k9GXxuzjCdLbiBV9qbas5AU97MUpwNa08Z8qlH3eeeDghbozxVAHrTq4uG4PzAsmw0qc04ZF6AoHrG78zMXbim8xJef3x/gHobv/wcPh+tP6//WCkjw4fm8Lnvw==);lineShape=1;strokeColor=#0000FF;" vertex="1" parent="1">
          <mxGeometry x="556.280370245514" y="302.08378432030906" width="17.139252887538305" height="20.91331705003097" as="geometry" />
        </mxCell>
        <mxCell id="28EZDfu7nihR8xJpcDyL-117" value="" style="shape=stencil(lVbLcsIwDPyaXDWW5eeZ0v9ghlAypYQJ9PX3VZpJi2IQyc0YbaxdrWRXtDrvN6e6suZ86drX+rPZXvYVPVXWNsd93TUXXlW0rmi1a7v6pWvfj9vh92nTR/art/aj/8LXgEMP1vUoa76HHQPG/G48D/GH5ngVnxwknMS7oMRnCFHEExh/Pz47MFbEowGvHJAjOCMA1oJVGOQMbpJRgKikhOZPkhHhLYSkHJEgS1FDAnIKIExJJAsmKgBOwAsA7ziFREpgkgRwSgqHRIBBAjJY5YSYwMnKcS2zUrnogCSH5HUAAsnKRVJLHTKkSeFYBlwCcAhZUalMybKZ8hLSyI6nJbJ6Nb6vm8zIqO4ujYEQrO486Yuo9ydbWw4MjGN3zGwewnGGzO1PF4EUjcoRENhIWrsVQybGcQ7eHWOSNQ9CtT/zVFYWLmsAN7Uqs/KKruXkfgAor4YrpW8jELzUlYvpNRKAk5ScWge2vhQpxbE7bsazV+X3+25SCBhIWfoiQlSMVF4MYby+5sU7gqzwLfIhq+pT8OVm9so0KvREO1ZwXr28Kk/pB1SbYOlj5HE8L/5fPrvmcBgeTtf/T19KvDW8smj9Aw==);lineShape=1;strokeColor=#0000FF;" vertex="1" parent="1">
          <mxGeometry x="592.2724626266645" y="290.2671232060776" width="4.773250769989772" height="1.4657535878448016" as="geometry" />
        </mxCell>
        <mxCell id="28EZDfu7nihR8xJpcDyL-118" value="" style="shape=stencil(rVbZctswDPwave6QBM/nNP2PzMSpNXXtjONef1+oGqUmaW2smb7pWBDAYgFwkIe3/dPrbnDm7XI+fd39HJ8v+0E+Dc6Nx/3uPF70aZDHQR5eTufdl/Pp+/F5fn99mpDT07fTj+mEX7NdQsmTkTO/5w+CIH8/fJ7hh/F4BXcWMVV4D0fw4lBCe35cx3vB9O8K7xDtOj4ITKzwGiA5PzokW+ENUlnHFwuJDd4YgvewXfyO4COiqeM3cMxBRmgcWBRPDApS7UHUJymZNe8pLhbhnbU1F742iBolM0itKrKDJGIQkOusi0NmWXc6UuIyyboY+Mag0KRzQmoMAiQTgwBfSy9HCCl1llarSZYjbhu4lqWQYVhInYFXMW0KyUUEUrg+aSuIpOEmWqUZMLSBurpp/7CG7oRhYTcpL8GSATNJuxlICZH3Z9M8YhFIDW70p08Q3p/NCIgCYSR1QyapkBhLqoJSa7sgs5C6OanE0ZC6QXzFw3+y6JeDMuc2bR9lTkix+/X2Qdr9/lSqPfHQL2hVcCKl6y4AkwOCj13KYSnl7ZThmgS04VgCiM1q8EhkhnVVTpEyqvOixkfNl5zfL8OwrOz78N4vDX5fPCJL863lW9dXb1Qsno5PGxYN3lcv3Zthgxw8MmFz43XzQ7g+/LvZvoyHw3wxvv7f3oT103yLlsc/);lineShape=1;strokeColor=#0000FF;" vertex="1" parent="1">
          <mxGeometry x="589.1611190342435" y="300.09069252010795" width="10.506926745652436" height="1.8186149597840995" as="geometry" />
        </mxCell>
        <mxCell id="28EZDfu7nihR8xJpcDyL-119" value="" style="shape=stencil(rVrZchs3EPwavqJwH8+O8x+ushyxokguWc7x92mEwWrRWPY6VXmTSDSxM5ije7CX8OHb46evDxdvv729vvz68Mf189vjJfx08f76/Pjwen3DX5fw8RI+fHl5ffjl9eX78+fb/18/9ZX9r99efu+/8OcNF4JprqO8/ev2STYx/fPBz7f1T9fn/XprYpnWVxPy/fW+mBym9c6Z6AQgmuBnQDJFAawpdQLgk3/3PAS4Yty8g0/SBhdMnW3wzYQqAM7YGRC8Sf4+oJo2P1FIxgkTsglpWh+tdGoyfj7kmEwSBkST5udPbjj5zvqS5/XNeBFFeey+BR12jMKh1jgCNJMVwJswh2lxI9CPAZHjukTjiwA0Y+MMKMNrx3HqTZwPuTRThJPgJU+p5o3TuWnnHSrcKoxG8rvZhppNaQKQRphtgGacSJ0AL82R0dxw9HEkRWPnHZofyXQMKMYHBjhhQ0IsOX6kLNyagomzl5o1VRidyuLWJotqtuOYdueQRb1AupBbERpNJGjGI1F4VxkayC9OoGCyODjkF3np/SeOAWH4ZAMk04RbSzaWioA1TZw0ALnNZQkppXaIps47oO6pOlYc954ejla4tY46twHQXEQhg0/cfNIR0ap2cCbNRiMHo9gB0Vrn4AtVujUlPjgAlNHdiXYGJJ3Tjftb0CkaM9elzjvEI0VvynwOvUeKBIKJlNOo5024FSZST/RO11Yk0ALwogj4wl0aAJWive1mNrqpHfL4vR2PKarHgQxS8G3Rdc/oMNuAfJA9LjATwNmrMhOW0EB0VRV8oFJztKbTlkUUGoCqgq+xWztABF/ybAMATbUsEFqywQ9ucAyoozDuAE6XmZD5kU5aFrsVXVQBytHBiXNAv+FijHAUwVc8RytiSTX2tT+AR6sy0xkelXs3xMexEPB8Dr0YCxvA8ApV763rHQMKN/YAqxSgja83ADq3iNaGukTl3mpAZQoHQBLh3SpnHOqIVYDGtRUAVfkAqJGNtkoOWJBvy35VIhFbrKKv6GfKBMiyBQFATBfVWFpdWQQh+uRBlKFgdoAi3AQAK+OTHfJw4o/akDhHu5fUDpDCZTkH0SAAiJQQcRSSe4BMXgqDyt4zmoTcWbgugvosIcpSZ05SrgxO+ONJnReAYrqIVupZYaOy9wBUXMFOsijfPeMKn8NJAjFAs8SDR8raravRRQ6vDtxadZlZD66Oh/yfAG4wtl2TU4/Uxe0igpTyQ5PjHbLU+NUx0wUVUNEKNdzmHcBOsgLkkV8bIEiN3+UzzdSiyYqdLKoJrE41amhLR3K3yIODtiRBDRqoqDFIHw1CU5M5vdLKrGezK3EFoCht6ZlWdoBi642LcdY8dB0wdYA4OOiB0pZHUtNTzyPv7iWlaRq33byJlnsiqC0DWiWo0dEinXSVE2nU6kKaBtGqppuVyQkyzorwhhh1JBVhlRKjcZmSBy2o/SJ36xDxxwA3YnPXUJRE8W6ZU1TZsrqiJ40fJJvpU+b5pF3Vkj0aP0eri/rg8iiMG8DL8PaNCxkAJ7G07uDVFCFyijov70N6Piw7qJkXMi4sXlLRihZY55x2SQYfqgaVSpdHDt6beVERcEUeXNrGSbsRlrw1ikOP7KLVq8lg5bE0zl5qfMsjrH6HoVpW4Dk2AEo05czn0Lm3GhpbzrigC1mJPLyPVmp8cA1LY4ck2UxZxCjYjDK6Wu5AaJOqagDAI6wi79cA8DTt9/JGsRQWTaAral4EtxLBAoNSU7V+wTfnNPZUTKDfT8yhUYPsouBLlW5dtA3wCV81eZkPPYHoqilL3ooUJaUIgaDGoWiydAHRJYjoQHG5OdqNOo4RgS8Uuo5SW9gDgCJ9YRk79ImQHsbTtBIqR0n24JgKNE3vURkpRyGLgiIbacxXt2DatOA9KkBs/X2UdzySwtd0DZn0awtxcJF9QsihF8d30ff+hYVfyZLoJqZ8qAHqPQHPCYocV/J76Yj9uk38vmWuhAYWxO8vM0GQYnUBaTnXkK6KvNmhIHedRGWaH9OLrbc12W4T1+Cg+0jh9V7LjMZpiV9QJAksjXIA9DWKPO6kaz4xr3W9q6xj8BMnhJsUq7NS1/uliyRZ7OAkem/Ey9EejogGoFaz7TAuSd7Xq/KO9TTjsoP13SPnNLyxss5hffK0XpGdfn0xr3eSpPa750jrmxLbiZNS34GGxGOYIN8LCksjiPLWCvbSvYG+TMd6GnikM+lP8ZDP4ue/vUF4uh5/vL+u+OX69HR723H/Pb/eiI9ur0aGj38D);lineShape=1;strokeColor=#0000FF;" vertex="1" parent="1">
          <mxGeometry x="630.1101725076844" y="286.2553098532461" width="41.58834482177804" height="22.61055294055393" as="geometry" />
        </mxCell>
        <mxCell id="28EZDfu7nihR8xJpcDyL-120" value="" style="shape=stencil(lVnZThwxEPyafW3Zbp/PJPkPJCCsQiAi5Pr71GTlybq9rhVvw9DlaZerL+9Bb74/3n67PwT3/e315cv9r+Pd2+NBPxxCOD4/3r8e3/B00I8HvXl4eb3//Pry4/nu9Pe3281ye/r68nNb4fcJV5zUtqGC+3N646WVfy8+neyfjs9n9lkljPZRWl3bpyyaBvsqzq3tYxNn/PGingCClDICooS4BmiRZr6QJSkBRMluBFQpxCX1knUABCctrAHgxI97CCqRsATSk/kCeG4E4MSPmw5NSloDwEnwA0CDNMKSD10HOyBJJXvwTvK4aYU0iPRAehiV58QR6RVJo/Kil0qEke0xR+1vLkvb+h+zOHLKSdx4ZtB6JP5Hu35SKSzUemDt9lUqtTcqRWwnoqHcJbnbl77Cgv8w8l+8eBI2VXT0p8CfvLYHe6MeCgRH9LMlklGhpfaouAxINhdVZEsSNGFKpjXS5IU9p5HTWiQSlxSpKg6A5mjgxyh+ZLUFyUylrpO+A7AHEjbI8H7cQ+OBn3cSd0DuoXoZgHMwgEIjPzfxEyAwqUJpZQKw3ALlhPcAKspUnABM3dmGD95kcg7bemECkHNo2EO2AFbXADCVE4DG9tBsSoWTSsQHQJtYYmVqA4wxDScD2wNcahaQ+R5sAKFFYedQe7icAVgSwBajt4DINo1MPH0hMpeSpGABTK0I+ZItS42kGQCCTrQy8emkpdqDdvUFZ1wq/ShXAMvSlYib0v0mb6bWNKk1c5eyrQ/XQrRInUKUqhVNklpA5fKOalliRREA61Khe/DO2cYEXjruUw0WkHjaMEPGJlcGqL0GngcEKRBbGpqyQGRfeC8ABSKPmeyMuFUNsrzu6XNV5UK1ANoRg/YpMzH5oYO8wCvrQdvkUu0dzmVAtF00mE5sPtzT+1l7wiZcDJS227gyUMapAfL0HNB5FzMTN3rSvthzqIm23mh1w9jPQF60Y+o62FvjRmeZ2Du83T73e4GFvTPrKw3QSamYHVgTGmzNxWxSyfrezg5QbiHruz4Znc1WTERTykvX1nfjAcc9pS3sw7jfmGjYgL0xCKByOslIMbOwo/U/2hZGeZOU7fpaevFdzHpmNkTQsbLmw3S5gJjk9x1m7An8kidM1xcIayUugSNzcwaWPdFQKLYM+tZpW907mWskJA7WSGqymQsjL2vCcKptZAlEV6aLPPWF0girCJM4psZMKz9mSXMpoX3Iv2w/cep6plxVQHXG3jN/qlQ19o4kakyq2qw9m52nA3A0zorrV0xn/nP7liw/5Hy3tGz5TKxn8XbQdjQvwt4kCs97Im/HO0/Pd/MnGnt2F1ymwur79fOKz3ddr1+3x8P/u/yH49PT6aeA8//bu3+8Ov1uoB//Ag==);lineShape=1;strokeColor=#0000FF;" vertex="1" parent="1">
          <mxGeometry x="679.410862456569" y="281.3691429520486" width="26.802359817273555" height="56.39346612537372" as="geometry" />
        </mxCell>
        <mxCell id="28EZDfu7nihR8xJpcDyL-121" value="" style="shape=stencil(lVjJchpBDP0arqreWzo7zn+4yjhQIcaFyfb30YTqgVYzD7ix6M1o15NW8elz8/KxXgX3eTzsv69/b1+Pm1X8sgph+75ZH7ZH/bSKz6v49LY/rL8d9j/fX0/fP14myenTj/2v6Ql/TrhIkSdQcH9PPziK5f8PX0/iu+37hThTDVY8Lov7SFKsvAPyQj4b+VCX5UNqr7+Qz0BeKDsrD/SPiYrVP3ggL+1xZ3kP9EmJfLLyAcirf8TKA32y+sc/Ii+UrP+RfEnk7PMdSJ/CY7wcyIcaqFh7K5IvxL3+moAM5LmlY5MXKiAfaqbSl4uvlAUAnE24UCghD2WKfUbETAxMKOrBHpAyBfCGnG0McoRFkH0zcQYwCcpqbkXYACVSRmmdyfdeKupWYEMK5Po+VD1FoJIWpik0DWVClZ/b8xqA1dEgDlEVqD0gtWZ5vRexNZpVSWC0Njvui01iK+/rKgUSk90OB041FqtSSiA1avt7BhQS4FZtAMFZLxVU0ZVcn60cYElztKnBHkZaqu2pGmkPho4wuWoBKA4K4AFQQaRFvS6DDUglaT3iwksRALybG++MiHDyT68wgUiw5BQQjRHamEBByEAuGLc+jZzJb80+RBcUYMaVAqANxfIRBXiQrqJdxVkbUCeTZCfW1DaQDYmyKbnYIrMIMG4NtwC2C/iWwEtGG5ahAEQD1K1mZmlBJBRpnetjjYK5q5GubAE3kq8EC8hIJbliNOKGCrAq6RTDBSTG6Nia4SLA2JBuAXKxAAH9Xr1k+Lymd0Fx4KG5agHhmrZuLbgvPQqYfGKSr7aRsTSC2BitUwxRsmELELwGKJ9K/YCQACtOCVMxkz23yFynArE1lRkwT+JFstEbfTEylna32iM0vZBflToHtlanG28QGwi0nij7t0NOZxbiZIWKoYnS2u11v2qT6Nu38kqHAKlxvBmAuUCstn0X3SCADUmf12dfCbCo07wjzfxeIJ9J1XJj3SnQ3NUNwnCy7CDVzcMWNDF+vAX53mglvxmUnG6utX9DCHD1U+ZqtiCfKIDWN+26pjG1W8uduzTDXB13dcZBGG4BWH68NdyQH24ZDPfQ8VbCD95iGNL08dbDsAmPtyRuOXXnrYohNRxvYfMecd+pjXFjsYc8hs1Xq6OfB8qlQckrAXRGHJEj365YZ3HEB2emNXcsuLw4u0NmWOrDpqOJ9Ih4bP30PmUwuR5MDa3q73Okhz1hCJNrE/O+JHBwy3zwVnxTXD+cz9Jv293udNW+/N+esfWn0wk8Pv8D);lineShape=1;strokeColor=#0000FF;" vertex="1" parent="1">
          <mxGeometry x="695.1811352543893" y="304.09869511748695" width="24.218984838480537" height="21.520235163775965" as="geometry" />
        </mxCell>
        <mxCell id="28EZDfu7nihR8xJpcDyL-122" value="" style="shape=stencil(lVfZctswDPwavWJIgudzmv5HZuLUnrp2xnF6/H3BaqiGRLS23nQsKQC7WEITP7ztn153kzNv18v5++7X4fm6n/jL5NzhtN9dDle5mvhx4oeX82X37XJ+Pz3P969PFVmvfpx/1h1+z+siuVQXOfNnfuAp5n8Pvs7w4+H0AW4j5R4fyId1vLyObtg/g/2ZKZQBb3gd7y052+GZbAT4TMl0eEcM8CGS7eO3FP06Pkr8I964dXwyVPp4DPm0ji9MJgx4YwA+jPy6Rsjn+EQu9vEbcugDmXJPgGRcQIVKodR/gSNFQLE1S4qL5hwlCz8xkBAzBbQgE/dVzSILRENsKmgLiqOMsvYUhgVSOJC17Of6RqiFQzmYUanCPYNWy5nckHQkBlTL69yHlJg8CEkW2MEsMhkUklog/V02hSSGFgBxNelB30yxbCmrxw2keDPtwZ3CsK0GdyovQcPT0rYJOphuHrYUAAef9KdPxLg/BwsQ22RUJGUySYSEqqRsLJe2xZ0+KVvAkMSIB97MDStW1n1rhT4cKjnANPTpI5UroOH08Vb1sun8LFhO+oAWBSOn1BOAcFMA13rEkAUWtKieYWoTgiFGzUjVWcEH/Chv2d8A8Yn4uceL6QCaXTPRRdxMBZ2grVeW7gmUQL6mSWBpzwi7TZ/PMhQCEWm/8FDWKh7emK8w4tCQOtbT4nw1X01Q98lB9AycZeNEfhMuF/+H/5fD8Tj/O3x8P/4syKP5R4Mf/wI=);lineShape=1;strokeColor=#0000FF;" vertex="1" parent="1">
          <mxGeometry x="699.1505539566631" y="317.05605024447675" width="13.5528314682972" height="1.8878995110464984" as="geometry" />
        </mxCell>
        <mxCell id="28EZDfu7nihR8xJpcDyL-123" value="" style="shape=stencil(lVbZcoMwDPwaXjW25UN+Ttv/yExIwzQNGZJef19RhiRygwJvxnixjt1FFa5Ou/Wxrpw5nbv2rf5qNuddhU+Vc81hV3fNmVcVPle42rZd/dq1H4fN8Hxc9yf71Xv72X/he8BlAvQ9ypmfYcd6iPFv52UA7JvDDcAaA8YIBHlIYRqREyBJQIaI0wB+TfKGjJDzNCARmCgBfKcCiAiYJCCDT9MAn8BlWaZrHe4i0IKXCC519kph01iUCyCqSSSwRdIOolMuACtzJi6b0gZTpkwIVsnYj7eP57ktqHzfIiTZ5uTBKRVyEYKMKFlwCvO8hSxDisw8mgYEGjOcCUgIHpeERNxT+y9pTT2hVE+6SPY+IEOSNzzoG/OSZA4PiME8I+kZPfM0QTvAgqo6tSNBKBxAF0/gABbqM0KUZeotQDE+1k8u9KmbjDVgCwfQbcyVEfU+qQj6rhErRVpq3Hb8Ecz8NWDpwpYtR6EFe2qh/9H3p/yCpJo9kOLZXM8gacobVgmfaS3jN0Cau3iwVJzXGBdCqTP9fGSD9wviSWnk77x82YoKfur17GVfWJfaL9Z4LkYLnQ+LZ5EZAF5cR59ts98Pk9Pt+3JU4q1hzMLnXw==);lineShape=1;strokeColor=#0000FF;" vertex="1" parent="1">
          <mxGeometry x="735.1931414595263" y="286.22558917676326" width="1.613717080947481" height="5.282557794115178" as="geometry" />
        </mxCell>
        <mxCell id="28EZDfu7nihR8xJpcDyL-124" value="" style="shape=stencil(lVfLctswDPwaXTEkQfBxTtP/yEyc2lPXzjju6+8LVaEjQtJ6cnMULEEAC2A58MPb/ul1NwT3dr2cv+9+H56v+4G/DCEcTvvd5XDVXwM/Dvzwcr7svl3OP0/P09+vT6Pl+OvH+dd4wp8JVyMJj6jg/k5fEuXw/8PXyf54OM3sS6RSOvvcPqzaZ0/FdfbeUXTbgMTkewdej5BtgETKxgOTi9uAmCikHhDJ+20Aa0qyBSQQ9JiTagEVePCJnLmSXrICQCTXXykIBVA3nyn3adWoIkirnveekwYQRwyuxKGFeGMSU2YAqI1pNypFisBDZCp9lkogB9KqlfY9uUumBK4klWLvQfvjvfbrbPXkpQdo3hC9A0m0gJRgP9grpXsNVIyHTAH0gwJSX4dayIE6aAzWQ2mV2cqS9GytmmjQQFqHGi2ggDpIsZX2zpEDaZJEzAsXd+ZMWAQB8ircYpynCfSohNYv80IguiqZDPtym55bgLogE6OgmaoJWhpb1gGySKu0UbUOyC3EecsBMkmxU6BGuLKSW/A7tjRs8dsvgkazUjsoeJtWj1vOTGMFVOwhm6B1x4DRN65RAyiwcBq0W7QcWkGaVvEWgGalFi6LBVTgQVvUkk8BqB8+C2BpLX9bEIUYNBCrXOo9FIYdx458LwWyQMEUgs1SwhtlFC+9/hHfjljPUuPyTQlkEuDgNkdnUsMBJqlMMHpM4NLNNmBViEiOjVKmZ2pp6mlLjRklk2GNY6BgJXFFc14D7reb4PEitmAMzy+euL+/b+Nm1b56WzAHCVSDzSfenDo9zV67c/5ChWEhqZNN7PloMdfFXPFNMq3bV6tGQuvRLftajT0aWzPl8VFgNKvHC/UO9HmB7It9j+jSBQTShCYj5SFBx4L156viBA382TfkfXv98fFgfTkcj9N7d/5/+8DVT9PjmB//AQ==);lineShape=1;strokeColor=#0000FF;" vertex="1" parent="1">
          <mxGeometry x="719.9662604740993" y="276.1332757233266" width="11.894484736974846" height="25.398017939813144" as="geometry" />
        </mxCell>
        <mxCell id="28EZDfu7nihR8xJpcDyL-125" value="" style="shape=stencil(lVjZctswDPwavWJIgOdzmv5HZuLUnrp2xnF6/H2haqiIoL1t32R5l8KxAEFO8vC2f3rdTezerpfz192Pw/N1P8mniflw2u8uh6s+TfI4ycPL+bL7cjm/n56X369PM3J++nb+Pq/wc+EVKnkmsfu1vHDE8ufF5wV+PJw2cI4Ui8XzfbxUkmTw3t/HR0+VDd65+/gUiKvBp3QfnxOJ6/DSHLqJL4F8b3+hAPwtmSR2eB+JgcNKCL0DalEFHpRCKfQeMCWQsuooSEcInlIEBKbSfyFqEiogxGbxSkjkQVRrptxnIXnKARBKs3glJCpAF7US94SsToM8KCH1hTBLBRC8W5W5SsPBzKkTwWgptlzeJgiF3olSqSK1MkXfEXSJAggp23KriTiD+hQr1zmXQBueLWETuNtek+vlqqkpIEqxebjBM5C3kPSJ1rwIsEeVGa3HDoTIt3pf8ZEyElIT8ooPrYfcsd+IQnPsQf0nK1Otb4+qmbyJj1YOaHl+bT8bQgCi82nIsMYYEeoNFyJI2ZyDYGMUQWnyWDiBCkiCEky7mAsHbZzqoqm0TBF8QZ22utMmiCot2S6shRBR4sQ2VSVUZJIbpKEEUJrJDheKD8CF0GaDrcsoC22X2cYUljIPSfOwlINZP8Bmx+3frezQtEPOZEy7JbCnDHhVFZC19225bWkih/+XENSkXta6RaFukWoT8UrIcFbIxbYXnckYJFl3YSPreSdHUXVUepMynkaKJ2emkQwHpHkw6IWUmAR9wdkxNeY26N6OUm4Wb2a2ggbhYKMUGG47GhMz2YoQgy8kHXd6HzhAH3SkMx1PW1pA7UWGJkwFaE8PFzbRFMH64+Elt1H6Hw9HehoA9gxnrwwnTg2PGDg6WQS74ej+AODcWv8HHB10fNtaVr3BLdyNcAciOYzWuOQHuMDqGoxh2KUHV3HTHQLpyYNADmly8DSXbJ1rpwDwYodjfLz/622APnzcJLwcjsflImL7v7150FfLrYU8/gY=);lineShape=1;strokeColor=#0000FF;" vertex="1" parent="1">
          <mxGeometry x="740.2364377556194" y="280.1817341934601" width="8.604184599764721" height="21.70699067585076" as="geometry" />
        </mxCell>
        <mxCell id="28EZDfu7nihR8xJpcDyL-126" value="" style="shape=stencil(lVjZUhsxEPwav6okjc5nQv6DKkzsCsGUIdffpxWX1tbI24Y3s0yv5uhpzexG7t52D6/bjbdv78fD9+3v/eP7biNfNt7vX3bb4/4dvzZyv5G7p8Nx++14+PnyePr79aFZtl8/Dr/aG/6ccMkk30De/j09sMaH/w++nsyf9y8X5i6bVJW9uHV7vL+Ifn9et5doXND2dt0+iHFO2TtZt4/WVB2vTcS+zPFa4k9CPq2yTyTeHIwd8+NNZvbV5DjYJ2pfvJHR3vmegTVAHQN2xWQScUEF8hhBMIGktAHKABDUOFKAH3MElkjhgPGEwFkNgIwnhNDTsJYl5VJYCnMdYHWfxWCEZClnE0Zix2oiA4jJY+ES6kAKl8Hk8YRUjSPUALcVAGcG0vzwOI9BIw2BnIDuzGkEIA2k0mj/MJKvOiPkBDBHnQBAIjGgrmkMuvB+gGI40QBPTkBaVQMBYImGVd8l8RJATqhBi1hzibC1Jq2SAFRCvgqZVGkFu4gu1YkaqEMgLjm7CO+C8Nyn2mVoAQR6BIJQhagLW9bS5EdxxROmAlVMHclUM70+W1KsBrCmbnXK2iWqZLigiwY4ppVR3yhIayV0LcHEsSGQhsBcmgGuR7XqkgJYE9klh6DHGEqldWhpnZqacsl1db/sUZJW5ETVAQCmxo18U48mopWN3lPQ6UYDRZ1WVofrPUrTBBmYuMGOqEuMFz0qN6Rs6lE2noDNWplyH1hW5ThoQLih358C4IZQVzsAiQQdpVNnASzadv1aXMi5TH2WD7p+VtdqLOHreSq80A12Vfts4ugTCC7EJZHewwsAJ5Cew/Qg4wm50KEMw4DSjewpXWPSUpZib9vrpbZ6n0l8gcD7lDJFT2esVExUwzH0m/AbADUBtWmaZKkBpnmd8hsujfzGRsCaGgAZAWAXG8oAsOO16CrlUtvjxqCdpVyK0wRUeuk/uIiWPsp+cNEtdBCYF+nSL8kPLuqFFnn+EFA4sfX+A3MyA8SuJWdzpsHSr/ulL3s014PVA3TuC+P1WPVEj64m7LR9OV06sqdqxVzdmYHOkJM59j7i++SMN4V939GhOqoNUyId3SumMlm+SmkS3FCFz33KummOH+evZk/75+fTR7fL/+uvbHh0+kIn9/8A);lineShape=1;strokeColor=#0000FF;" vertex="1" parent="1">
          <mxGeometry x="730.1410534550896" y="308.08378432030906" width="12.978824143686325" height="21.482612200879885" as="geometry" />
        </mxCell>
        <mxCell id="28EZDfu7nihR8xJpcDyL-127" value="" style="shape=stencil(rVnbbtswDP2avBLUXXrutv8o0HQN1jVF2t3+ftQCOSZtn6TA3tyUxxLvh/Qu3L093b/ud57f3k/Hb/tfh4f3p134tPP+8PK0Px3e5WkXPu/C3ePxtP96Ov54eTj//XrfJfvT9+PP/obfZ1yk7DrI85/zD0w+/fvhy1n8+fAyE3eOQlTynmIB8pWqfn8kF7blfabESj5RrdvyIRJr+UKRt+WjI6flG3ED8oVqUvKOqYIDUhj3nQCePDghNcpNAwK1uA3IC5e5RC4DQKXmNUCsDE4ogZxRWswATiiFOGhAIw8AlamYMHLjzHVAoKx18IEiAmQbGD2SPABUGxm+UkY6NEpFAYIbwbsKaJI72qwSvR74oXlrpVCgWZtEjjmhDd+vA9LIxik9JZ/RlTJ57Ycor3AAIDfWVuopBSpAqxT0CUlCAyRQaxR0xqVEEV2pjUAYgMxDq/UixmyDKcsRSIk2gnMqS0wRea5S0kqUSAVpXSjpslEqvlKipnWobhSSrWDy+koVX0kSwuRoLVRA8Zb3GUc0Hs7fKhtBB5OkSEKFKVPWOjRJOaB0L3065cRuqKHkZlNOUiQCK/XIMYAy6sJ6g5DCZKxUoVljoGTq/SWA1xHeppAEcENHSCkLFlCBEnEK/xkARZ8UrlosIAAdBJCDNVMDVxJASRaQkNJsa58AEFkSK7Hu1OLqhtiGXwGgpiWuNvVbAAUkRIzjxreekEbHuVUHabzxQ1bKNlyv+UGSeuE4xJgEEA3pw7EU06Iw4WgVs9oqcCUfhCY2C4AZ54dfb05qN+jL/AgEEFK20LpgAC+qAOq8PUcXSc1gfFgB1I9eSfgESoil0hVeacWsZZSqTc8tUq78T0CKtrVLD0LRJy3FxrfwOkAepGk1Y9YE+XqeAmHWeBGgeDsodv6BhhSpAqbOODiZCd1x+oROWBAgWU5WJzK7RYB4wZggJ3N2lJNLBlAFLjaZsT5UyTrd0Z7uvBIBErEO785cEU1cWOnCcLYAhsR1+o24cbS1Ugh+QmYNgx/NRoiABy2T01GKAOiK4jjTs6RlBGQlYa5ah+ivTZeGfUulckCHOt14NiwiIioTctI5LeMo6rs9mPWVwpWM82NemEbqNobsG/m9zzD4inAR7bi+XwIpWhbs23tyQGmpS3bhxcP3m9sWszxp8EpZwluf4DCHy86O1C7DjEvZFmOX4NYr8eBTs50UWvNJ9LNR2o2Osd7Yq6VkDi8e+25FX6kOFri+SFzUgDLGqPUZP1sNJFKAfFmsZsb4sSrONhMctCfbeczB6sJ2QnRQ18U2Q9wN324IvSgDxX0w4gmKmy0aj9Fy3U+W3zFMX2e3JAzJnR/LgZk4uLsfW9GZOBpR7W57sux6UtmFJEOvfnCTf1VcHi4fDR4Pz8/nbw7z/9uPDPLT+QNF+PwX);lineShape=1;strokeColor=#0000FF;" vertex="1" parent="1">
          <mxGeometry x="752.3767715836657" y="268.3767753551757" width="23.09993028316694" height="72.33816667012638" as="geometry" />
        </mxCell>
        <mxCell id="28EZDfu7nihR8xJpcDyL-128" value="" style="shape=stencil(lVnbUhsxDP2avGpsy9dn2v4HM4SSKSUM0Nvf97iZXWJ5c1Lewq4OlmVJ58i705vXh9vn/S6417eX47f9r8Pd28NOP+1CODw97F8Ob/i10887vbk/vuy/vhx/PN2d/n6+7Zb91/fjz/4ffp9wqYl3HRXcn9OTKLn+e/DlZP94eDq3D1KztU+X7WOVFAb7JFGJfZTQBvssidhrFRcH+yY1Evu4vF7svZfKFlhfr4AongBClWxWyFIYIEkaj8A3KZ4AgvhxBTxhK3i4NAYVa2ojALw2KxQpmQC8lDoC2vJkE4C0GBdQJFa4bI809aN9Fi3EIbVBVTjkSFDVBjV6iWSFnhijSzHQxMBrk9odQM456VKKZy4V4lJW0TQCnFRyCsWLDzZKmSRGyUsQV0AVJWGtbgJk6lKt9hxQsoV0mBakNQtgLamVDZcicck7J87ZuCZycg3parpkkkLiCp98Gdskz76GPmkARQLJvubFjcmUA+2stdj8zkUy2XRVcaNLJUgkvbgUaeMKhe8B6WrIp4Yl0NsFgT42brqibRAA6DCN3b42Sg+o0TaWXM9HsgIIsY17aGnpC5cYUUeXerKQFdArjUtnCXyJsuwmGt0EAC5YAKUsHGy2gEBqDrRfjEtVCiGIrhMmgCNxBSAXG1eWrtiDkUoNrYw0GgDqBFC26YmnAaB7aBMgLd1wm7ScpRSs4ElqgOVStoBITho8HuIUJeZSWLr1+TmQKAEwpwYjXg22qHsukfQGwPR7ZKuS5EOUwlwPzCVntUCvONLvw1ouHyhqnXyqvEbj5BMtiPVgz+LartRotQCmHjrArFAotwPQggU4XtRpStfE9lAtpfQK4u3YiLJe1GzTHwV0oWo2DVZigLRBWkxNJ7f03hXgaI2mbEkLcoIpJogRI08qFA456VytdIXUDOQcilrxUDCKkhXK2iRWgKOzMcSICWvOyxy1DUhWC2QvyiTWRBAItGcy0dkSfT/KS2raTcqVETUAJkpIx8RdMp0MIwQb/aArdVLfymTiNFzCpUxcgk41427kIi5H8WaUW/X4dj1Eq40R1kg2DQfM/Bq5FAAFabaAxFrlekxnAMbsGKlLm/ZAXKrTnnURRNtbsIIMx+ZIUJ0tNy0LXVywN6yuSvWbX1TFas+nvik+74x64U7DCJ8QqcrwwV5F9ZsgtoFk2dC3pQluA6ZrFg9CZfQZ7PVev3hhijXZmc87OmCFeSKjdIsztXMuTSLM/s1k3TWyNdd7K3Nt22c7RmO/rFOE2d6xAXS6wOWyMDXLOY7GJzt7s+dopwODGRXpaEJ04h/jj6LnQiEaIXxNWJiJZ2W4/7bPpChnf5Qy8rxfpdw0xzNSHpjPK9KuPudDpLc8H/5gcNUeP96/TtwfHh9PHzfO39uvGXh0+hKin/8C);lineShape=1;strokeColor=#0000FF;" vertex="1" parent="1">
          <mxGeometry x="26.436617230525826" y="201.17069645037566" width="22.951150228536562" height="35.46638732723568" as="geometry" />
        </mxCell>
        <mxCell id="28EZDfu7nihR8xJpcDyL-129" value="" style="shape=stencil(nVfLctswDPwaXTEkwec5Tf8jM3FqT10747ht8veFqioNIHVp9SbTWJIAFgtw4LuX/cPzbgju5Xo5f939PDxe9wN/GkI4nPa7y+EqXwPfD3z3dL7svlzO30+P0+/nh9Fy/Pp2/jHu8DrhGlMqIyq4t2mFqcbfC58n++PhpO0dK3vvKHkIKEkDMrkAAJGKU4Dg5zPXAYly1oBEFZ2QKWkf2M0r/wL82e8dICeULYDoKWJAMYBCvmEfmgKkQC0DQCEXNaCSqxCQdZSynIDCWil4DZAtEgQYapRAjPLQKOgolUwNRalR1k5XP6+sArxz5DT7hF4JZa4QVw2QO4G41kbVnCCBA2EqkifN7zEOwInMxMUCUFEL14Im04c4rCJY6NzsERlkwi/YJF435DV543ShCvjtyRebhgTY6qzLkmcHHIiUNfVGYQMR8mxlrAUolGFR0Q1zVSSlBQtAmiEF790WQGGKvOVKNRP7LU5L0G314LAKzYo5AedNaFaND5gYcuOqNaPDvCqiZaiKqZ0rJZMHXDwi7XljfWbK3h6BJEDqp7EFIJGRtu+b9RrJWFjcCOvkViHebm+y1mkNjopmaqf3+DkaNzY3T0XHs9M9gxX5Tnt+Hw9u7P9S+zpfnQGDKej4dCYYJm/s8Yi0sO/MYDzvduOQF4l12XemSFGuTWNqtnzozMHCLn3/zqCdrVbjQb4spmxqYHcvyQnG3iF5kLHISNbMj3V2JhseN0/169mNlKx9ANGM0c6aWEDTyn2QfU4Ut9ynrNwH+VsX8onjWaXH6HLB+ZKuZ+kM+fAf78aOvXz8faQ+HY7H6Y378X/7qJWl6UHM978A);lineShape=1;strokeColor=#0000FF;" vertex="1" parent="1">
          <mxGeometry x="52.04355585160238" y="202.17263723550934" width="1.912888296795245" height="21.543205576982928" as="geometry" />
        </mxCell>
        <mxCell id="28EZDfu7nihR8xJpcDyL-130" value="" style="shape=stencil(rVfbbtswDP0avxISKery3HX/UaDpYixLijTd1r8vPcOZxdSnGLA3R+ERb4cXDXL3sn943g0cXi7n0/fdr/Hxsh/ky8A8Hve783ixr0HuB7l7Op13386n1+Pj/Pv5YZKcvn6cfk43/J5xTEUnEIe3+aAGyu3PyddZ/jAeV/JRSWoHKJFYtwEsVKQDZDvJ2wAxDb1JqlBDUoq9htQoyTZAmaoDMDXgtDZqqQNIJo7bgKzUQgfgRpK2ARbE1HoAL4H+ENCUQu4AgQJQ0DKl6uRjAfKFauzkzULgcavUenmhDHLQGuXS04JyALwL5l8f0mgnDDXUXkMUUuSCpchpyFSQhrrk9AqwK5CGQsFlOVJAAF2KcQXIKM2JuHpARABZDFj5oKDaGt8AzCsEiCTN56GCajMAOw0Bc++meDI1xG32CoQa4qoQOyZRRvYk0t6eABuY1aYL6ZXrWzQSf39FvaKSOlJQQQmw9tn3FsWUuGmPleon8i6e1uzASDCAukJTKrgbubqJdbliK6TajwSLqSKT8tI+V4X2XwE2iEMPEIFOl+SHTgokgNe5+rwl3PAyU+oBKhSBSWomOSYZtwC1JwPctoC5J2UZ9et9BGTaegM7sgYqAGDtrfRhrRX6oH6MTPQFUU1+31nNuo999ivYVFBA/iZrJo9CFJdJfJWvcLcInnfGdbS7hBv7Eyx/i4aT52WObsm7hLUlhRvysSdpLXBZC74bVYUz1iYw9/I2UEBdRr+41AjL8l93+M/l7ePvg+FpPBzm98b6f//AsKP5cSL37w==);lineShape=1;strokeColor=#0000FF;" vertex="1" parent="1">
          <mxGeometry x="45.260307838747394" y="208.2789306465238" width="18.382673385609223" height="7.459005105906613" as="geometry" />
        </mxCell>
        <mxCell id="28EZDfu7nihR8xJpcDyL-131" value="" style="shape=stencil(lVjZctswDPwav2JIgOdzmv5HZuI0nqZxxnGvvy9Ul4wJSpvmTVG8Io7dBaSd3Lw+3r3sd+xez6fj1/3Pw/35cSefdsyH58f96XDWq53c7uTm4Xjafzkdvz/fX/5+uVt+uVx9O/5YnvDrguNCqSwodr8vd3ImH//e+XwBPB2erwASyecBkBIVAAhMMQ6AWCiWbUBUQBgAIVN2AFAojyeI3knbgKTPqwOANWkQUq5UeQD4TCLgBKE4nuArMQCERDwm7QvVvA1gDUnGHBw5UCX2FMbGcWxZrQKWAMakJbVWrgMqiWlcpQJOYCH2lhqlAvI54rHTC/k8ANTGzU5vgVXSiP8x50oPDlCjJEpjH4qjCMhXKqWRGsWTA0lXpjD2oXBj1zogWAGVAMtaY2tTB2QooJrIj0lX994JYQypClV0grS+doAWOgCAt1Wqam2ArUVdyORQmy2sA+J0QtfgOkAbN53ggKbVZsoo0ZqJkS8VcqZKATZuIfOoB61bRiF19ndqaFmBppeQDL0j7kO3rQ4Q8khAbL219N5vNc4CHCXgGkuKE6AA19AixrFxGiSymYX9RnGhdWZLQNFUKb0rUWMCyi4koEh57LQaD5RooGC4FKEZ6/N4LKtKFOlBI54lGlGnE4XRvb3DU/HjCJ0QBqEiRYXVjSmyLWwAdeIwtS7COvlEYpa4CpeHSdQJr2TeSlR3NORLk6R1CUTW6iz1RKc06LPYHZSZBAmayvh836m4nm/f7nrCJECdb+tjP6CN4PX4s50MDi4ZMdrnY45mtgk7bKm+Mfjt92jjVgKbuSPwpUF1Xk19XKPsegPcRCENKWCDNC3TriOVqab8qGMJWDTT7AxCAliUdNobFgW4D8faWNZ1GeB7SSj2rSFrViCk4JulX1kL2unDJE1dDR2itr7nmFFYYEiqBbutKlvwG6h5ZdU5wYDdaibFWYBH9sLTStKXxa33kuBslSKy+DptSX1erwPKNBN0/IKyqiUlExJTAlVSgBlTuvSgDUMBxmRy99mtHD72reE/AHrx9mnj4fD0dPkycv1/+ylEb10+o8jtHw==);lineShape=1;strokeColor=#0000FF;" vertex="1" parent="1">
          <mxGeometry x="54.02262208900606" y="211.94548560041062" width="11.259858590215117" height="11.130030789667103" as="geometry" />
        </mxCell>
        <mxCell id="28EZDfu7nihR8xJpcDyL-132" value="" style="shape=stencil(7Vrbchs3DP0avWJIgtfnNPmPzMSuNXXsjOO0yd8XrIZrAdQeZvOY6Zss8+wSd+BAJ3739eHjl7tTcF9fX57/uvvn/On14cR/nEI4Pz3cvZxf5dOJ35/43f3zy92fL8/fnj5d/v7ysZ/snz4//92f8P2CC4Fq7ajgfly+4UAt/PfNhwvg8fykAblpQCEuEFBZAaInFwGAyRlAJK4QEAygUEJXYopBAZKj4iEgaaETD6n2ACVqQKaGAbUoQHbkkB2YmjZcZvIIEMmZN2QKSOho7ZAblYSvpNVaRNHYcNkAChWspaCFrgHLIDpJGpCJ8Ru8V4DmiPEbjPM1sT0WumgZWhmX3PXWaAEVBVCgqIVuFdvBWedrjRy4kq9UJkACWvKidWcBKID8FHHeSUA4gBAh3CFEJVeP3ClR9keEFhHCIa2ODPGTZnPUDvmFm+6PHU8c39zfU8bns461CjOS3Effv0oCyVBe7RKlDQ3v6NNrfZZEETkpefN8PyJv53zQ+sllcZ+g5ZWMnfHzTQ2R/Av0I+d12KdEtUF5TRWUxAHKpuhfPz+2kft2zpuAjHlE3J4/mOeHhT8kbV+W+IXno/Z/zlCfk/+z2AueN5WAHWxDHHkdL6Es9O+1PgPui9zINtt58RDgD1u23BJoHRGxl6/M+Qj1k4d13hL0iOjbz09DfVtAUka1u9qAidSAPlnSqxaAR8a4eT42m9A9lLdIAGgDLOpRpBrMeaSfFinZ+6N8IuXEBEwZGeP2+Wb1LwZDBUkATUeYlPEMa/bscxl24rcQbeSZ3UtpKaQ/aguANoN4LrKb6NUZQCMPHK82yvpKHEctvw1wtpQxDgXJnFVbQmaoCHxJYsFcSQAFXElubLpSAaDuoCfDCYDKR8+Gpn4wrK/SoLGZAwN0P8kPSWckGU0TiGh5g0nZ0eErFTt0SY1KIIR4SvJiGdTU8TR0CQBVBfm3jxYQwBtEiewtIAJLx2QbNQGgRByr9VbGnY6M63GyAxoc+3yve32xNJrSJNeXyZdQmonFdhfirRlEnHi/GT86zYHs4G4ACrgSp4l5EQDwVvaTluKIwb2Ky9EKDYffZOmmuKCbtpbiynANsxY28znYFYZpNO1tJGKP6uTeMteBN3AYIX8VDwkZ7igg55Hcr1g8B+KhbIlxK1l4Vitx8CzXVRTYobDVUq/sIB4EwHbih+1/btP8BeNHpptiuCBstmSt4D2cX0K2Ado7WETURBs+iw5dAEHraDECdIBpTfCMIQBDmC2GmJlWXExJnSU0ADyGdWpUp4DFnNcZtil3I0+a6d3FpNopOfMGPAp3llALvZi1+yhihn88zN8A4Bo6U6MLOqIDtB0WfEcHHCJUupb0lRaMTZhyxoIS6q5hcgDmnGYSfEFqzfGwYM1+Fz54olL/54N/Mz7Y24Sx2HR4u6xZrFK85c8WuxpvVzWLZZAb+XBLFnjbNA0Zi3XWxH8v9mXOzlWLhdzEXy42fs7622KlOPGvi52lG/3cdh4vRbd2bjuPt66Tvy3Wut7qf7E39jemf7SY9gc3335kg6umHM063tJ/ch52g7bNYY8nTgrOnkc0Vbb7AWkFESU006kO8gS9v/cWgAT2W/z9LCDZJfnqSpVCPiJzJ+XbEaUGb6NsYTUxs2FhV27xCz/pWAHkw9svSO7Pj4+XH6Bc/9/+4kS+uvxahd//Cw==);lineShape=1;strokeColor=#0000FF;" vertex="1" parent="1">
          <mxGeometry x="68.02343120844239" y="202.35887006949054" width="8.009208269571445" height="32.322340628597885" as="geometry" />
        </mxCell>
        <mxCell id="28EZDfu7nihR8xJpcDyL-133" value="" style="shape=stencil(lVhJchsxDHyNriiS4Iaz4/zDVZZjVRzJJSvb74PJhOMhOGpHN1lGi1gaDZA7vnt7fnjd74J7u5xPX/c/D4+X5x1/2oVwOD7vz4eLftrx/Y7vnk7n/Zfz6fvxcf779WGynD59O/2YfuHXjEsU8wQK7vf8hSPn/n7xeTZ/ORxX5j5S8dY+X7cPgTha+wDshUI19qlct+dEqbfXA9N1++iIpbNPVID/MVDu/feOYgQAJnY9IBFXCEg9QENmEPLoksbAyCVPHHqAUAUArsTcAbiQ97AKoWfRFBUCBPKlBwgV4JJ67Po6p4KJVyyxs8eARLUPOicYdGCS3qXC5AD3lJrRAAoFAQBH0jdb9ZB8XogNQPsDBD0CRE8A5NO01mABAXEpkfRpFawASu/Q07sWEpAlZY4PNugKCqfMkWDTWkCL5mjJV4QSCDpLc2BVaQdO0CSW1AMcZVAHYavDBeuSJMoynADqIKURYQF48qAOUqkagHY5mCWytPyqgQJoIO+W4bQgItQZPSKbNGG91yByz42SqSJAsezTUhfkUrITrlQKKE3cRGIFYARQvc/WJQHsq5qlm4Sp1sa1VZYgQHNSbB3cB4BeNpQbqKnrMLOUfRlkSYNOhhoerhqaVm+CdnCMyjIO1j2KTtCcDCdAemc7IBQgmN5mKmrQBbmkWQo2rRX0qALEsDVi6Ru1MsEVTgHOAHJz8lqL5qEfIspSsgNCOw7GcCtAPTbyXbkp1TbAke9btGao99m1/lrN3X8dsj0VYxtpCyA0Wdieu8XGIJEEdByLbaD3ylxb+nLfQFr7iG4nenvoXVqNjG3EsBurTwkIU7YzS7MkKK22HVSokFJm2w0TMQC5a7srrFcT4I+0abbqtgiq7IMdJrm0XWUbwG1LWAAMpX66UprVXnDNcrtQLQAlHl6LDVOVu8glXe2NEEesq1o2e2OKcFxpHUxa3yu53Ty6l/cxfHQz9lYx9CKKsqQu2bUYLjLTTduIXhPm/3w6yDCnw8tEwfcG8sn+OjAPdnJm2GbetmVuWrZp7uylJ8E57mwmI1xShy2YYWE3zBH5B2f0QgZ4NoTq4TAeEqk7FJCfoUwODoCBBA7eQG58/PrQXD+8v7M9HV5e5me69f/tu5x+Nb/p8f0f);lineShape=1;strokeColor=#0000FF;" vertex="1" parent="1">
          <mxGeometry x="80.15020421293502" y="189.14396753384983" width="15.552841546781792" height="24.373381847734095" as="geometry" />
        </mxCell>
      </root>
    </mxGraphModel>
  </diagram>
</mxfile>
